<svg enable-background="new 0 0 76.4 138.4" viewBox="0 0 76.4 138.4" xmlns="http://www.w3.org/2000/svg"><path d="m74.4 106.3c-.1.4-.2.8-.3 1.2 0 .1 0 .1-.1.2h.2c.1-.2.3-.5.4-.7 0-.3.1-.6.4-.7.2-.1.3-.3.4-.4s.3-.3.3-.3c.1 0 .3.2.4.3s.1.2.1.3c-.1.8.1 1.7.2 2.5.1.7-.1 1.5-.2 2.2 0 .1-.1.2-.1.3-.4.4-.5 1-.5 1.5-.1 1-.8 1.8-1.8 2-.3.1-.6.2-.7.4-.6.6-1.2 1.3-1.8 1.9-.3.3-.7.4-1 .6-.6.5-1.2 1-1.8 1.5-1.4 1.2-2.8 2.3-4.1 3.5-1.3 1.1-2.7 2-4.1 3-1.3.8-2.6 1.5-3.9 2.3-2 1.1-3.9 2.1-5.9 3.3-1.4.8-2.7 1.7-4.1 2.6-1.3.8-2.7 1.7-4.1 2.5-.6.4-1.2.8-1.8 1.2-.2.1-.4.3 0 .5 0 0 .1.2 0 .2-.1.1-.3.1-.4.1-.3 0-.6.1-.9.1-.1 0-.2 0-.3 0-.3-.2-.7-.1-1-.1-.2 0-.3-.1-.5-.2-.2-.2-.5-.3-.8-.5-.8-.4-1.7-.8-2.5-1.2-1-.5-1.9-.9-2.8-1.4-1.2-.7-2.5-1-3.7-1.5-2.3-.9-4.5-1.7-6.7-2.6-.9-.4-1.7-1.1-2.5-1.6-.6-.4-1.2-.7-1.8-1-.8-.4-1.6-.9-2.5-1.3-1.5-.7-3-1.3-4.4-2-.8-.4-1.5-.8-2.3-1.1-.2-.1-.5-.2-.8-.3-.1 0-.1 0-.2 0h.2c.6 0 1.1.1 1.7.1.1 0 .3 0 .4.1.8.8 1.9 1.2 2.9 1.6 1.9.8 3.9 1.6 5.7 2.6 1.2.7 2.5 1.2 3.6 2.1 1.4 1.2 3.1 1.4 4.7 2 1.9.7 3.9 1.3 5.8 2.1.9.3 1.6.8 2.5 1.2.9.5 1.7 1 2.6 1.4.2.1.4 0 .7.1.1 0 .2.1.3.1.3.1.6.3.8.3.1 0 .3-.2.3-.3 0-.5-.1-1-.1-1.5s.1-1 .2-1.5c.1-.6.2-1.1.3-1.7.1-.4.1-.8.1-1.2 0-.1-.1-.2-.2-.4 0 .1-.1.2-.1.3s0 .1-.1.2c0 0-.1-.1-.1-.1 0-.3 0-.6.3-.6.1 0 .4.2.4.4v2c-.1.8-.2 1.5-.3 2.3 0 .1 0 .3.1.4.3.5.6.9.9 1.3.1.2.2.2.4.1.6-.4 1.3-.7 1.9-1.1 1-.6 2.1-1.2 3.1-1.9 1.2-.8 2.4-1.6 3.7-2.3 1.4-.8 2.8-1.6 4.3-2.3 1.5-.9 3.1-1.7 4.6-2.6 1-.5 1.9-1.1 2.8-1.7 1.3-.9 2.6-1.7 3.8-2.8 1.1-1.1 2.3-2.1 3.5-3.2 1.2-1 2.4-2 3.6-3 .6-.5 1.2-.9 1.8-1.4.1-.1.3-.2.5-.2.9-.3 1.1-1.1 1.4-1.8.2-.5.2-1 .5-1.5 0 0 0-.1 0-.2 0-.8.1-1.6.1-2.4 0-.7-.1-1.4-.1-2.1 0-.1 0-.1-.1-.2-.2.1-.4.2-.6.3-.1 0-.1.2-.1.3.1.4-.2.7-.5 1-.7.6-1.3 1.1-2 1.7-.1.1-.3.2-.4.2-.5 0-.8.3-1.1.5-.2.2-.5.3-.7.5-.3.2-.6.4-.9.6-.5.3-.9.7-1.4 1-.3.2-.4.2 0 .4.1 0 .2.2.1.2-.1.1-.2.2-.3.2s-.2 0-.4 0c-.3 0-.5.1-.7.3-.6.4-1.2.7-1.7 1.1-1 .7-1.9 1.5-2.9 2.1-1.2.8-2.4 1.5-3.6 2.2-1.5.8-2.9 1.7-4.4 2.4-1 .5-1.8 1.2-2.7 1.9s-1.7 1.3-2.8 1.6c-1.2.4-2.3 1.1-3.3 1.7-.5.3-1 .5-1.6.6-.3 0-.7.3-1 .5-.6.4-1.2.8-1.9 1.2-.4.2-.6.6-1.1.6-.1 0-.2.2-.2.4-.1.4-.4.5-.7.2-.4-.2-.7-.6-.7-1.1 0-.1-.1-.3-.2-.4-2.1-.9-4.1-1.8-6.2-2.6-1.9-.7-3.8-1.3-5.6-2.2-1-.5-2.1-.8-3.1-1.2s-2-.9-3-1.4c-1.3-.6-2.6-1.1-3.9-1.6-.4-.2-.7-.3-1-.6-.8-.6-1.8-.9-2.7-1.3s-1.7-.7-2.6-1.1c-.1-.1-.3-.1-.4-.1s-.3 0-.2.2v.3c-.1 0-.2 0-.3-.1-.4-.6-1.1-1-1.7-1.3s-1.2-.7-1.7-1.1c-.2-.1-.4-.1-.6.1-.1.1-.2 0-.3 0l.2-.2c.2-.2.2-.3 0-.6-.6-.6-1.4-1.1-1.8-2-.1-.1-.2-.2-.3-.3 0 0-.1 0-.2 0v.2.6c0 .3 0 .6.4.7.3 0 .5.3.7.5 0 0 0 .1-.1.1-.3 0-.4.2-.3.4 0 .5.1.9.1 1.4 0 .7.2 1.3.7 1.8.7.6 1.2 1.3 1.8 1.9.1.1.1.4.2.6-.2 0-.5 0-.6-.2-.4-.5-.8-1-1.2-1.5-.2-.2-.4-.4-.6-.6 0 .3.1.5.1.8.1.3.2.6.4.9.1.3.3.6.6.7.4.3.6.8.7 1.3.1.4.1.9.1 1.4v.2s-.1-.1-.1-.1c-.3-.4-.5-.8-.8-1.2-.1-.2-.2-.3-.4-.4-1-.4-1.2-1.3-1.5-2.1-.2-.5-.3-1-.5-1.6 0-.1 0-.2 0-.2.1 0 .3-.1.5-.1.1 0 .1.1.2.2s.2.1.3.2c0-.1 0-.3 0-.4-.1-.2-.2-.5-.4-.6-.5-.4-.5-1-.6-1.5 0-1-.1-2.1-.1-3.1 0-.6-.1-1.1-.1-1.7 0-.2 0-.4.1-.6.7-1 1.3-2 2-3.1.1-.1.1-.2.2-.4s.1-.2.4-.2c.4 0 .9-.3 1.3-.4.1 0 .2-.3.1-.4-.3-1.6-.6-3.1-.8-4.7-.1-.8-.2-1.7-.3-2.5-.1-1.1-.1-2.4-.2-3.7-.1-1-.1-2-.2-2.9-.1-1.3-.1-2.5-.2-3.8-.1-.9-.1-1.9-.2-2.8-.1-1.6-.2-3.2-.4-4.8-.1-1.4-.2-2.7-.4-4.1-.1-.6-.3-1.1-.4-1.6-.1-.6-.1-1.2-.1-1.8 0-.3.2-.6-.4-.7-.5-.1-.9-.5-1.4-.7-.1-.1-.2-.2-.2-.3.1 0 .2-.1.4-.1.4-.2.6-.3.9-.4.1 0 .1 0 .2-.1-.1 0-.1-.1-.2-.1s-.3-.1-.4-.1c-.7-.1-1.3-.4-1.8-.9-.2-.2-.3-.4.2-.4s1-.2 1.5-.3c.7-.1.8-.2.7-.9 0-.6-.1-1.1-.2-1.7 0-.6-.1-1.2-.1-1.9-.1-1.3-.1-2.5-.2-3.8 0-.9-.1-1.7-.2-2.6s-.3-1.7-.4-2.6c-.1-.5-.1-.9-.1-1.4 0-1-.2-2.2-.3-3.4 0-.6 0-1.2-.1-1.7-.1-1.6-.2-3.3-.3-4.9 0-.7-.1-1.5-.2-2.2-.1-1-.1-2.1-.2-3.1 0-.1-.1-.1-.1-.2 0-.2-.1-.3-.1-.5 0-1 0-2 .1-3.1.1-1.4.2-2.9.4-4.3.1-1 .2-2 .4-2.9.3-1.7.7-3.3 1.1-5 .3-.9.7-1.7 1.2-2.6.6-1.2 1.2-2.3 1.8-3.4.3-.6.6-1.2.9-1.7 0-.2 0-.1.2-.2.1-.1.1-.3.2-.4-.3-.1-.1-.3-.1-.4.8-1.8 1.8-3.6 3.3-4.9.3-.3.6-.7 1-1 1.1-1.2 2.4-2.1 3.7-3 .9-.8 1.8-1.4 2.8-1.9 1.2-.6 2.4-.9 3.6-1.4 1.3-.5 2.6-.8 3.9-1 .9-.1 1.8.1 2.7.1.6 0 1.2.1 1.8.1 1.5 0 3 .4 4.5.9.3.1.6.4.8.6.3.3.6.5 1.1.6.8.2 1.7.4 2.3.9.7.6 1.4.5 2.2.6.5.1.9.2 1.4.3.9.2 1.8.4 2.7.6 1.1.2 2.1.4 3.1.7 1 .2 1.9.4 2.8.6.3.1.7 0 1-.1.5-.1.8.1 1 .6 0 .1.2.2.4.2.6 0 1.1-.1 1.7-.2.6 0 1.1 0 1.7-.2.4-.1.9 0 1.4.1 2.1.5 4.1 1.2 6 2.3 1.4.8 2.6 1.8 3.6 3 .9 1 1.5 2.2 2.2 3.4s1.1 2.6 1.7 3.8c.2.3.4.6.6 1 .5 1 .9 2 .9 3.2 0 .6.2 1.3.3 1.9.1.4.1.8.1 1.2.1 1.2.2 2.4.3 3.6.1 1.1.2 2.3.2 3.4v5.6c0 1.3 0 2.6-.1 3.9-.3 2.5-.1 4.9-.2 7.4 0 1.2.1 2.4.1 3.7v3.4c0 2.1-.1 4.1-.2 6.2 0 1-.1 1.9-.2 2.9-.1 1.5-.1 2.9-.2 4.4-.1 1.1-.2 2.2-.3 3.3 0 .1.1.3.1.4-.1 1.2-.1 2.4-.2 3.6 0 .7-.1 1.5-.2 2.2-.1 1.7-.2 3.4-.3 5.2 0 .2.1.5.1.7s.1.4 0 .6c-.5 1.1-.1 2.1-.1 3.2 0 .8-.1 1.6-.1 2.4 0 .3.1.6.1.9v3.4c0 .5-.1 1.1-.1 1.6v2.6c0 .7-.1 1.4-.1 2.1 0 .4.2.8.1 1.1-.2.5-.1 1.1-.1 1.6 0 .2.1.3.2.5.1-.1.2-.1.4-.2.7-.5 1.4-.7 2.2-.5.5 0 .7.4.5.9m-38.5-83.7c-.1 0-.2 0-.3.1v.1c.1 0 .2-.1.3-.2.2 0 .2 0 .3.1v-.1c-.1 0-.2 0-.3 0m-31.5 45.9c-.1-.1-.1-.2-.2-.2-.3 0-.5.1-.8.1-.7.2-1.4.4-2 .6-.1 0-.2.1-.2.1.1.1.1.1.2.2.3 0 .7 0 1 .1.5.1 1 .2 1.5-.3.1-.2.3-.4.5-.6-.2.3-.5.6-.7.8-.1.1-.1.3-.1.4.2 0 .4.1.6 0 .4-.2.8-.5 1.2-.7h.2s-.1.1-.1.1c-.2.1-.4.3-.6.4-.1.1-.2.3-.2.5 0 .1.2.2.3.2.2.1.3.2.5.3 1.3.7 2.6 1.3 3.8 2 1.6.9 3.1 2 4.8 2.9s3.4 1.7 5.2 2.4c1.3.5 2.6 1 3.8 1.5 1.1.4 2.2.9 3.3 1.4.8.4 1.6.8 2.3 1.3 1 .6 2.1 1.2 3.1 1.8.6.4 1.3.8 1.9 1.2.1.1.3.1.4.1s.1-.2.1-.4c0-.3 0-.7 0-1s-.1-.4-.3-.6c-.3-.2-.5-.4-.6-.8-.1-.3-.2-.6-.6-.9-1.1-.7-2.2-1.5-3.3-2.1-1.5-.8-3-1.6-4.6-2.4-2.1-1-4.2-1.8-6.3-2.8-1.4-.6-2.7-1.3-4.1-2-1.6-.8-3.2-1.5-4.7-2.5-1-.6-2.1-1.1-3.1-1.7-.1 0-.2-.1-.2-.1v.3.5c0 .1-.1.1-.1.2 0-.1-.1-.1-.1-.2-.1-.3-.3-.5-.4-.8-.1-.2-.3-.4-.4-.6-.2-.2-.1-.5.2-.5.5 0 .4-.4.4-.7 0-.1-.1-.3-.1-.4-.1-1.1-.2-2.1-.4-3.2 0-.2-.1-.3-.2-.4 0 .1-.1.3-.1.4 0 .2 0 .4.1.5 0 .8.1 1.5.1 2.3 0 .1-.2.2-.3.3 0 0-.2-.1-.2-.2-.1-.7-.2-1.4-.3-2.1 0-.5 0-1.1 0-1.6-.1-.8-.3-1.6-.4-2.4-.2-.2-.2-.8-.3-1.4-.1-.9-.4-1.7-.4-2.6-.1-1.1-.1-2.3-.1-3.4 0-2.5 0-5.1-.3-7.6-.1-1.1-.2-2.2-.2-3.3 0-1.8 0-3.7 0-5.5 0-.9.1-1.8.2-2.7s.1-1.8.2-2.7c.2-1.4.4-2.7.5-4.1s.6-2.7 1-4.1.9-2.7 1.3-4.1c.4-1.3 1.1-2.5 1.8-3.7.8-1.3 1.7-2.6 2.8-3.7.9-.9 1.7-2 2.8-2.7 1.6-1 3.2-2 4.8-2.9 2-1.1 4.2-1.9 6.4-2.6.7-.2 1.4-.5 2.1-.5 1.6-.1 3.2 0 4.8 0 .2 0 .3.1.5.1.6.1 1.2.2 1.8.4h.2c-.1-.1-.1-.1-.1-.1-.1-.1-.3-.2-.4-.3-.3-.1-.7-.2-1-.2-1.3-.4-2.7-.5-4.1-.6-.5 0-1 0-1.5-.1-1.4-.2-2.8-.1-4.2.3-.9.2-1.7.5-2.5.8-.4.1-.8.3-1.2.4-.4.2-.8.3-1.2.5-.5.2-.9.3-1.2.6-.3.2-.6.2-.9.5-.5.4-1 .8-1.6 1.1-1.5.8-2.8 1.9-4 3.1-.3.3-.7.8-1 1.2s-.7.7-.9 1.2c-.7 1.1-1.3 2.3-2 3.5-.7 1.3-1.5 2.7-2.3 4-.1.1 0 .2 0 .4.1 0 .2-.1.3-.1.1-.1.2-.2.3-.2.1-.1.2-.1.3-.2 0 .1-.1.2-.1.3-.3.2-.5.4-.8.7-.7.7-1 1.6-1.3 2.5-.5 1.4-.8 2.8-.9 4.2 0 .5-.2 1-.3 1.6-.1.5-.2 1.1-.3 1.6-.1 1.1-.1 2.2-.1 3.2 0 .3 0 .7-.3.9v.2c0 .1.2.3.2.4 0 .5-.1 1.1-.1 1.6-.1.2-.2.3-.2.5 0 .1.1.2.1.2 0-.1.1-.2.1-.2 0-.2 0-.3.1-.5v.1 1.5s-.1.1-.1 0c-.4-.1 0 .1-.1.2.1.1.1.3 0 .4 0 0-.1.1-.1.2.1.6.2 1.3.3 1.9.2 1.2.3 2.4.5 3.7.1.5.1 1 .1 1.5.1 1.2.3 2.5.4 3.7-.1.9 0 1.8 0 2.6 0 1.2.2 2.3.4 3.5.1.9.2 1.8.3 2.7.1 1.1.2 2.2.3 3.3.1 1 .1 1.9.2 2.9.1 1.4.1 2.8.2 4.2 0 .1.1.1.1.1.4 0 .7.1 1.1 0s.6.1.7.3c0 0-.1.3-.1.3-.4-.1-.5.2-.8.3m7.5-29.5c-.9.5-1.7 1-2.6 1.5-.6.4-1.3.7-1.9 1-.8.5-1.3 1.2-1.8 2-.3.4 0 1 .4 1.2s.8.4 1.2.5c1.1.4 2.3.8 3.4 1.3.7.3 1.4.6 2.2.9.6.3 1.3.4 1.9.8 1.2.9 2.6 1.3 4 1.8 1 .4 2.1.5 3.1.8 1.5.5 2.9 1 4.4 1.5.8.3 1.5.5 2.3.8 1.3.5 2.7.8 3.8 1.6.2.1.4.2.6.3 0-.2 0-.4 0-.5v-.1c-.1-.6-.2-1.2-.3-1.7-.1-.8-.3-1.6-.4-2.3-.1-.8-.1-1.6-.2-2.3-.1-1.2-.3-2.5-.4-3.7-.1-.8-.2-1.4-1.1-1.7-1-.4-1.9-.9-2.9-1.4-.3-.1-.5-.4-.6-.7 0-.1.3-.4.5-.5.1-.1.3 0 .5.1-.1.1-.2.1-.2.2-.1.1-.2.2-.2.4 0 .1.1.2.2.3 1.1.6 2.2 1.2 3.3 1.8.1 0 .2.3.3-.1.1-1-.2-1.6-1.2-1.9-.7-.2-1.4-.1-2.1-.2-.1 0-.2 0-.2-.1.1 0 .1-.1.2-.1.9-.2 1.8-.2 2.6.4.2.1.4.2.5.4 0-.2.1-.4.1-.6 0-.1.1-.2.1-.3.1-1.3.1-2.6.2-3.9 0-.2.1-.4.2-.6 0-.1 0-.3 0-.4-.2 0-.4-.1-.5.2s-.2.5-.3.8c-.1.1-.2.2-.2.3-.1-.1-.2-.2-.2-.4 0-.3 0-.6 0-.9s-.2-.4-.5-.5c-.9-.3-1.9-.1-2.7-.7-.1 0-.1-.1-.2-.1-.6-.1-1.2-.2-1.8-.4-1.7-.5-3.4-.7-5.2-.7-.4 0-.8-.1-1.2-.2-.1 0-.2-.1-.2-.1.1 0 .2-.1.2-.1 1.1.1 2.1.1 3.2.2s2.2.4 3.3.6c.6.1 1.2.4 1.9.4s1.4.2 2 .5c.2.1.5 0 .8 0 .1 0 .1-.1.1-.1-.1 0-.1-.1-.2-.1-.9-.3-1.7-.5-2.6-.7-.5-.2-1.1-.4-1.6-.4-1.2-.1-2.3-.4-3.4-.8-.2 0-.4-.2-.4-.3.1-.5-.2-.4-.5-.4-.1 0-.1-.1-.2-.2.1 0 .2-.1.2-.1.2 0 .4 0 .6.1 1 .3 2 .7 3.1 1 1.8.6 3.6 1.1 5.4 1.7.6.2.9.5.9 1 0 .1.1.2.2.3.1-.1.2-.2.2-.3.1-.5.1-1 .2-1.4.4-1.9.9-3.7 1.4-5.5.1-.3.1-.5-.3-.6-1-.3-2-.8-3.1-1-1.2-.2-2.5-.5-3.7-.8-.8-.2-1.5-.4-2.3-.6-.1 0-.2-.2-.4-.3.2 0 .3-.1.5-.1.8.2 1.5.3 2.3.6 1 .4 2 .6 3 .7.7.1 1.5.3 2.2.5.6.2 1.1.4 1.6.7.3.1.5.1.7-.2.1-.4-.1-.4-.3-.4-.1 0-.2-.1-.3-.1-1.3-.2-2.6-.4-3.9-.8-1.4-.3-2.8-.8-4.3-1.2-.4-.1-.9-.2-1.4-.2-.7 0-1.3.2-2-.1-.1 0-.1 0-.2 0 0 .1-.1.2 0 .2 0 .1.1.2.2.3 0 0 0 .1.1.1h-.1c-.4-.3-.8-.5-1.2-.8 0 0 0-.1.1-.2.3.2.3 0 .3-.2.2.1.3.3.5.4h.3 1.7c1.2 0 2.3.3 3.4.6.9.2 1.8.5 2.7.8 1.4.3 2.7.5 4.1.9.5.1.7 0 .9-.4.5-1.1.9-2.2 1.4-3.3.6-1.2 1.3-2.3 2.1-3.5.8-1.1 1.6-2.2 2.4-3.2.3-.4.7-.8 1.1-1.2.2-.2.2-.5-.1-.6-1.1-.3-2.1-.6-3.2-.8-1.6-.3-3.2-.7-4.9-1-1.3-.2-2.5-.1-3.8-.3-.8-.1-1.6-.2-2.4-.3-1.3-.2-2.5-.5-3.8-.6-1.3-.2-2.5-.2-3.8-.3-.7-.1-1.5-.2-2.2-.4-.1 0-.3 0-.4 0 .1.1.2.2.3.3s.3.2.4.3h.1s-.1.1-.1.1c-.1 0-.3 0-.4 0-.2 0-.3-.1-.5-.2-.9-.2-1.6.3-2.2.9-1 1-2 1.9-3 3-.7.8-1.3 1.6-1.8 2.5-1 .6-1.5 1.9-1.9 3.2-.6 1.8-1.1 3.7-1.6 5.6-.4 1.3-.7 2.5-.7 3.9-.1 1.6-.3 3.3-.4 4.9-.1.8-.1 1.5-.1 2.3 0 .4-.1.8-.1 1.1.1.9.2 1.8.3 2.8 0 .3-.1.5-.1.8 0 .1.2.2.2.2.3-.2.5-.3.7-.6.8-.8 1.5-1.6 2.2-2.4.8-.8 1.6-1.6 2.4-2.4.2-.2.4-.4.7-.6.5-.3 1.2-.2 1.6-.7.1-.2.3-.3.5-.5 1.2-.9 2.4-1.8 3.5-2.6.9-.7 1.8-1.3 2.8-1.9.1-.1.3 0 .4 0v.4c-.1.2-.3.3-.4.4-.6.4-1.3.9-1.9 1.3 0 0-.1.1-.1.1s.1.1.1.1c.5.2 1.1.3 1.6.5l5.7 2.1c1.8.7 3.6 1.4 5.4 2.2.1 0 .1.2.2.3-.1 0-.2.1-.3.1-.2 0-.4-.1-.5-.2-1.3-.6-2.6-1.2-3.9-1.7-2.7-1-5.5-1.9-8.2-2.9-.5-.2-.8 0-1.1.2-.5.3-.9.7-1.4 1-.5.4-.9.7-1.4 1.1-.4.3-.9.4-1.1.9-.5.3-1 .7-1.5 1.1-.4.3-.7.6-1.1.9-.3.2-.7.4-.4.9v.2s-.1-.1-.1-.1c-.2-.5-.5-.2-.7-.1-.3.3-.6.7-.9 1-.1.2-.3.3-.4.5v.2h.2c.6-.3 1.2-.6 1.8-.9.6-.4 1.3-.8 2-1.1m45.3-27.7c-.2 0-.4 0-.7-.1-1.3-.5-2.7-.2-4 .1-1 .2-1.9.6-2.8 1.1-1.3.8-2.5 1.6-3.6 2.6-.7.7-1.4 1.4-2 2.1-1.4 1.4-2.4 3-3.3 4.7-1.1 1.9-2 3.9-2.7 5.9-.6 2-1.4 3.9-1.6 6-.1 1.1-.5 2.1-.4 3.2.1 1.3 0 2.6-.1 3.9v.4c-.1.9-.2 1.8-.2 2.7 0 .6.1 1.3.2 1.9.1 1.2.2 2.5.3 3.7.1.9.2 1.7.3 2.6.1 1.3.2 2.5.3 3.8 0 .4 0 .8.1 1.2.2.8.2 1.6.1 2.4-.1.3-.1.7-.1 1s.1.6.1 1v3.2c0 .2.1.4.1.5s.4.3-.1.3c0 0-.1.2-.1.3v2.7 3.2c.1 1.4.2 2.7.3 4.1.1.9.1 1.8.2 2.7.1 1.3.2 2.6.3 4 .1.8.1 1.7.2 2.5.1 1.8.2 3.5.3 5.3v2.5c.1 1.2.3 2.4.3 3.6.1 2.7.1 5.5.1 8.2 0 .4.1.8.1 1.2.1 1.7.2 3.3.3 5v1.5c0 .1.1.2.1.3.1-.1.2-.1.2-.2.8-1.4 2.1-2.4 3.4-3.1 1-.6 2.2-1 3.2-1.5 1.5-.8 2.9-1.7 4.4-2.5 2.7-1.4 5.4-2.7 8.1-4 1.2-.6 2.3-1.4 3.6-1.8.7-.2 1.3-.4 2-.6.1 0 .2-.1.3-.1-.1-.1-.2-.1-.3-.2s-.2-.1-.3-.2c.1-.1.2-.1.3-.2.3-.1.7-.1 1-.2.7-.3 1.3-.5 2-.5.3 0 .4 0 .4-.4 0-1.3 0-2.6 0-3.9 0-.5-.1-1-.1-1.5 0-.9-.1-1.9-.1-2.8 0-.1 0-.1 0-.2 0-1-.1-2-.1-2.9.1-1 .2-2.1.3-3.1.1-.9.1-1.8.2-2.7.1-1.4.3-2.8.5-4.2.1-1.1.2-2.2.2-3.2s0-2 0-3c0-1.5-.1-3-.1-4.5 0-2.4-.1-4.9-.1-7.3 0-1-.1-2-.1-3.1 0-1.3 0-2.5.1-3.8.1-1.4.2-2.7.3-4.1.1-2.4.1-4.8.2-7.2 0-.6 0-1.3 0-1.9-.1-2.6.1-5.2-.2-7.8-.1-.8-.1-1.6-.1-2.4s-.1-1.5-.2-2.3-.2-1.5-.4-2.2c-.5-1.5-1-3-1.7-4.4-.7-1.5-1.6-2.8-2.8-3.9-.6-.5-1.3-1-1.9-1.5s-1.1-1-1.9-1.2c-.5-.2-1.3-.5-2.3-.7m7.5 89.8c-.2-.2-.3-.4-.5-.6-.3-.2-.6-.4-.9-.6-.2-.1-.4 0-.6.1-.8.4-1.5.8-2.3 1.1-1.7.8-3.4 1.6-5 2.4-1.5.7-3 1.5-4.4 2.3-1 .5-2 1.1-2.9 1.6-.8.4-1.6 1-2.5 1.3-2 .7-3.8 1.9-5.2 3.5-.6.7-1 1.5-.9 2.5 0 .6.1 1.2.2 1.9.1.9.1 1.8.1 2.7 0 .5.1.9.4 1.3.1.1.1.2.2.2 0-.1.1-.2.1-.3-.1-.6-.3-1.2-.3-1.8-.1-1 0-1.9 0-2.9 0-.1.3-.3.4-.4v.3c0 .1.1.1.1.1.2.4.4.9.6 1.3.3.8.8 1.4 1.3 2 .1.2.4.3.4.5.1.2 0 .5-.1.7-.2.5-.7.8-1.2.9-.4.1-.6.2-.6.7.1.5.1 1 .2 1.5 0 .1-.1.3-.2.3-.4.2-.6.5-.3.9.3.3.1.6-.1.7-.4.3-.7.7-1.2.8-1 .3-1.8 0-2.7-.5-.3-.2-.8-.4-.9-.7-.1-.6-.1-1.3 0-2 0-.1.1-.3.2-.4.2-.4.4-.8.4-1.2s-.3-.6-.7-.6c0 0 0 0-.1-.1-.7-.4-.8-1.1-.8-1.8 0-.4.1-.6.5-.7.7-.2.7-.3.7-1 0-.4.1-.8.1-1.3s.2-1-.2-1.3c-.6-.5-1.3-.9-2.1-1.3-.7-.3-1.4-.5-2.2-.8-.4-.2-.8-.5-1.2-.6-1.4-.5-2.8-1.2-4.1-2-2.1-1.3-4.3-2.5-6.5-3.7-1.8-1-3.7-1.9-5.5-2.8-.9-.5-1.8-1-2.6-1.5-.3-.2-.5-.2-.8.1-.3.4-.6.7-.9 1.1-.1.2-.2.4-.2.6 0 .1.3.2.4.3.1 0 .1.1.2.1-.1 0-.1.1-.2.1-.4 0-.4.2-.4.5.3 1.2.7 2.5.6 3.8 0 .1.1.1.1.2 0-.1.1-.1.1-.2.1-.3.2-.6.3-.9v-.1s0 0 .1.1c0 .2.2.4.1.6-.3.6.1 1.1.3 1.3.3.4.1.7.1 1 0 .5-.5.6-.7.9-.3.4-.6.4-.9 0-.4-.6-.8-1.1-1.3-1.7-.1-.1-.3-.2-.4-.2-.9.2-.9.2-1.5 0h-.1c-.4 0-.7-.1-1.1-.1-.8 0-1.5-.5-1.7-1.2 0-.2-.1-.3-.1-.5-.1.1-.2.3-.3.4-.3.7-1.1 1.2-.7 2.1 0 .1 0 .1-.1.2-.1.4 0 .8.3 1.1l.6.6c.3.3.5.7.8.9.8.6 1.5 1.3 2.4 1.8 1.2.7 2.5 1.2 3.8 1.8.8.3 1.6.6 2.3 1 .7.3 1.4.6 2.2 1 .4.2.8.6 1.2.7 1.3.6 2.7 1 4 1.7 1.7.8 3.3 1.5 5.1 2.2 2.1.8 4 1.7 6.1 2.4 2.2.7 4.4 1.6 6.5 2.5.5.2.5.2.6-.3 0-.2.2-.3.3-.4 0 0 .2.1.3.2.3.4.6.8.8 1.2.1.3.3.3.5.2.9-.5 1.7-1.1 2.6-1.6.2-.1.4-.3.6-.3.8 0 1.3-.5 1.9-.8.9-.5 1.9-1 2.8-1.5.7-.4 1.4-.7 2-1.1.7-.5 1.3-1.1 2-1.6 1.5-.9 3-1.8 4.5-2.6 1.2-.7 2.4-1.3 3.6-2 1.7-1.1 3.4-2.4 5.1-3.6.9-.6 1.4-1.6 2.5-2 .1 0 .2-.1.3-.2 0 0 .1-.1.1-.2-.1 0-.1 0-.2 0-.2 0-.5.1-.7 0-.8-.3-.9-1.1-.2-1.7.1-.1.1-.2.1-.4 0-.5.1-.9.1-1.4 0-.4 0-.6-.5-.7-.2 0-.3-.2-.5-.3-.2-.2-.4-.5-.6-.8-.2-.2-.4-.5-.4-.7-.1-.2-.1-.6 0-.8.1-.3.4-.3.7-.2.2 0 .5.1.5-.2.1-.8.2-1.6.3-2.4 0-.2-.1-.4-.3-.4-.6-.2-1.2-.4-1.8-.7-.1 0-.2 0-.3-.1 0 .1 0 .3.1.3.4.2.8.5 1.1.7l.3.3c-.1 0-.3.1-.4 0-.2-.1-.7-.5-1.1-.8m-29.7-2.5c0-.3-.1-.6-.1-.9 0-1.1-.1-2.2-.1-3.3 0-.8-.1-1.5-.1-2.3-.1-1.4-.1-2.9-.2-4.3 0-.2-.1-.4-.3-.5-.8-.4-1.5-.8-2.2-1.2-1.4-.9-3-1.6-4.6-2.2-1.3-.5-2.5-1-3.8-1.6-1.2-.6-2.4-1.2-3.6-1.8-1.4-.7-2.6-1.7-4.1-2.2-1-.4-1.9-1-2.9-1.5s-2-1.1-3-1.6c-.7-.3-1.4-.7-2-1-.3-.2-.6-.3-.9-.5 0 0-.2.1-.2.1 0 .7-.1 1.3-.1 2 0 2.1.1 4.1.1 6.2v.1c.3 1.4.4 2.8.4 4.2 0 .1 0 .2.1.3.1.7.2 1.4.3 2.1.1.4.1.9.1 1.4.1 1 .3 2 .4 3 .1.7.1 1.4.2 2.1.1 1.1.2 2.3.4 3.4 0 .4.1.8.5 1 .1 0 .2.3.3.4s.2.3.4.4c.7.4 1.5.6 2.3 1 2.1 1.1 4.1 2.3 6.2 3.4.8.4 1.6.7 2.3 1.2 1.7.9 3.4 1.9 5 2.8 1 .6 2.2.9 3 1.9 0 0 .1.1.2.1.8.3 1.6.6 2.4 1 .8.3 1.7.7 2.5 1 .6.2 1.1.5 1.6.7.1 0 .2.1.3.1 0-.1.1-.2.1-.3-.1-.8-.1-1.7-.2-2.5 0-.8 0-1.6 0-2.4 0-.9-.2-1.7-.3-2.6-.1-1.2-.3-2.5-.4-3.7.1-1.2.1-2.3 0-3.5m33.8-16.4c0 .5-.1.9-.1 1.4-.1 1.3-.2 2.6-.2 3.9 0 1.2.1 2.4.2 3.5v3.7c0 .2-.1.5-.1.7 0 .6.1 1.1.1 1.7 0 .8-.1 1.7-.1 2.5.1 1.2.1 2.3-.1 3.5-.1.4-.1.9-.1 1.3 0 .2 0 .5-.1.7 0 .1 0 .1-.1.2 0-.1 0-.1 0-.2 0-.4-.1-.7-.1-1.1 0-.1-.1-.2-.2-.2 0 .1-.1.2-.1.2 0 .3-.1.5-.1.8v1.9c0 .1.2.2.2.4 0-.1.1-.2.1-.4 0-.1.1-.2.1-.3s0-.2 0-.3c0 .1.1.2.1.3.2.5.3 1 .5 1.5.1.2.2.4-.2.4-.1 0-.2.1-.1.2 0 .2.1.5.2.7.2.4.1.6-.3.7s-.5.4-.5.8c0 .1.1.1.1.1.6 0 1.4-.6 1.6-1.2.2-.5.5-.9 1.1-.9.5 0 .9 0 1.4-.1.2 0 .3-.1.5-.2 0 0 .1-.1.1-.1-.1 0-.1 0-.2 0-.2 0-.5.1-.7 0s-.4-.3-.6-.4c-.6-.3-.9-.7-.8-1.3.1-.3-.1-.4-.3-.6s-.3-.4-.5-.6c-.1-.3-.2-.5-.3-.8 0-.1 0-.2 0-.2.1 0 .2-.1.2 0 .1 0 .1.1.1.2v.7c0 .1.1.2.1.3 0-.1.1-.2.1-.3.1-1.4.2-2.8.2-4.1.1-2.4.1-4.9.1-7.3 0-.3-.1-.6-.1-.9 0-.7.2-1.4.2-2.1 0-1.7-.1-3.3-.1-5 0-1.3 0-2.6.1-3.9 0-1 .2-2 .3-2.9.1-1.1.1-2.3.2-3.4.1-.9.1-1.7.2-2.6.1-1.2.3-2.4.4-3.6.1-1.6.1-3.3.2-4.9 0-1.4.1-2.8.1-4.2 0-.2 0-.5 0-.7.1-.9.1-1.8.2-2.7 0-.7 0-1.5 0-2.2 0-.2 0-.4-.1-.5-.2-.2-.1-.3-.1-.5.1-.3.1-.6.1-.9 0-1-.1-2-.1-2.9 0-.7.1-1.3.1-2 0-.5-.1-1.1-.1-1.6 0-1.3.1-2.6.2-4 .2-1.3.1-2.6.1-3.9 0-1.6 0-3.2 0-4.8 0-.3-.1-.6-.1-.8 0-.6 0-1.2 0-1.8-.1-1.2-.2-2.3-.4-3.5-.1-.6 0-1.2-.1-1.8-.1-.5.1-1.1-.4-1.4.2-.2.2-.3.2-.4-.2-.9-.4-1.8-.7-2.7-.2-.7-.4-1.4-.5-2-.1-.4-.7-.6-.3-1.1 0 0-.1-.1-.1-.1-.5-1-.9-2-1.5-3-.9-1.7-1.8-3.3-3.3-4.5-.5-.4-1.1-.9-1.7-1.2-1-.6-1.9-1-2.9-1.4-1.2-.5-2.3-.8-3.6-.7-.1 0-.2 0-.3 0-.4 0-.8 0-1.2 0-.1 0-.2.1-.2.1.1 0 .2.1.3.1.5.1.9.3 1.4.4.1 0 .1.1.2.2-.1.1-.2.2-.3.1-.7 0-1.3-.1-1.9-.2-.9-.2-1.7-.6-2.7-.3-1.2.4-2.3.7-3.3 1.3-1.2.7-2.2 1.7-3.2 2.7-1.1 1.1-2.3 2.2-3.4 3.3-.4.4-.7.8-1 1.2-.6.7-1.1 1.4-1.6 2.2-.7 1.1-1.5 2.2-2.2 3.4-.5 1-.9 2-1.4 3-.4.8-.7 1.6-1 2.5-.5 1.4-.9 2.9-1.2 4.4-.2.8-.3 1.7-.4 2.6-.1.6 0 1.3-.2 1.8-.3 1-.2 2.1-.3 3.1-.1.7 0 1.5.1 2.2.1 1.7.1 3.3.2 5 0 .3 0 .7.1 1 .1 1.2.3 2.3.5 3.5 0 .3.1.6.1 1 .1.6.2 1.1.2 1.7 0 .2-.1.4-.1.6.1.7.2 1.4.3 2.1 0 .4 0 .9.3 1.2v.3c-.4-.1-.3.2-.3.4v1.9c0 .3.1.5.4.6.1.1.2.2.4.3-.2.1-.3.1-.5.2-.1 0-.3.1-.3.2v.9c0 .7.1 1.4.1 2.1 0 2.1.1 4.1.3 6.2.1 1.4.1 2.8.1 4.2 0 .5 0 1.1.1 1.6.1 1.1.3 2.2.5 3.3.1 1.1.2 2.3.3 3.4.1.9.1 1.8.2 2.7v.2c.4 1.6.4 3.3.5 5 .1.9.1 1.8.1 2.7 0 1.1.1 2.1.1 3.2 0 .9 0 1.8.1 2.6 0 .9.1 1.8.2 2.7.1 1.5.3 3 .4 4.5.1 1.1.1 2.2.2 3.3 0 1.2.1 2.3.1 3.5v.4c0 1.1.1 2.1.1 3.2 0 .7.1 1.4.1 2.1v.1c.4.6.4 1.1.1 1.8-.2.3-.2.7.1 1 0 .1.1.2 0 .2-.5.5-.2 1 0 1.3.5.7 1.1 1.3 1.6 1.9.2.2.4.2.6-.1.3-.5.4-1.1.4-1.7 0-.4 0-.9 0-1.3 0-.5-.3-.4-.5-.1-.2.2-.3.1-.4-.1 0-.2-.1-.5-.1-.7s0-.3-.3-.2c-.1 0-.2.1-.3.1-.2.1-.5.2-.6 0-.1-.3.2-.3.5-.4.5-.2.7-.4.5-1 0-.1 0-.1 0-.2-.1-1.3-.1-2.5-.2-3.8-.1-1.1-.1-2.1-.2-3.2-.1-2-.2-4-.3-6 0-.9-.1-1.8-.1-2.7 0-1.3-.1-2.6-.1-3.9 0-.5.1-1.1.1-1.6 0-.7-.1-1.5-.1-2.2-.1-1.7-.1-3.4-.2-5.1 0-.1 0-.2 0-.3-.1-1.1-.3-2.2-.4-3.3-.1-1.4-.3-2.8-.3-4.2 0-1.6-.1-3.1-.3-4.7-.1-.7-.1-1.4-.2-2.1-.1-1.4-.2-2.8-.3-4.1-.1-2.9-.1-5.8-.1-8.6 0-1.3-.1-2.5-.2-3.8 0-.9-.1-1.7-.1-2.6 0-1-.1-1.9-.2-2.9 0-.5 0-.9-.1-1.4-.1-1-.3-1.9-.4-2.9-.1-.4-.1-.9-.1-1.3-.1-1.4-.3-2.8-.4-4.2 0-1.2 0-2.4.1-3.5 0-.3.1-.7.1-1 0-.5 0-1-.1-1.5 0-.4-.1-.8 0-1.1.2-.9.4-1.8.6-2.7.1-.6.1-1.2.2-1.8.5-1.9 1.1-3.7 1.7-5.5.6-2.1 1.6-4.1 2.6-6 .9-1.7 2-3.3 3.3-4.7 1-1.1 2.1-2.2 3.2-3.1.8-.7 1.7-1.3 2.6-1.8 1.1-.7 2.2-1.1 3.5-1.2.7-.1 1.4-.2 2.1-.3.5 0 .9.1 1.4.2.9.2 1.8.3 2.6.5.9.3 1.7.7 2.5 1 .5.1.6.5.9.8.9.8 1.8 1.7 2.7 2.5 1 1 1.7 2.2 2.4 3.4.7 1.3 1.2 2.8 1.7 4.2.3.7.3 1.6.5 2.4.2.9.4 1.8.4 2.7.1 1.7.2 3.4.2 5.2v6.2c0 .9-.1 1.9-.1 2.8 0 1.8-.1 3.6-.1 5.3 0 .5 0 1.1-.1 1.6-.2 1.1-.4 2.3-.3 3.4.1 1 .1 2 .1 2.9 0 1.2.1 2.3.1 3.5 0 .9.1 1.8.1 2.7 0 1.8.1 3.6.1 5.3 0 1.8 0 3.7-.1 5.5 0 .8-.1 1.6-.2 2.3-.1 1.3-.1 2.5-.2 3.8v.4c-.3.9-.4 1.8-.4 2.8 0-.3 0-.1-.1.1m-35.7-17.3c0-.6-.1-1.2-.1-1.8 0-.3.1-.6-.3-.8-.1 0-.1-.3-.1-.4.2-.3.1-.6-.1-.8-.1-.1-.1-.2-.2-.3.1 0 .3.1.4.1h.2c0-.1-.1-.2-.1-.2-.1-.1-.2-.1-.3-.1-.4-.1-.9-.2-1.3-.4-1.8-.6-3.6-1.2-5.4-1.9-.9-.3-1.8-.6-2.7-1.1-1.9-1-3.9-1.7-5.9-2.4-1.7-.6-3.4-1.2-5-1.9-2.1-.9-4.2-2-6.3-3-.2-.1-.5-.1-.7-.2 0 .2.1.3.1.5.1 1.4.2 2.7.3 4.1 0 .7.1 1.3.1 2 0 1 .1 2 .1 3.1v.3c.1 1.3.2 2.6.4 4 .1 1 .2 1.9.3 2.9 0 .1.2.3.3.3.4.1.9.1 1.4.2.8.2 1.6.4 2.3.8 1.4.7 2.8 1.6 4.2 2.4 1.3.7 2.5 1.3 3.8 2 1.6.8 3.2 1.6 4.8 2.3 2 .9 3.7 2.2 5.5 3.4.3.2.6.5 1 .6.8.3 1.7.6 2.6.8.4.1.8.3 1.3.5h.3c0-.1-.1-.2-.1-.3-.1-.3-.3-.5-.3-.8-.1-1.5-.1-2.9-.2-4.4s-.1-3.1-.2-4.6c0-1.2-.1-2.4-.1-3.6 0-.4 0-.8 0-1.3m12.3-56.4c.2-.2.5-.4.7-.6.7-.5 1.5-.9 2.2-1.4.1-.1.2-.2.3-.2-.1-.1-.2-.2-.3-.2-.5-.1-1.1-.2-1.6-.3-1.1-.2-2.2-.5-3.4-.7-.9-.2-1.7-.3-2.6-.5-.6-.1-1.1-.1-1.7-.2-.9-.2-1.8-.4-2.7-.5-1.3-.1-2.4-.7-3.6-1-.3-.1-.7-.2-1-.2-.6 0-1.2.2-1.7.3-1.2.2-2.4.5-3.6.7-1.6.4-3.2.8-4.6 1.6-.7.4-1.4.8-2 1.2-.9.5-1.8.9-2.5 1.4-.5.3-.9.8-1.3 1.3-.1.1-.1.2.1.2s.5-.1.7-.1c.8.1 1.7.3 2.5.4 1.3.1 2.5.2 3.8.3.8.1 1.6.2 2.3.3 1.3.2 2.6.5 3.9.6 1 .1 2 .1 3 .2.6 0 1.1.2 1.7.3 1.1.2 2.1.5 3.2.6 1.3.2 2.6.6 3.9 1.1.4.2.8.3 1.2 0 .5-.4.9-.8 1.3-1.2.9-.8 1.8-1.7 2.8-2.5 1.1-.9 2.3-1.5 3.7-1.8.3-.1.6-.2.9-.3 0 0 .1-.1.1-.2-.4-.1-.8-.3-1.1-.2-1.6.4-2.9 1.5-4.2 2.5-.6.4-1.2.7-1.8 1-.1 0-.2 0-.2 0 0-.1 0-.1.1-.2.5-.6.9-1.1 1.5-1.7m-38.8 39.3c-.3-.2-.6-.3-.9-.5-.4-.2-.5-.1-.5.3s.1.7.3 1.1c.2.3.3.6.5.8.5.3 1 .4 1.5.6 1.4.7 2.8 1.4 4.1 2.1.8.4 1.6.8 2.4 1.1 1.2.5 2.5.8 3.7 1.2 1.5.5 3 1 4.3 1.7 1.9.9 3.9 1.7 5.9 2.4l4.5 1.5c.3.1.5.1.5-.3 0-.8 0-1.5 0-2.3 0-.3-.2-.6-.4-.7-.8-.4-1.7-.8-2.6-1.1-2-.7-4-1.4-5.9-2.1s-3.7-1.4-5.6-2c-2.6-.8-5.3-1.6-7.9-2.4-1.3-.4-2.5-.9-3.9-1.4m-1 42.7c0 .2.1.4.1.6.1 1.5.1 2.9.2 4.4v.3c.1 1.2.2 2.4.3 3.6 0 .5-.1 1.1 0 1.6.1.8.3 1.7.5 2.5.4 1.4.6 2.9.8 4.4 0 .1.1.3.2.4.3.1.7.1.7.6 0 .1.3.1.4.3.2.2.4.5.6.8.1.1.2.1.2.2 0-.1 0-.2 0-.3 0-.5-.1-1-.1-1.4 0-.3-.1-.5-.4-.4-.4.1-.6-.2-.6-.5-.2-1.3-.3-2.6-.5-3.9-.1-1-.1-2-.2-3.1-.1-.9-.2-1.9-.3-2.8-.1-1.4-.3-2.8-.5-4.2-.1-1-.2-2-.3-2.9 0-1.4-.2-2.8-.4-4.2-.2-1.5-.3-3-.3-4.5-.1-2.1-.1-4.2-.1-6.3 0-.6 0-1.3.1-1.9s-.2-.8-.6-1.1c-.3-.1-.6-.3-.9-.3-.2 0-.5 0-.5 0-.1.3-.2.7-.2 1 .1.9.2 1.8.3 2.7.1.5.1 1 .1 1.5.1 1.2.2 2.4.4 3.6 0 .4.1.8.1 1.2.1 1.3.3 2.6.4 3.8.4 1.3.4 2.8.5 4.3m-1.5-58.5c-.1 1.1-.1 2.2-.2 3.4v2.3c0 .5-.1 1.1-.1 1.6 0 .3-.1.6-.1.9 0 .6.1 1.2.2 1.7v1.5 1s.1.1.1.1h.1c.1-.5.6-.7.5-1.3-.1-.2-.1-.4-.1-.6 0-.9-.1-1.9-.1-2.8 0-.3-.1-.6-.1-.9 0-.4-.1-.8-.1-1.2 0-.5.1-1.1.2-1.6.1-1 .1-2 .1-3s.1-2 .2-3c.2-1.2.4-2.5.7-3.7.3-1.5.7-2.9 1.1-4.4.4-1.3.8-2.7 1.3-3.9.5-1.1 1.2-2.2 2-3.2.7-.9 1.4-1.8 2.2-2.7 1-1.1 2-2.3 3.1-3.4.5-.5 1-.9 1.5-1.3.9-.7 1.9-1.3 2.9-1.8 1.1-.6 2.1-1.2 3.3-1.6 1.4-.5 2.8-.8 4.2-1.2.6-.2 1.2-.2 1.9-.3.2 0 .5-.1.7-.1.1 0 .1-.1.2-.2-.1 0-.2-.1-.2-.1-.3 0-.7 0-1 0-.6 0-1.3 0-1.9.1-1.2.3-2.3.7-3.4 1.1-.9.3-1.9.6-2.8 1.1-2 1-4 2.2-6 3.3-.4.2-.8.6-1.1.9-.2.2-.4.6-.6.8s-.5.4-.7.7c-.1.1-.1.4-.1.5-.3-.3-.5 0-.6.2-.6.7-1.2 1.4-1.7 2.1-.7 1-1.4 2-1.9 3.1-.8 1.6-1.2 3.2-1.8 4.7-.2.6-.5 1.3-.6 1.9-.2 1-.4 2.1-.6 3.1-.1.9-.2 1.9-.4 2.8-.1.5-.2 1.1-.2 1.6-.1.7-.1 1.2-.1 1.8m16.9 19.9c.5.2 1.1.4 1.6.6 1.3.5 2.7 1.1 4 1.6 1.9.7 3.8 1.4 5.6 2 .2.1.3.1.5.2-.1-.2-.1-.4-.2-.6 0-.1-.2-.1-.3-.2-1.2-.8-2.5-1.3-3.9-1.7-1.6-.5-3.2-1.1-4.8-1.7-1.1-.4-2.3-.8-3.5-1-1.5-.4-3-.9-4.4-1.5-.6-.2-1-.6-1.6-.9-1.1-.5-2.3-1-3.4-1.5-1.8-.7-3.7-1.5-5.5-2.2h-.1v.1c.5.4.1.9.2 1.3 0 .1.1.4.2.4.8.4 1.6.9 2.5 1.2 2.1.7 4.2 1.3 6.3 2 2.3.5 4.5 1.2 6.8 1.9m-.2 22.8h.2c1.3.6 2.7 1.2 4 1.8.1.1.3.1.5.1-.1-.1-.2-.3-.3-.3-.8-.4-1.6-.9-2.4-1.3-1.1-.5-2.2-1-3.3-1.5-2.1-1.1-4.2-2.2-6.3-3.3-.9-.5-1.8-1-2.7-1.5-1.1-.8-2.3-1.3-3.7-1.3-.1 0-.2 0-.3 0 .1.1.1.2.2.2.3.1.6.2.9.4 1.6.9 3.2 1.9 4.8 2.7 1.1.6 2.1 1.1 3.2 1.6 1.8.8 3.5 1.6 5.2 2.4m1.2 6h.1c1.3.6 2.5 1.4 3.9 1.9 1.5.5 3 1.2 4.4 1.8.8.3 1.5.8 2.2 1.2.2.1.3.1.5.2-.1-.1-.2-.3-.4-.4-.8-.5-1.6-1-2.4-1.4-1.5-.9-3-1.8-4.6-2.6-.9-.5-1.7-.9-2.6-1.2-2.5-1-4.9-2-7.4-3-.1 0-.2 0-.3-.1.1.1.1.2.2.2.7.4 1.5.7 2.2 1.1 1.5.8 2.8 1.5 4.2 2.3m-16.6-8.7c.3.2.7.3 1 .5 1 .6 2 1.2 3 1.7.7.4 1.4.7 2.2 1.1 1 .5 2 1.1 3 1.6h.3c-.1-.1-.1-.2-.2-.2-.1-.1-.2-.2-.3-.2-1.8-1.1-3.6-2.2-5.5-3.2-1.5-.8-3-1.6-4.5-2.4-.1 0-.2-.1-.3-.1-.2.1-.4.2-.6.3.1.1.2.3.3.4.6.1 1.1.3 1.6.5m62.1 27.6c0-.2-.1-.3-.1-.5 0-.7-.2-.8-.9-.6-.3.1-.5.2-.8.3-.1 0-.2.1-.2.2-.1.5-.5.5-.8.6s-.6.1-.9.2c-.1 0-.2 0-.3 0 .1.1.1.2.2.2 1 .4 2.1.9 3.1 1.3.3.1.5 0 .5-.4.1-.5.1-.9.2-1.3m-62.7-45.7c0-.4 0-.8-.1-1.2-.1-.9-.2-1.7-.4-2.6 0-.1-.1-.1-.1-.2 0 .1-.1.1-.1.2 0 .7-.1 1.4-.1 2.1.1.8.2 1.6.1 2.4v.5c.1 1 .2 1.9.4 2.9.1.5.1 1 .2 1.4 0 0 .1.1.1.1s.1-.1.1-.1c0-.4 0-.8 0-1.2 0-.7-.1-1.4-.1-2.1 0-.8 0-1.5 0-2.2m1.4 54c-.1 0-.1-.1-.2-.1-.4-.3-1-.5-.7-1.2 0 0-.1-.1-.1-.1-.2.2-.6.4-.7.6-.2 1.1.6 2 1.7 2 .7 0 .8-.1.5-.7 0-.2-.3-.3-.5-.5m34.4 11.4c.1.4.1.8.2 1.2 0 .1.1.3.2.3.2 0 .6 0 .7-.2.2-.2.5-.5.2-.9-.5-.8-1-1.7-1.2-2.7 0-.1-.1-.1-.1-.2 0 .1-.1.2-.1.2 0 .8.1 1.5.1 2.3m-31.7-18.5v1c0 .2 0 .4.1.5.1.3.5.5.7.3.2-.3.5-.6.7-1 0-.1 0-.3-.1-.3-.4-.1-.9-.3-1.4-.5m29.3 25.2h.3c-.1-.1-.1-.2-.2-.3-.2-.2-.4-.3-.5-.4-.3-.4-.6-.9-1-1.3-.1-.1-.2-.2-.3-.3 0 .1-.1.2-.1.3 0 .8.2 1.5 1.1 1.7.3.1.4.2.7.3m-2.6-6.4c.1.3.2.6.4.8.2.3.5.2.6-.1.2-.6-.1-.9-.4-1.3-.1-.1-.3-.3-.4-.2s-.2.2-.3.4c0 0 .1.2.1.4m-31.3-70.8c0-.4 0-.9.1-1.3.3-.7 0-1.3.1-1.9.1-.4-.3-.1-.4-.2 0 0-.1.1-.1.2v2.7c.1.2-.1.5.3.5m67.9 58.5c.1-.2.1-.3.2-.5 0-.2 0-.3 0-.5-.2.1-.3.1-.5.2s-.4.4-.6.4c-.4 0-.3.1-.2.4.2.4.6.6 1.1 0m-1.5 2c-.2.2-.4.5-.6.7-.1.1-.1.3-.1.4.1 0 .3-.1.4-.1.6-.3.9-1 1.7-.9 0 0 .1-.1.2-.2-.1 0-.1-.1-.2-.1-.5.1-.9.1-1.4.2m-39-29.2c.4.3.8.5 1.2.8.1.1.2.1.2.1.1-.1.2-.2.2-.3s-.1-.3-.3-.3c-.4-.2-.8-.4-1.3-.6-.1 0-.3.1-.5.1.3 0 .4 0 .5.2m41.5 27c0 .1 0 .2-.1.3.1-.1.2-.1.2-.2.1-.3.2-.7.3-1 .1-.5.1-.6-.5-.6-.1 0-.2.1-.4.1.1.1.1.2.2.3.5.3.5.6.3 1.1m-70.1 8.6c-.1-.6-.1-1.3-.2-1.9 0-.1-.2-.2-.3-.3v.3.2c.1.6.1 1.1.2 1.7 0 .1.1.2.2.2s.1-.1.1-.2m2.9-8.7c.1.2.2.3.3.5 0-.2.1-.4.1-.6s.1-.4.1-.6c0-.1-.2-.3-.2-.3-.4.1-.6.6-.3 1m-2.8-36.5h.2c.1 0 .2 0 .3-.1-.1-.1-.2-.2-.3-.2-.5-.4-.9-.1-1.4.1 0 0-.1.1-.1.1.1 0 .1.1.2.1.4.1.7.1 1.1 0m35.8 66.4c0 .1-.1.2-.1.3s0 .2.1.3c.2.2.5 0 .4-.3-.1-.4-.3-.8-.4-1.2 0 0-.1-.1-.2-.1 0 .1-.1.1 0 .2.1.3.1.5.2.8m-27.9-27.3c-.1-.1-.2-.2-.3-.2 0 .1-.1.3 0 .4 0 .3.1.6.1.9 0 .1.1.1.1.2.1-.1.2-.1.2-.2-.1-.4-.1-.7-.1-1.1m-1.6-4.4c0-.2 0-.4-.1-.5 0-.1-.1-.1-.2-.2 0 .1-.1.1-.1.2 0 .3 0 .6.1.9 0 .2.1.3.2.5 0-.2 0-.3.1-.5 0-.2 0-.3 0-.4m-.1-1.5c0-.3-.1-.7-.1-1 0 0 0-.1-.1-.1 0 0-.1 0-.1.1.1.3.1.7.3 1m45-96.3c.1 0 .1 0 0 0-.3-.1-.6-.2-.9-.3v.1c.3.1.6.2.9.2m12.4 97.6c-.2.2-.3.7-.1.8h.1c0-.3 0-.5 0-.8m-32.7-22.1c0-.2-.1-.4-.1-.6 0 0-.1-.1-.2 0 0 0-.1.1-.1.1 0 .2.1.4.4.5m1.9-79.6c.2 0 .3 0 .5-.1-.2-.1-.3-.2-.5-.2-.1 0-.2 0-.4 0 .2.1.3.2.4.3m-.5 34.6v.2.2c0-.1.1-.1.1-.2 0 0 0-.1.1-.2 0-.2.1-.4.1-.5h-.1c0 .1-.1.3-.2.5m-25.8 69.2c-.1-.1-.1-.2-.2-.3v.4c0 .1.1.2.1.3 0-.1.1-.2.1-.4m30 22h.3c-.1-.1-.2-.2-.3-.3 0 0-.1 0-.2 0 .1.1.1.2.2.3m-4.4-105.3c.1-.1.1-.1.1-.2s0-.2 0-.3c-.1.1-.1.1-.2.2 0 .1 0 .2.1.3m4.4-1c0 .1.1.2.1.2.1-.1.2-.2.3-.3-.2.1-.3.1-.4.1m-28.4 13.9c-.1.1-.1.1-.2.2.1 0 .1.1.2.1 0-.1 0-.2 0-.3m31.7-24.1c.1 0 .2.1.2.1 0-.1 0-.2 0-.3 0 .1-.1.2-.2.2m-27.4-2.8c-.1.1-.2.1-.3.2 0 0 0 .1.1.1 0-.1.1-.2.2-.3m-9.7 57.7c0-.1-.1-.2-.2-.2 0 0-.1 0-.1.1.1 0 .2.1.3.1m1-45.2c0-.1-.1-.2-.1-.2 0 .1-.1.2-.1.3 0-.1.1-.1.2-.1m31.6 83.1c-.1 0-.1 0-.2 0 0 .1 0 .1.1.2 0 0 0 0 .1-.2m-35.1-72.7s-.1-.1-.1-.1c0 .1 0 .1-.1.2.1-.1.2-.1.2-.1m32.5 4.3v.1c.1-.1.1-.2.2-.2-.1 0-.2 0-.2.1m.5-15.5c0-.1 0-.1 0-.2-.1.1-.1.2-.2.3 0 0 .1 0 .2-.1m-29.3-.4c0-.1 0-.2 0-.2s0-.1-.1-.1c.1.1 0 .2.1.3m-4 98s.1.1.1.1c0-.1 0-.1.1-.2-.1.1-.2.1-.2.1m3.3-101.8c0-.1.1-.1.1-.2 0 0-.1-.1-.1-.1zm27.6 9.7s-.1-.1-.1-.1c0 .1 0 .2-.1.2.1 0 .1 0 .2-.1m4.7-2.3c-.1 0-.2 0-.2.1v.1c.1-.1.1-.1.2-.2m5.5-12.9c0-.1.1-.1.1-.2 0 0 0 0-.1-.1 0 .1-.1.2 0 .3z"/><path d="m76 104.7c0 .1-.1.2-.2.3 0 0-.1 0-.2 0 0-.1 0-.1 0-.2s0-.3-.1-.4c-.9-.2-1.4-1-2.2-1.4-.4-.2-.9-.3-1.4-.5-.1 0-.1 0-.2-.1s-.4-.3-.3-.4c.2-.3.3 0 .5.1.4.1.8.3 1.2.5s.7.5 1.1.7.9.5 1.3.7c.1.4.3.6.5.7z"/><path d="m59.4 80.4c-.7.4-1.4.9-2.1 1.2-1.3.5-2.1 1.6-3.3 2.2-.7.3-1.4.5-2.1.7-1.1.3-2.2.5-3.3 1-.6.2-1.1 0-1.6-.1-.4-.1-.6-.4-.6-.8s.1-.7.1-1.1c0-.3-.1-.6-.1-.9 0-.5 0-.9 0-1.4 0-1.3 0-2.5 0-3.8 0-1.9.1-3.8.2-5.7 0-1.2.1-2.4.2-3.6 0-1.3 0-2.5.1-3.8.1-.9.4-1.8.8-2.6.3-.6 1-.8 1.6-1 .8-.2 1.5-.4 2.2-.6 1.2-.4 2.4-.7 3.6-1.1 1.4-.6 2.8-1.3 4.2-2 .8-.4 1.7-.7 2.6-.8.6-.1 1.1.4 1.6.8.4.4.6.9.6 1.5 0 .1 0 .2.1.3.6 1.1.6 2.2.3 3.3-.1.4-.1.8-.1 1.2-.1 1.5-.1 2.9-.2 4.4-.1 1.7-.1 3.4-.3 5.1-.1 1.3-.1 2.5-.4 3.8-.3 1.2-1 1.9-2 2.5-.7.4-1.4.8-2.1 1.3m-11.9-16.2s-.1.1-.1.1c0 .7-.1 1.4-.1 2.2 0 1.3-.1 2.5-.1 3.8 0 1-.1 2-.1 3v2.5c0 2.4.1 4.9.1 7.3 0 1 .4 1.4 1.3 1.4h.5c-.2.1-.4.3-.5.4-.4.2-.7.2-1-.1-.2-.1-.3-.3-.5-.4v.5c-.2.3.1.4.2.4.4 0 .8.1 1.1 0 1.1-.3 2.1-.6 3.2-1s2.2-.6 3.2-1.3c1.3-.9 2.6-1.7 3.9-2.5.4-.2.7-.4.4-.8-.1-.1-.2-.3-.2-.4-.2.1-.3.2-.5.3v.3c.1 0 .1 0 .2-.1h.1v.1c-.1.1-.2.2-.3.2s-.3-.1-.3-.2c-.1-.1 0-.4-.1-.5s-.3-.2-.5-.3c0 .1-.1.3-.1.4 0 .2.1.4.2.6.2.4 0 .7-.4.9-.3.1-.6.3-.8.4-.4.2-.8 0-.8-.4s.1-.8.2-1.3c0-.1.1-.1.2-.1 0 .1.1.1.1.2 0 .3-.1.6-.1.9 0 .2-.1.5.3.6.5 0 1.1-.7 1-1.1 0-.2-.1-.3-.2-.5-.1-.5.1-.8.7-.6.1 0 .4 0 .4-.1.2-.4.5-.4.8-.4.1 0 .2-.1.3-.2.1-.4.3-.6.8-.7.5-.2.3.1.4.3v.3c0 .1 0 .2.1.3 0-.1.1-.2.1-.3 0-.2.1-.4.1-.7 0 0 .1-.1.1-.1s.1 0 .1.1c0 .3.1.6.1.9s-.6.5-.9.4c-.1 0-.3 0-.4 0v.2c.1.1.2.1.2.2-.1 0-.2 0-.3 0 0 0-.1 0-.1.1 0 .2-.1.5-.1.7 0 .1.1.2.1.2s.1 0 .1-.1c.2-.2.4-.4.6-.5.6-.4 1.2-.8 1.7-1.2.1-.1.1-.2.1-.3-.1 0-.2 0-.2.1-.2 0-.4.2-.6-.2-.1-.3-.1-.5.1-.7.1-.1.3-.1.5-.1-.1.1-.2.2-.3.2 0 0-.1 0-.1.1s0 .3.1.4c.1 0 .3-.1.4-.1 0-.1 0-.2-.1-.2s-.1 0-.2 0c.1 0 .1-.1.2-.1s.3-.1.4-.1c.4-.1.5-.5.3-.8-.1-.1-.1-.1-.2-.2.1 0 .2 0 .3-.1s.2-.1.3-.2c.1-.4.2-.7.2-1.1 0-1.5.1-3.1.1-4.6 0-.1 0-.3 0-.4.1-1.4.3-2.9.4-4.3 0-.6.1-1.3.1-1.9 0-.5 0-1 .1-1.4.1-.7.5-1.5.1-2.2 0 0 0-.1 0-.2 0-.2 0-.4-.1-.7s-.3-.7-.3-1c0-.8-.7-1.6-1.4-1.4-.7.1-1.5.3-2.1.6-1.8.9-3.5 1.8-5.4 2.4-.6.2-1.2.3-1.7.4-1.1.4-2.1.9-3.3 1.2-.9.3-1.4.8-1.6 1.7-.2 0-.3.4-.5.9m11.1 14.3c-.1.1-.2.3-.2.4.2 0 .3 0 .5-.1.1 0 .1-.2.2-.3-.2 0-.4 0-.5 0m4.6-2.6s.1-.1.1-.1c0-.2 0-.3 0-.5h-.1c0 .1-.1.2-.1.4.1 0 .1.1.1.2m-3.6 2.2c-.1-.1-.1-.2-.2-.2 0 .1-.1.1-.1.2z"/><path d="m37.4 52.7c-.5-.3-.4-.8-.4-1.2 0-.2.4-.5.5-.5.3 0 .7.2.9.5.2.4.1.7-.1 1-.3.4-.6.4-.9.2m.1-1.3c-.1.1-.2.1-.3.2v.1c.1.2.3.4.5.5 0 0 .2.1.2 0 .2-.2.1-.6-.4-.8z"/><path d="m40.2 100.9c.5.5.5 1 0 1.2-.4.1-.8 0-1-.2-.1-.1-.1-.5 0-.7.1-.5.6-.4 1-.3m-.6.5c0 .1 0 .1 0 0 .2.1.3.2.4.2 0-.1.1-.3.1-.3-.1-.1-.2-.1-.3-.2-.2.1-.2.2-.2.3z"/><path d="m40.2 109.1c.1-.3.1-.6.1-1 0-.1-.3-.2-.4-.2s-.1 0-.2-.1c0 0 .1-.1.1-.1.2 0 .4-.1.5 0 .4.2.5.6.4 1s-.2.7-.6.7c-.2 0-.5-.1-.7-.2-.1-.1-.1-.4-.1-.6 0-.1.2-.1.3-.2.1.1.2.2.3.4s-.1.5.3.3z"/><path d="m38.6 74.4c-.3-.2-.5-.3-.8-.5v-.2c.1-.1.3-.2.4-.2.2-.1.4-.1.5-.1 0-.1 0-.3-.1-.4s-.3 0-.4 0-.1 0-.2.1c0-.1 0-.2.1-.3.2-.3.5-.3.7-.1.3.2.6.5.4.8 0 .4-.3.6-.6.9m0-.6s0-.1-.1-.1c0 .1-.1.1-.1.2.1 0 .2 0 .2-.1z"/><path d="m37.4 33.9c.1-.3.1-.3.5-.3.2 0 .5.1.3-.3v-.1c-.1-.2-.1-.3-.2-.5-.1.1-.2.3-.3.4-.1.2-.1.4-.3.2-.1-.1-.1-.3-.1-.3.2-.2.4-.5.6-.5s.4.3.5.6c.2.4.2.8-.1 1.1s-.6.3-.9-.3m.7.1s-.1-.1-.1-.1c0 .1 0 .2-.1.2.1 0 .1-.1.2-.1z"/><path d="m39.7 91c.3.3.6.5.4 1-.2.4-.6.3-.9.2-.2-.1-.4-.3-.4-.7.1-.6.5-.5.9-.5m-.1.3c-.2.2-.3.6-.1.7h.2s.1-.1.1-.2c-.1-.1-.1-.3-.2-.5z"/><path d="m46.4 16.5h.3s.1 0 .1.1c0 0-.1.1-.1.1-.2 0-.2.1-.1.2.3.3 0 .6-.2.7s-.6.2-.8.1c-.6-.4-.5-.5 0-.9.3-.1.5-.2.8-.3m-.3.9c.1-.1.2-.3.2-.4-.1 0-.2-.1-.3-.1-.1.1-.2.2-.3.4.2.1.3.1.4.1z"/><path d="m37.4 42.9c-.2.1-.5.2-.7.2-.1 0-.2-.1-.3-.2.1-.1.2-.1.3-.2.1 0 .4.3.4-.1 0-.3 0-.6 0-.9-.1-.3-.3 0-.4.1s-.1.2-.1.4c0 .1-.1.2-.2.2-.1-.1-.2-.2-.2-.3.1-.2.2-.5.4-.6s.5-.2.7.1c.4.5.5.7.1 1.3z"/><path d="m68.3 43.2c-.5.3-1 .1-1-.5 0-.2 0-.4.1-.6s.3-.2.5-.4c0 .1.1.2.1.3.3.4.5.8.3 1.2m-.6-.6v.3c.1.1.2.2.3.3 0-.2.1-.4.1-.6 0 0-.2 0-.4 0z"/><path d="m41.6 23c-.4-.1-.5-.4-.5-.7.1-.4.3-.4.6-.5.5-.1.5-.1.5.5.1.6 0 .7-.6.7m.1-.3c0-.2.1-.4.1-.6-.1 0-.2 0-.2 0-.1.2-.3.3-.1.6z"/><path d="m59.4 12.9c.1.2.2.3.3.4-.3.2-.5.4-.8.5-.4.1-.9-.3-1-.7 0-.3.4-.6.8-.4.3 0 .5.1.7.2m-.1.4c-.1-.1-.3-.3-.4-.4-.1 0-.4 0-.4.1s0 .4.1.5c0 .1.3.1.4 0 0 0 .1-.1.3-.2z"/><path d="m66.6 24.9c.3-.3.6-.3.9-.1s.3.5.2.8c-.1.4-.6.5-.9.2s-.4-.6-.2-.9m.4.4c.1.1.1.3.2.4.1-.1.2-.2.2-.3 0-.2-.1-.3-.1-.5-.1.1-.2.2-.3.4z"/><path d="m39.1 27c.1-.2.1-.3.2-.4.1-.2.3-.3.2-.6 0 0 0-.1 0-.2.1 0 .2.1.2.1.1.1.2.3.3.4.1.2.5.2.3.6s-.7.5-1 .3c0 0-.1-.1-.2-.2m.8-.2c-.1 0-.2 0-.4 0v.1c.2 0 .3 0 .4-.1z"/><path d="m38.9 80.3c.4 0 .7.1.7.5.1.4-.2.9-.6.9h-.1c-.2-.2-.4-.4-.5-.7-.1-.2-.2-.5.2-.7 0 .1.2.1.3 0m0 1.2c.4-.1.6-.5.4-.8-.1-.1-.3-.1-.4-.1s-.2.2-.2.3c0 .2.1.3.2.6z"/><path d="m51.5 13.7c-.6.4-.9.5-1.2.1-.1-.1-.1-.3-.1-.5.1 0 .2-.1.3 0 .1 0 .1.2.1.2 0 .1 0 .1.1.2.1 0 .2-.1.2-.1.1-.2.2-.4.3-.6 0 0-.1-.1-.2-.2s-.1-.2-.2-.3v-.1c.1 0 .2.1.3.1.4.4.6.8.4 1.2z"/><path d="m67.2 50.9c.5 0 .7.3.9.7.1.1 0 .4-.1.5-.2.1-.4.2-.6.2s-.4-.3-.4-.4c0-.4.1-.7.2-1m.6.8c-.1-.1-.1-.2-.2-.3-.1.1-.2.2-.3.3 0 .1.1.3.1.4.2-.1.3-.2.4-.4z"/><path d="m67.6 69.9c.2.4.1.8-.1.9-.3.1-.6 0-.8-.3-.2-.2 0-.9.3-1 .2 0 .5 0 .6.4m-.3.1c0 .2-.1.4-.1.6h.1c.1-.2.1-.4 0-.6z"/><path d="m38.6 64.3c-.2 0-.4 0-.6-.1-.1 0-.1-.2-.1-.3.1 0 .2-.1.3-.1s.2-.1.3-.1c-.1-.1-.1-.2-.2-.3s-.2-.1-.2-.2 0-.3.1-.3.3-.1.4 0c.3.4.4 1 0 1.4z"/><path d="m67.4 77.5c.1.2.2.3.3.4.1.3.2.5-.1.7-.3.1-.7-.2-.8-.5 0-.1 0-.2 0-.2 0-.1 0-.3 0-.4h.5c0-.1.1 0 .1 0m.1.6c0-.1-.1-.2-.1-.3 0 .1 0 .2-.1.3v.2c.1 0 .1-.1.2-.2z"/><path d="m68 60.4c.1.1.2.2.2.3v.6c-.2 0-.5 0-.7-.1s-.3-.4-.4-.6.3-.5.6-.4c.1.1.2.2.3.2m0 .6c0-.1-.1-.2-.1-.3-.1.1-.2.1-.2.2s.1.2.1.4c0-.1.1-.2.2-.3z"/><path d="m66.4 86.7c0-.2.1-.3.1-.4.1-.1.2-.1.3-.1.1.1.2.3.2.3-.1.3-.1.4.1.6.1.1.1.3.1.5-.2 0-.4 0-.5-.1s-.2-.4-.3-.8z"/><path d="m68.2 33.3c.4.2.6.7.4 1.2-.1.3-.3.3-.6.1s-.5-.5-.2-.9c.2-.1.3-.3.4-.4m.2.9c0-.1 0-.2.1-.3 0-.1 0-.1 0-.2-.1 0-.2 0-.2.1v.6c0-.1 0-.1.1-.2z"/><path d="m66.6 94.4c-.3-.4-.1-.6.1-.8.1-.1.3-.3.4-.4 0 .2 0 .4-.1.6 0 .2 0 .2.2.3 0 0 .1.2.1.2-.2.3-.4.4-.7.1z"/><path d="m64 18.4c-.1 0-.2-.1-.2-.1-.3-.1-.5-.3-.4-.5s.5-.3.7-.3.5.3.5.5c.1.3-.2.5-.6.4m.1-.1c.1-.1.2-.2.3-.3-.1-.1-.2-.2-.3-.1-.1 0-.2.1-.3.2 0 0 .1 0 .3.2z"/><path d="m14.8 42.8c.9.6 1.8 1.1 2.7 1.7.6.3 1.2.6 1.9.9.3.1.5.3.4.7v.9c0 .3-.1.4-.4.3-.6-.1-1.1-.4-1.6-.7-.7-.4-1.4-.7-2.1-1.1-.5-.3-.9-.7-1.4-.9-.7-.3-1.5-.5-2.2-.8-.5-.2-1.1-.4-1.6-.6-.1 0-.2-.1-.3-.1s-.3-.1-.4-.1c.1-.1.1-.3.2-.4.4-.4.8-.9 1.4-1 .4-.1.7-.1 1.1.1.7.3 1.5.7 2.3 1.1m-2.9.6c.2.1.4.1.6.2.8.3 1.7.6 2.5 1.1.8.6 1.8.9 2.7 1.4.4.2.7.4 1.1.6.1.1.4 0 .4-.1.2-.7 0-1-.7-1.3s-1.4-.6-2.1-1c-.8-.5-1.6-1-2.4-1.5-.5-.3-1-.5-1.5-.8s-.9-.6-1.5-.2c-.2.2-.5.4-.7.6 0 0 0 .2.1.2.6.4 1 .6 1.5.8z"/><path d="m28.5 49.6c-1-.9-2.1-1.5-3.3-2.1-.5-.2-1-.5-1.4-.8-.1 0 0-.2 0-.4 0 0 .1-.1.2 0 .7.3 1.3.7 2 1.1 1.1.5 2.1 1.2 3 2 .3.3.7.4 1 .6.1.1.2.2.4.2-.1.1-.2.2-.3.3-.2.2-.4.4-.6.4-.5-.1-.9-.4-1.4-.6-1.4-.7-2.9-1.4-4.3-2.2-.5-.2-1-.5-1.4-.8-.1-.1-.2-.1-.3-.1-.1-.1-.2-.1-.3-.2.1-.1.1-.3.2-.3.2-.2.5-.3.7-.5.1-.1.2-.1.4-.1.1 0 .2.1.3.1-.1.1-.2.1-.2.2-.2.2-.4.3-.7.5.2.2.5.4.7.5 1.1.5 2.1 1 3.2 1.6.9.4 1.7.9 2.5 1.4.1 0 .2.1.2.1.2 0 .4-.1.5-.1-.1-.1-.2-.2-.4-.3-.2-.2-.4-.3-.7-.5z"/><path d="m11.9 38.9c0-.1.1-.2.2-.2 1.2-.3 1.8-1.3 2.8-1.9.6-.4 1.3-.7 2-1 0 0 .1 0 .1-.1.2.6.8.5 1.3.7.9.4 1.8.8 2.6 1.2.2.1.3.2.1.4-.3.4-.6.9-.8 1.3-.3.7-.9 1-1.5 1.3-.4.2-.9.7-1.3.7-.6-.1-1.2-.4-1.9-.7s-1.5-.6-2.2-.9c-.3-.1-.7-.1-1-.2-.1 0-.2-.1-.3-.1.1-.1.1-.2.2-.3s.3-.2.4-.3.1-.2.1-.3c-.1 0-.2 0-.3 0-.2.3-.4.4-.5.4m5.8 2c.2-.1.5-.2.7-.4.5-.3 1-.5 1.3-1 .3-.4.6-.8.8-1.3.1-.2.1-.4-.1-.5s-.5-.2-.7-.3c-.8-.3-1.7-.6-2.5-.9-.2-.1-.3 0-.5 0s-.3 0-.5 0c-.1 0-.3 0-.4.1-1.2.7-2.3 1.5-3.2 2.6 0 0-.1.1-.1.2h.2c.3.1.7.1 1 .2.9.4 1.7.8 2.5 1.2.4.2.9.7 1.5.1z"/><path d="m22.3 38.6c.4-.1.7-.4 1-.4.6.1 1.1.4 1.6.6.1 0 .1.3 0 .4-.6 1.1-1.3 2.1-2 3.2-.3.4-.8.4-1.2.4-1.1 0-1.6-.9-2.3-1.6 0 0 0-.2.1-.3.9-.7 1.8-1.5 2.8-2.3m-.2 3.8c.1-.1.3-.1.4-.2.7-1 1.3-2 2-2.9.3-.4.1-.4-.2-.5-.4-.1-.7-.2-1.1-.2-.1 0-.3 0-.3.1-.9.8-1.8 1.5-2.7 2.3-.1 0-.2.2-.2.3.2.7 1.3 1.3 2.1 1.1z"/><path d="m30.1 46c-.8-.3-1.5-.5-2.2-.8-.5-.2-1-.5-1.4-.6-.7-.2-.9-1.1-.4-1.7 0 0 .1-.1.1-.1.5 0 1.1-.1 1.6-.1.1 0 .1.1.2.1 0 .1-.1.1-.2.2-.4.1-.8.2-1.1.2-.6-.2-.5.3-.6.5-.1.3.1.5.3.6.5.2.9.4 1.4.6s1 .5 1.6.7c.2.1.4 0 .7 0 0-.2 0-.4-.1-.6s-.2-.4-.3-.6c-.4-.7-.9-.9-1.6-.6 0 0-.1 0-.2 0 0 0 .1-.1.1-.1.7-.4 1.4-.3 2 .5.3.4.5.9.7 1.3-.1-.1-.4.2-.6.5z"/><path d="m18.5 19.4c.5.7.9 1.4 1.4 2.1.2.4.5.8.7 1.2 0 0 0 .1.1.2-.1 0-.1 0-.2-.1-.4-.6-.7-1.2-1-1.7-.4-.6-.7-1.2-1-1.7z"/><path d="m15.9 14.2c-.1-.4-.3-.7-.4-1.1 0-.1 0-.1 0-.2 0 .1 0 .1.1.2.3.7.6 1.4.9 2.1 0 .1 0 .1.1.2-.1-.1-.1-.1-.2-.2-.1-.3-.3-.7-.5-1z"/><path d="m18.5 19.3c0 .1 0 .1 0 0-.1-.1-.2-.2-.3-.4h.1c.1.1.2.3.2.4z"/><path d="m18.2 18.6c-.1 0-.2-.1-.3-.2v-.1s.1 0 .1.1c.1 0 .1.1.2.2z"/><path d="m11.9 110.7c.1-.2.2-.4.3-.5s.2-.1.4-.1c0 .1-.1.2-.1.3-.1.2-.3.4-.5.6 0-.2 0-.3-.1-.3z"/><path d="m18.5 80.5c.3.3.8.2.8.7 0 .3 0 .5-.2.6-.3.1-.6.3-.9.3-.1 0-.3-.3-.4-.4 0 0 0-.1 0-.2-.3-.9-.1-1.1.7-1m.3.7c-.1-.1-.2-.2-.2-.4-.1.2-.2.3-.3.5 0 .1.2.2.2.3.1-.2.2-.3.3-.4z"/><path d="m8.5 89.7c.3-.3.8-.4 1.1-.2.2.2.3.9.1 1.1-.2.3-.5.5-.9.3-.3-.2-.4-.5-.3-.9 0-.1 0-.2 0-.3m.9.8c0-.2 0-.5 0-.7 0 0-.1-.1-.2-.1s-.1.1-.1.2v.5.3c.1-.1.2-.1.3-.2z"/><path d="m25.4 84.7c0-.1.1-.2.1-.3.2-.1.3-.2.5-.3 0 .1 0 .3.1.4s.2.3.3.4c.2.2.5.5.2.8s-.8.3-1.1 0c-.4-.3-.3-.6-.1-1m.4.3v.4c0 .1.1.1.2.2.1-.1.2-.2.2-.3s-.2-.2-.4-.3z"/><path d="m10.3 99.2c-.6.2-.8.1-.8-.4 0-.1-.1-.3-.1-.4 0-.3-.1-.7.4-.7.4-.1.6.2.8.5s.1.7-.3 1m-.4-.9c0 .2.1.4.1.6h.1c.1-.1.1-.3.1-.4s0-.2 0-.2c0-.3-.1-.3-.3 0z"/><path d="m33.7 104.3c0-.2.1-.4.1-.6 0-.1.1-.2.2-.3 0 .1.1.2.1.3.1.1.2.1.2.2.2.2.5.3.6.5s.2.6-.1.7c-.3.2-.6.2-.8-.1-.1-.2-.2-.4-.3-.7m.6.4c.1.1.2.1.3.2 0-.2.1-.3 0-.5 0-.1-.2-.2-.3-.2 0 .1 0 .2-.1.3.1 0 .1.1.1.2z"/><path d="m9.3 82.6c.1.3.2.7-.1.9-.4.2-.7-.1-.9-.5-.2-.3-.2-.8-.2-1.1 0 0 .2-.1.2-.1.3.2.7.5 1 .8m-.3.4c-.1-.2-.1-.3-.2-.5-.1 0-.2.1-.2.1 0 .2.1.4.2.6z"/><path d="m9 76.4c-.4.2-.9-.2-.9-.6 0-.3.2-.6.2-.9.1-.3.5-.1.7 0 .4.4.5.9 0 1.5m-.3-.7c.1 0 .1 0 .2.1 0-.1 0-.3 0-.4 0 0-.2 0-.3 0 0 .1 0 .2.1.3z"/><path d="m33.2 90.1c.4-.4.6-.4.9 0 .3.3.3.7-.1 1-.3.3-.7.2-1-.2-.2-.2-.1-.5.2-.8m.6.1c-.2.2-.5.3-.3.6 0 .1.3.1.3.1.1-.3.4-.5 0-.7z"/><path d="m34.6 109.7c.5.4.6.8.3 1.4-.1.1-.3.1-.5.1-.1 0-.3-.2-.3-.2 0-.3.1-.5.2-.8.1-.2.4-.3 0-.5v-.1c.1 0 .2 0 .3.1m-.1.7h.2c0-.1 0-.2 0-.3-.1.1-.2.2-.2.3z"/><path d="m13.2 79.1c-.4-.1-.6-.3-.6-.7 0-.1 0-.2 0-.3.3-.3.7-.3 1-.1.1.1.3.3.2.5 0 .4-.2.6-.6.6m.1-.5.2-.2c0-.1 0-.2-.1-.2-.1-.1-.3-.1-.3 0s-.1.3-.1.5c.1-.1.2 0 .3-.1z"/><path d="m34.2 97.9c.4.5.5.8.1 1-.3.2-.7.1-.8-.3 0-.2.1-.5.2-.7.1-.1.3 0 .5 0z"/><path d="m39.2 123.3c-.2.8-.2.9-.8.8-.2 0-.4-.2-.5-.4-.1-.1.1-.3.2-.5.2-.3.6-.6 1-.6s.4.1.3.4c-.1.1-.2.1-.2.3z"/><path d="m32.2 77c.1-.1.1-.2.2-.3 0 .1 0 .2.1.3l.3.3c.3.2.5.7.3.9-.3.4-.6.1-.7-.2-.2-.4-.2-.1-.3 0s-.2.2-.2.3c0-.1 0-.3.1-.4 0-.3.1-.6.2-.9m.4.5c0 .1.1.2.1.4h.1c0-.1 0-.2 0-.3-.1-.1-.1-.1-.2-.1z"/><path d="m14.1 69.1c.2-.1.4-.3.5-.2.3.1.5.3.7.6s-.1.4-.4.5c-.5.1-.9-.3-.8-.9m.4.4c.1 0 .2.1.4.1 0-.1 0-.2-.1-.2 0 0-.2 0-.3.1z"/><path d="m25.3 74c.3.1.5.2.3.4-.1.4-.4.6-.8.6-.2 0-.5-.2-.4-.3.1-.2.2-.4.4-.6.1-.1.3-.1.5-.1m-.3.2c0 .1-.1.3-.1.4.1 0 .2.1.2 0 .1-.1.2-.2.2-.3-.1 0-.2 0-.3-.1z"/><path d="m26.6 60.1c.5-.2 1-.1 1.2.2.1.2.1.3-.1.3s-.3.2-.4.3c-.7.1-.9-.2-.7-.8m.4.1c-.1.1-.2.1-.2.2.1.1.3.2.4.1.1 0 .2-.2.3-.3-.2.1-.3.1-.5 0z"/><path d="m7.9 65.1c0 .5-.3.6-.6.7h-.1c-.1-.2-.4-.5-.3-.6.1-.2-.2-.7.3-.7.4 0 .6.1.7.6m-.2 0c-.1-.1-.2-.3-.4-.4 0 .1-.1.3-.1.4v.3c0 .1.1.1.1.2.1 0 .1 0 .2-.1s.1-.2.2-.4z"/><path d="m7.4 54.2c-.3.1-.5.2-.6-.1-.2-.3 0-.8.3-.9.2-.1.6-.1.7.2 0 .3-.2.6-.4.8m-.1-.8c-.1.2-.2.4-.4.6 0 0 .1.1.1.1.2-.1.4-.2.5-.4.1 0-.1-.2-.2-.3z"/><path d="m6.9 60.9c-.1-.2-.1-.5-.1-.7 0-.1.3-.3.4-.3.2.1.4.3.5.5 0 .1-.1.2-.1.3-.2.2-.4.4-.7.2m.1-.5c0 .1.1.1.1.2 0 0 .1-.1.1-.1 0-.1-.1-.1-.2-.1z"/><path d="m15.8 56.8c-.2-.3-.2-.5.1-.6.1 0 .3-.1.4-.2s.3-.2.4 0c.1.1.1.4 0 .5-.2.2-.5.6-.9.3m.1-.2c.3.2.4 0 .6-.2.1-.1 0-.2 0-.3-.1 0-.2.1-.2.1-.1.1-.2.2-.4.4z"/><path d="m32.3 62.1c-.1.2-.1.3-.2.4-.2-.1-.5-.3-.5-.4 0-.2.1-.5.2-.7 0 0 .1 0 .1.1.2.2.3.4.4.6z"/><path d="m31.9 70.5c-.1.1-.2.1-.3.2-.1-.1-.1-.3-.1-.4 0-.2 0-.4.1-.6.1-.1.3-.2.5-.3.1 0 .3.2.2.3-.1.3-.3.6-.4.8.1-.3.1-.5.2-.7 0-.1-.1-.1-.1-.2-.1.1-.2.3-.2.4-.1.2-.3.5.1.5z"/><path d="m62.5 70.2c.1.6-.2 1.3.3 1.8 0 0-.1.2-.2.3-1.3.6-2.7 1.2-4 1.8-.4.2-.7.3-1.1.5-.1 0-.3.4-.4 0 0 0-.1 0-.1.1 0 .5-.4.4-.7.6-.6.3-1.2.6-1.8 1-.2.1-.3.3-.6.1-.1 0-.2 0-.4 0-1 .4-2.1.8-3.1 1.2-.2.1-.4.2-.7.3-.1 0-.3-.1-.4-.1.1-.1.1-.3.2-.3.4-.2.8-.4 1.2-.6.5-.3.9-.6 1.4-1 1.1-1 2.1-2.1 3.2-3.1 1.4-1.3 2.5-2.9 3.4-4.6.6-1 1.1-2.1 1.6-3.2.3-.7.3-1.5.4-2.2 0-.2 0-.3 0-.5 0-.1 0-.1 0-.2-.1 0-.1.1-.2.1s-.1.1-.2.1c-1-.1-1.6.8-2.3 1.2-.3.2-.6.6-1.1.2-.1-.1-.4.1-.6.2-1.3.8-2.7 1.7-4 2.5-.3.2-.4.4-.3.7.2.7.4 1.5.6 2.3.1.3.2.2.4.1 1-.7 1.9-1.5 2.8-2.2l1.8-1.5c.2-.2.4 0 .5.1.1.2.1.3-.1.5-.3.3-.5.7-.8 1.1-.8 1.1-1.5 2.2-2.3 3.3-.6.8-1.3 1.7-2 2.5-1 1.1-2.2 2.2-3.2 3.3-.1.1-.3.2-.4.2-.1-.2-.3-.4-.3-.5-.1-1.8-.1-3.7-.1-5.5 0-.9 0-1.8 0-2.6 0-.3-.1-.5-.4-.5s-.2-.2-.1-.3c.3-.3.5-.6.9-.8.6-.3 1.1-.7 1.7-1 .9-.5 1.9-.9 2.8-1.4.6-.3 1.2-.7 1.8-1 .3-.1.7-.1 1-.2.1 0 .2.1.2.1.1.6.3.3.4 0 .1-.1.1-.2.2-.3.3-.2.4-.4 0-.6 0 0-.1-.1-.1-.1.3-.8-.4-.4-.6-.4-.8.1-1.7.3-2.5.5-.6.2-1.2.5-1.8.7-.4.1-.9.2-1.3.2-.5 0-1.1.1-1.6.1-.1 0-.2 0-.3-.1-.2-.1-.3-.2-.5-.4.1-.1.3-.2.4-.3 1.6-1.1 3.4-1.5 5.1-2 1.6-.5 3.3-1.1 4.9-1.7.8-.3 1.6-.8 2.5-.7.6 0 .9.4.6.9-.1.1-.1.3-.1.4v1.8c0 .6.1 1.2.2 1.7 0 .4-.1.8-.1 1.2v3.2c.3 1 .3 2 .3 3m-10.9.1c0-.1 0-.3 0-.4-.1.1-.2.1-.2.2-.2.5-.3 1-.4 1.5 0 0 .1.1.1.2.1 0 .2-.1.2-.1.1-.5.2-.9.3-1.4m7 1.1c-.1.3-.3.5-.4.8v.2c.1 0 .2 0 .2-.1.2-.2.4-.4.5-.7 0-.1-.1-.2-.2-.4 0 .1 0 .2-.1.2m0-9.4c.1-.1.3-.2.4-.3-.2 0-.3 0-.5.1 0 0 0 0-.1.1-.1.2-.3.3-.4.5.2-.2.4-.3.6-.4m.3-2.2c0-.1 0-.1-.1-.2-.4.2-.8.3-1.1.5v.2h.1c.3-.2.7-.4 1.1-.5m3 9.4c.2-.1.3-.8.2-.9 0 0-.2 0-.2.1-.1.2-.1.5 0 .8m-1.3-10c.1 0 .2 0 .3-.1 0 0 .1-.1.1-.2v-.1c-.3 0-.7.1-1 .1 0 0-.1.1-.1.2.1 0 .1.1.2.1zm1 12.4c0 .1 0 .2-.1.3.1-.1.3-.2.4-.3 0 0 0-.2-.1-.3 0 .1-.1.2-.2.3m-11.8-4.6c-.1.1-.1.3-.2.4.1 0 .2.1.2 0l.3-.3c-.1 0-.2-.1-.3-.1m8-5.8c.1 0 .2.1.3.1 0-.1.1-.1 0-.2s-.2-.2-.3-.3c0 .2-.1.3 0 .4m-3.7 8.2c0 .1-.1.2-.1.3.2-.1.3-.2.5-.4v-.1h-.1c-.2 0-.2.1-.3.2m7.2-4.8c-.1-.1-.1-.1-.2-.2 0 .1-.1.2-.1.4 0 .1 0 .2.1.3 0 0 .1-.1.1-.1 0-.1 0-.2.1-.4m-1.1 8s0 .1 0 0c.1 0 .3-.1.4-.1 0 0 0-.1 0-.2-.1 0-.2.1-.3.1 0 0 0 .1-.1.2m1.6-13.8c-.1 0-.2-.1-.4-.1 0 0-.1.1-.1.2.2 0 .3 0 .5-.1-.1 0-.1 0 0 0m-.4 2.5c0-.1-.1-.2-.1-.3 0 .1-.1.2-.1.3s.1.2.1.3c0-.2 0-.2.1-.3m-11.1 13.6c-.1 0-.1 0-.2.1-.1 0-.1.1-.2.2 0 0 .1.1.1.1.1-.1.2-.1.2-.2.1-.1.1-.1.1-.2m11.6-11.6c.1 0 .2 0 .3-.1 0 0 0-.2 0-.3-.1.2-.2.3-.3.4m-4.6 8.2c0-.1.1-.2.1-.3h-.1zm3.6-5.9c-.1 0-.1 0-.2-.1v.3c0-.1.1-.1.2-.2m-10.8 7c0-.1 0-.1 0 0-.1 0-.1.1-.1.2.1 0 .1-.1.1-.2m7.9 0s.1-.1.1-.1c-.1 0-.1 0-.2-.1 0 0 0 .1.1.2z"/><path d="m56.4 76.3c-.1 0-.1-.1 0 0 .4-.3.8-.7 1.2-.9.7-.4 1.6-.4 2.1-1.1 0-.1.2-.1.2-.1.2.3.5.1.6 0 .5-.4 1.1-.1 1.6-.4 0 .1.1.2.1.2-.3.3-.3.5 0 .8.1.1.2.3.3.4 0 .2-.1.4-.2.6 0-.1-.1-.1-.1-.2s0-.2 0-.2c-.1-.2-.2-.5-.3-.7-.1-.1-.2-.2-.2-.3s-.1-.2-.1-.3c-.1.1-.3.1-.3.2v1c0 .1.1.2.2.3h.1c0 .1 0 .3-.1.3-.6.3-1.2.6-1.9.9-.6.3-1.2.5-1.8.7-1.1.5-2.2.9-3.3 1.4-.9.3-1.8.6-2.7 1-.4.2-.8.5-1.3.8-.1 0-.1 0-.2 0 0 0 .1-.1.1-.1.6-.7 1.5-1 2.3-1.3l2.4-.9c.9-.3 1.8-.7 2.7-1.1.1 0 .3-.2.3-.3 0-.5 0-.9 0-1.4 0 0-.1-.1-.1-.1-.2.1-.4.1-.5.2s-.1.3-.1.5c0 .3 0 .6-.1.9 0 .1-.2.2-.3.3 0-.2-.1-.4-.1-.5s.1-.1.1-.2c0-.2-.1-.4-.1-.7-.1.1-.3.2-.5.3m2.2-.4c-.1.3-.1.7-.2 1v.3c.1 0 .2 0 .2-.1.2-.1.3-.2.5-.3.5-.2.6-.5.4-.9 0-.1-.1-.2-.1-.2s-.1.1-.2.1c-.1.2-.1.4-.2.6 0 .1-.1.1-.1.1 0-.1-.1-.1 0-.2.1-.4.2-.7.3-1.1 0-.1 0-.1.1-.2-.1 0-.2 0-.2 0-.4.2-.5.5-.5.9m2.6-.1c-.2-.5-.6-.8-.2-1.3.1-.1 0-.2.1-.3-.1 0-.3 0-.4.1-.1.2-.1.4-.1.5v.8.5c.1-.1.2-.2.3-.2 0 0 .1-.1.3-.1m-1-.4c-.1-.1-.2-.2-.3 0v.9c0 .1.1.1.1.2 0-.1.1-.1.1-.2.1-.3.1-.6.1-.9m-.2-.7c0 .1.1.1.1.2 0 0 .1-.1.1-.1-.1 0-.2 0-.2-.1z"/><path d="m51 82.5c.1.1.2.2.3.2 0-.1 0-.3 0-.4-.1-.3-.3-.6.1-.8.1-.1.2-.1.4-.1 0 0 .1.2.1.2-.4.3-.2.7-.1 1 .1.6.1.6-.4.7-.2 0-.3.2-.4.3-.3.5-.6.7-.9.4-.2-.2-.3-.4-.2-.7.1-.4.2-.8.4-1.2 0-.1.2-.3.3-.3s.3.1.4.2c-.2.2-.1.3 0 .5m-.7-.3c-.1.2-.1.4-.2.5 0 .4 0 .7-.1 1.1.5-.2.5-.6.6-1 .1-.1.2-.5-.3-.6z"/><path d="m48.3 82.5c.2-.2.2-.5.5-.3 0 0 .1-.1.1-.2s-.1-.2-.1-.2c.1-.2.3-.6.5-.6.4-.1.3.4.4.6 0 .6-.1 1-.6 1.4-.1.1-.1.4-.2.6 0 .1-.1.2-.1.3-.1-.1-.2-.2-.2-.2 0-.3 0-.6 0-.9-.1-.2-.1-.4-.3-.5-.1.1-.1.1 0 0m1-.8c-.1 0-.1 0-.2-.1-.1.3-.1.6-.2.9 0 .1.1.1.1.2.1 0 .1-.1.2-.1.1-.3.1-.5.1-.9z"/><path d="m54 81.7c-.1.2-.1.3-.2.4h-.1c0-.1-.1-.3 0-.4.1-.5.2-.9.4-1.4.1-.1.3-.3.4-.3s.3.2.3.4c.1.4.1.8.1 1.2 0 .1-.1.1-.1.2 0-.1-.1-.1-.1-.2-.1-.1-.1-.4-.2-.4-.3-.1-.4.1-.5.5.1-.1.1-.1 0 0m.3-1.4v.3c0 .1.1.1.1.2 0 0 .1-.1.1-.1.1-.2.2-.4-.2-.4z"/><path d="m56.3 76.3v.7c.1.4-.4.9-.8.7-.1 0-.2-.2-.3-.4 0-.1.1-.2.2-.4 0-.2 0-.4 0-.6.1-.2.2-.3.3-.5.1.1.2.2.4.3 0 .2.1.2.2.2m-.5.3v.2c0 .1-.1.2-.1.4h.1c.1-.1.1-.3.1-.4.1 0 0-.1-.1-.2z"/><path d="m53.1 82.4c-.1.2-.1.3-.2.4-.1-.1-.2-.2-.2-.3 0-.4.1-.7.2-1.1 0-.1 0-.3 0-.4-.1 0-.2.1-.3.1s-.2.1-.3.1c.1-.1.1-.3.2-.3.4-.2.9-.5 1.3-.7h.1s-.1.1-.1.1c-.4.1-.4.5-.4.8-.2.4-.2.8-.3 1.3z"/><path d="m52.8 77.7c.2-.1.4-.2.6-.3 0 .2-.1.4-.1.7-.1.3-.1.6-.2.9 0 0-.1.1-.1.1s-.1-.1-.1-.1c0-.2 0-.5 0-.7 0-.1 0-.2 0-.2h-.2c-.1.3-.6-.2-.6.4 0 .3-.1.6-.2.9 0 .1-.1.1-.1.1s-.1-.1-.1-.1c0-.4.1-.8.1-1.1 0-.1.2-.2.4-.3.2-.2.4-.2.6-.3z"/><path d="m50.3 79c0-.2.1-.3.1-.4.1-.1.2-.2.3-.2 0 0 .1.2.2.3s.1.2.2.4c0-.1.1-.3.1-.4 0-.2.1-.3.1-.5 0 0 .1-.1.2-.1 0 0 .1.1.1.1-.1.4-.3.9-.4 1.3-.1.3-.3.2-.4-.1 0-.1-.1-.1-.2-.2 0 .1-.1.2-.1.3 0 .2-.1.3-.1.5 0 .1-.1.1-.1.2 0-.1-.1-.2-.1-.3 0-.4.1-.7.1-.9z"/><path d="m55.2 77.4c-.1.1-.3.2-.4.3s-.3.1-.5.2c-.1 0-.1.2-.1.3h.3.2c0 .1 0 .1-.1.1-.2.1-.4.1-.6.1 0 0-.1-.3-.1-.4 0-.5 0-1.1.7-1.2h.3c-.1.1-.1.2-.2.3s-.3.2-.4.4h.7c0-.1.1-.1.2-.1z"/><path d="m49.9 78.9c-.2.6-.4 1.2-.9 1.6-.1 0-.2.1-.2 0-.1-.1-.1-.2-.1-.3.1-.3.2-.6.3-.9 0-.1.1-.1.1-.2v.2c-.1.2-.2.5-.2.7v.3c.1-.1.2-.1.3-.2.2-.3.4-.8.7-1.2z"/></svg>