<?xml version="1.0" encoding="utf-8"?>
<!-- Generator: Adobe Illustrator 26.2.1, SVG Export Plug-In . SVG Version: 6.00 Build 0)  -->
<svg version="1.1" id="Layer_1" xmlns="http://www.w3.org/2000/svg" xmlns:xlink="http://www.w3.org/1999/xlink" x="0px" y="0px"
	 viewBox="0 0 76.4 138.4" style="enable-background:new 0 0 76.4 138.4;" xml:space="preserve">
<style type="text/css">
	.st0{fill:#000000;}
	.st1{fill:none;}
</style>
<g>
	<path class="st0" d="M74.4,106.3c-0.1,0.4-0.2,0.8-0.3,1.2c0,0.1,0,0.1-0.1,0.2c0.1,0,0.2,0,0.2,0c0.1-0.2,0.3-0.5,0.4-0.7
		c0-0.3,0.1-0.6,0.4-0.7c0.2-0.1,0.3-0.3,0.4-0.4c0.1-0.1,0.3-0.3,0.3-0.3c0.1,0,0.3,0.2,0.4,0.3c0.1,0.1,0.1,0.2,0.1,0.3
		c-0.1,0.8,0.1,1.7,0.2,2.5c0.1,0.7-0.1,1.5-0.2,2.2c0,0.1-0.1,0.2-0.1,0.3c-0.4,0.4-0.5,1-0.5,1.5c-0.1,1-0.8,1.8-1.8,2
		c-0.3,0.1-0.6,0.2-0.7,0.4c-0.6,0.6-1.2,1.3-1.8,1.9c-0.3,0.3-0.7,0.4-1,0.6c-0.6,0.5-1.2,1-1.8,1.5c-1.4,1.2-2.8,2.3-4.1,3.5
		c-1.3,1.1-2.7,2-4.1,3c-1.3,0.8-2.6,1.5-3.9,2.3c-2,1.1-3.9,2.1-5.9,3.3c-1.4,0.8-2.7,1.7-4.1,2.6c-1.3,0.8-2.7,1.7-4.1,2.5
		c-0.6,0.4-1.2,0.8-1.8,1.2c-0.2,0.1-0.4,0.3,0,0.5c0,0,0.1,0.2,0,0.2c-0.1,0.1-0.3,0.1-0.4,0.1c-0.3,0-0.6,0.1-0.9,0.1
		c-0.1,0-0.2,0-0.3,0c-0.3-0.2-0.7-0.1-1-0.1c-0.2,0-0.3-0.1-0.5-0.2c-0.2-0.2-0.5-0.3-0.8-0.5c-0.8-0.4-1.7-0.8-2.5-1.2
		c-1-0.5-1.9-0.9-2.8-1.4c-1.2-0.7-2.5-1-3.7-1.5c-2.3-0.9-4.5-1.7-6.7-2.6c-0.9-0.4-1.7-1.1-2.5-1.6c-0.6-0.4-1.2-0.7-1.8-1
		c-0.8-0.4-1.6-0.9-2.5-1.3c-1.5-0.7-3-1.3-4.4-2c-0.8-0.4-1.5-0.8-2.3-1.1c-0.2-0.1-0.5-0.2-0.8-0.3c-0.1,0-0.1,0-0.2,0
		c0.1,0,0.1,0,0.2,0c0.6,0,1.1,0.1,1.7,0.1c0.1,0,0.3,0,0.4,0.1c0.8,0.8,1.9,1.2,2.9,1.6c1.9,0.8,3.9,1.6,5.7,2.6
		c1.2,0.7,2.5,1.2,3.6,2.1c1.4,1.2,3.1,1.4,4.7,2c1.9,0.7,3.9,1.3,5.8,2.1c0.9,0.3,1.6,0.8,2.5,1.2c0.9,0.5,1.7,1,2.6,1.4
		c0.2,0.1,0.4,0,0.7,0.1c0.1,0,0.2,0.1,0.3,0.1c0.3,0.1,0.6,0.3,0.8,0.3c0.1,0,0.3-0.2,0.3-0.3c0-0.5-0.1-1-0.1-1.5
		c0-0.5,0.1-1,0.2-1.5c0.1-0.6,0.2-1.1,0.3-1.7c0.1-0.4,0.1-0.8,0.1-1.2c0-0.1-0.1-0.2-0.2-0.4c0,0.1-0.1,0.2-0.1,0.3
		c0,0.1,0,0.1-0.1,0.2c0,0-0.1-0.1-0.1-0.1c0-0.3,0-0.6,0.3-0.6c0.1,0,0.4,0.2,0.4,0.4c0,0.7,0,1.3,0,2c-0.1,0.8-0.2,1.5-0.3,2.3
		c0,0.1,0,0.3,0.1,0.4c0.3,0.5,0.6,0.9,0.9,1.3c0.1,0.2,0.2,0.2,0.4,0.1c0.6-0.4,1.3-0.7,1.9-1.1c1-0.6,2.1-1.2,3.1-1.9
		c1.2-0.8,2.4-1.6,3.7-2.3c1.4-0.8,2.8-1.6,4.3-2.3c1.5-0.9,3.1-1.7,4.6-2.6c1-0.5,1.9-1.1,2.8-1.7c1.3-0.9,2.6-1.7,3.8-2.8
		c1.1-1.1,2.3-2.1,3.5-3.2c1.2-1,2.4-2,3.6-3c0.6-0.5,1.2-0.9,1.8-1.4c0.1-0.1,0.3-0.2,0.5-0.2c0.9-0.3,1.1-1.1,1.4-1.8
		c0.2-0.5,0.2-1,0.5-1.5c0,0,0-0.1,0-0.2c0-0.8,0.1-1.6,0.1-2.4c0-0.7-0.1-1.4-0.1-2.1c0-0.1,0-0.1-0.1-0.2
		c-0.2,0.1-0.4,0.2-0.6,0.3c-0.1,0-0.1,0.2-0.1,0.3c0.1,0.4-0.2,0.7-0.5,1c-0.7,0.6-1.3,1.1-2,1.7c-0.1,0.1-0.3,0.2-0.4,0.2
		c-0.5,0-0.8,0.3-1.1,0.5c-0.2,0.2-0.5,0.3-0.7,0.5c-0.3,0.2-0.6,0.4-0.9,0.6c-0.5,0.3-0.9,0.7-1.4,1c-0.3,0.2-0.4,0.2,0,0.4
		c0.1,0,0.2,0.2,0.1,0.2c-0.1,0.1-0.2,0.2-0.3,0.2c-0.1,0-0.2,0-0.4,0c-0.3,0-0.5,0.1-0.7,0.3c-0.6,0.4-1.2,0.7-1.7,1.1
		c-1,0.7-1.9,1.5-2.9,2.1c-1.2,0.8-2.4,1.5-3.6,2.2c-1.5,0.8-2.9,1.7-4.4,2.4c-1,0.5-1.8,1.2-2.7,1.9c-0.9,0.7-1.7,1.3-2.8,1.6
		c-1.2,0.4-2.3,1.1-3.3,1.7c-0.5,0.3-1,0.5-1.6,0.6c-0.3,0-0.7,0.3-1,0.5c-0.6,0.4-1.2,0.8-1.9,1.2c-0.4,0.2-0.6,0.6-1.1,0.6
		c-0.1,0-0.2,0.2-0.2,0.4c-0.1,0.4-0.4,0.5-0.7,0.2c-0.4-0.2-0.7-0.6-0.7-1.1c0-0.1-0.1-0.3-0.2-0.4c-2.1-0.9-4.1-1.8-6.2-2.6
		c-1.9-0.7-3.8-1.3-5.6-2.2c-1-0.5-2.1-0.8-3.1-1.2c-1-0.4-2-0.9-3-1.4c-1.3-0.6-2.6-1.1-3.9-1.6c-0.4-0.2-0.7-0.3-1-0.6
		c-0.8-0.6-1.8-0.9-2.7-1.3c-0.9-0.4-1.7-0.7-2.6-1.1c-0.1-0.1-0.3-0.1-0.4-0.1c-0.1,0-0.3,0-0.2,0.2c0,0.1,0,0.2,0,0.3
		c-0.1,0-0.2,0-0.3-0.1c-0.4-0.6-1.1-1-1.7-1.3c-0.6-0.3-1.2-0.7-1.7-1.1c-0.2-0.1-0.4-0.1-0.6,0.1c-0.1,0.1-0.2,0-0.3,0
		c0.1-0.1,0.1-0.1,0.2-0.2c0.2-0.2,0.2-0.3,0-0.6c-0.6-0.6-1.4-1.1-1.8-2c-0.1-0.1-0.2-0.2-0.3-0.3c0,0-0.1,0-0.2,0c0,0,0,0.1,0,0.2
		c0,0.2,0,0.4,0,0.6c0,0.3,0,0.6,0.4,0.7c0.3,0,0.5,0.3,0.7,0.5c0,0,0,0.1-0.1,0.1c-0.3,0-0.4,0.2-0.3,0.4c0,0.5,0.1,0.9,0.1,1.4
		c0,0.7,0.2,1.3,0.7,1.8c0.7,0.6,1.2,1.3,1.8,1.9c0.1,0.1,0.1,0.4,0.2,0.6c-0.2,0-0.5,0-0.6-0.2c-0.4-0.5-0.8-1-1.2-1.5
		c-0.2-0.2-0.4-0.4-0.6-0.6c0,0.3,0.1,0.5,0.1,0.8c0.1,0.3,0.2,0.6,0.4,0.9c0.1,0.3,0.3,0.6,0.6,0.7c0.4,0.3,0.6,0.8,0.7,1.3
		c0.1,0.4,0.1,0.9,0.1,1.4c0,0.1,0,0.1,0,0.2c0,0-0.1-0.1-0.1-0.1c-0.3-0.4-0.5-0.8-0.8-1.2c-0.1-0.2-0.2-0.3-0.4-0.4
		c-1-0.4-1.2-1.3-1.5-2.1c-0.2-0.5-0.3-1-0.5-1.6c0-0.1,0-0.2,0-0.2c0.1,0,0.3-0.1,0.5-0.1c0.1,0,0.1,0.1,0.2,0.2
		c0.1,0.1,0.2,0.1,0.3,0.2c0-0.1,0-0.3,0-0.4c-0.1-0.2-0.2-0.5-0.4-0.6c-0.5-0.4-0.5-1-0.6-1.5c0-1-0.1-2.1-0.1-3.1
		c0-0.6-0.1-1.1-0.1-1.7c0-0.2,0-0.4,0.1-0.6c0.7-1,1.3-2,2-3.1c0.1-0.1,0.1-0.2,0.2-0.4c0.1-0.2,0.1-0.2,0.4-0.2
		c0.4,0,0.9-0.3,1.3-0.4c0.1,0,0.2-0.3,0.1-0.4c-0.3-1.6-0.6-3.1-0.8-4.7c-0.1-0.8-0.2-1.7-0.3-2.5C5,96.6,5,95.3,4.9,94
		c-0.1-1-0.1-2-0.2-2.9c-0.1-1.3-0.1-2.5-0.2-3.8c-0.1-0.9-0.1-1.9-0.2-2.8c-0.1-1.6-0.2-3.2-0.4-4.8c-0.1-1.4-0.2-2.7-0.4-4.1
		c-0.1-0.6-0.3-1.1-0.4-1.6c-0.1-0.6-0.1-1.2-0.1-1.8c0-0.3,0.2-0.6-0.4-0.7c-0.5-0.1-0.9-0.5-1.4-0.7c-0.1-0.1-0.2-0.2-0.2-0.3
		c0.1,0,0.2-0.1,0.4-0.1C1.8,70.2,2,70.1,2.3,70c0.1,0,0.1,0,0.2-0.1c-0.1,0-0.1-0.1-0.2-0.1c-0.1,0-0.3-0.1-0.4-0.1
		c-0.7-0.1-1.3-0.4-1.8-0.9c-0.2-0.2-0.3-0.4,0.2-0.4c0.5,0,1-0.2,1.5-0.3c0.7-0.1,0.8-0.2,0.7-0.9c0-0.6-0.1-1.1-0.2-1.7
		c0-0.6-0.1-1.2-0.1-1.9c-0.1-1.3-0.1-2.5-0.2-3.8c0-0.9-0.1-1.7-0.2-2.6c-0.1-0.9-0.3-1.7-0.4-2.6c-0.1-0.5-0.1-0.9-0.1-1.4
		C1.3,52.2,1.1,51,1,49.8C1,49.2,1,48.6,0.9,48.1c-0.1-1.6-0.2-3.3-0.3-4.9c0-0.7-0.1-1.5-0.2-2.2c-0.1-1-0.1-2.1-0.2-3.1
		c0-0.1-0.1-0.1-0.1-0.2C0.1,37.5,0,37.4,0,37.2c0-1,0-2,0.1-3.1c0.1-1.4,0.2-2.9,0.4-4.3c0.1-1,0.2-2,0.4-2.9
		c0.3-1.7,0.7-3.3,1.1-5c0.3-0.9,0.7-1.7,1.2-2.6c0.6-1.2,1.2-2.3,1.8-3.4c0.3-0.6,0.6-1.2,0.9-1.7C5.9,14,5.9,14.1,6.1,14
		c0.1-0.1,0.1-0.3,0.2-0.4c-0.3-0.1-0.1-0.3-0.1-0.4C7,11.4,8,9.6,9.5,8.3c0.3-0.3,0.6-0.7,1-1c1.1-1.2,2.4-2.1,3.7-3
		C15.1,3.5,16,2.9,17,2.4c1.2-0.6,2.4-0.9,3.6-1.4c1.3-0.5,2.6-0.8,3.9-1c0.9-0.1,1.8,0.1,2.7,0.1c0.6,0,1.2,0.1,1.8,0.1
		c1.5,0,3,0.4,4.5,0.9c0.3,0.1,0.6,0.4,0.8,0.6c0.3,0.3,0.6,0.5,1.1,0.6c0.8,0.2,1.7,0.4,2.3,0.9c0.7,0.6,1.4,0.5,2.2,0.6
		c0.5,0.1,0.9,0.2,1.4,0.3c0.9,0.2,1.8,0.4,2.7,0.6c1.1,0.2,2.1,0.4,3.1,0.7C48.1,5.6,49,5.8,49.9,6c0.3,0.1,0.7,0,1-0.1
		c0.5-0.1,0.8,0.1,1,0.6c0,0.1,0.2,0.2,0.4,0.2c0.6,0,1.1-0.1,1.7-0.2c0.6,0,1.1,0,1.7-0.2c0.4-0.1,0.9,0,1.4,0.1
		c2.1,0.5,4.1,1.2,6,2.3c1.4,0.8,2.6,1.8,3.6,3c0.9,1,1.5,2.2,2.2,3.4c0.7,1.2,1.1,2.6,1.7,3.8c0.2,0.3,0.4,0.6,0.6,1
		c0.5,1,0.9,2,0.9,3.2c0,0.6,0.2,1.3,0.3,1.9c0.1,0.4,0.1,0.8,0.1,1.2c0.1,1.2,0.2,2.4,0.3,3.6c0.1,1.1,0.2,2.3,0.2,3.4
		C73,35.1,73,37,73,38.8c0,1.3,0,2.6-0.1,3.9c-0.3,2.5-0.1,4.9-0.2,7.4c0,1.2,0.1,2.4,0.1,3.7c0,1.1,0,2.3,0,3.4
		c0,2.1-0.1,4.1-0.2,6.2c0,1-0.1,1.9-0.2,2.9c-0.1,1.5-0.1,2.9-0.2,4.4c-0.1,1.1-0.2,2.2-0.3,3.3c0,0.1,0.1,0.3,0.1,0.4
		c-0.1,1.2-0.1,2.4-0.2,3.6c0,0.7-0.1,1.5-0.2,2.2c-0.1,1.7-0.2,3.4-0.3,5.2c0,0.2,0.1,0.5,0.1,0.7c0,0.2,0.1,0.4,0,0.6
		c-0.5,1.1-0.1,2.1-0.1,3.2c0,0.8-0.1,1.6-0.1,2.4c0,0.3,0.1,0.6,0.1,0.9c0,1.1,0,2.3,0,3.4c0,0.5-0.1,1.1-0.1,1.6
		c0,0.9,0,1.7,0,2.6c0,0.7-0.1,1.4-0.1,2.1c0,0.4,0.2,0.8,0.1,1.1c-0.2,0.5-0.1,1.1-0.1,1.6c0,0.2,0.1,0.3,0.2,0.5
		c0.1-0.1,0.2-0.1,0.4-0.2c0.7-0.5,1.4-0.7,2.2-0.5C74.4,105.4,74.6,105.8,74.4,106.3 M35.9,22.6c-0.1,0-0.2,0-0.3,0.1
		c0,0,0,0.1,0,0.1C35.7,22.8,35.8,22.7,35.9,22.6C35.9,22.7,35.9,22.6,35.9,22.6c0.2,0,0.2,0,0.3,0.1c0,0,0-0.1,0-0.1
		C36.1,22.6,36,22.6,35.9,22.6 M4.4,68.5c-0.1-0.1-0.1-0.2-0.2-0.2c-0.3,0-0.5,0.1-0.8,0.1C2.7,68.6,2,68.8,1.4,69
		c-0.1,0-0.2,0.1-0.2,0.1c0.1,0.1,0.1,0.1,0.2,0.2c0.3,0,0.7,0,1,0.1c0.5,0.1,1,0.2,1.5-0.3C4,68.9,4.2,68.7,4.4,68.5
		c-0.2,0.3-0.5,0.6-0.7,0.8c-0.1,0.1-0.1,0.3-0.1,0.4c0.2,0,0.4,0.1,0.6,0c0.4-0.2,0.8-0.5,1.2-0.7c0.1,0,0.1,0,0.2,0
		c0,0-0.1,0.1-0.1,0.1c-0.2,0.1-0.4,0.3-0.6,0.4c-0.1,0.1-0.2,0.3-0.2,0.5c0,0.1,0.2,0.2,0.3,0.2c0.2,0.1,0.3,0.2,0.5,0.3
		c1.3,0.7,2.6,1.3,3.8,2c1.6,0.9,3.1,2,4.8,2.9c1.7,0.9,3.4,1.7,5.2,2.4c1.3,0.5,2.6,1,3.8,1.5c1.1,0.4,2.2,0.9,3.3,1.4
		c0.8,0.4,1.6,0.8,2.3,1.3c1,0.6,2.1,1.2,3.1,1.8c0.6,0.4,1.3,0.8,1.9,1.2c0.1,0.1,0.3,0.1,0.4,0.1c0.1,0,0.1-0.2,0.1-0.4
		c0-0.3,0-0.7,0-1c0-0.3-0.1-0.4-0.3-0.6c-0.3-0.2-0.5-0.4-0.6-0.8c-0.1-0.3-0.2-0.6-0.6-0.9c-1.1-0.7-2.2-1.5-3.3-2.1
		c-1.5-0.8-3-1.6-4.6-2.4c-2.1-1-4.2-1.8-6.3-2.8c-1.4-0.6-2.7-1.3-4.1-2c-1.6-0.8-3.2-1.5-4.7-2.5c-1-0.6-2.1-1.1-3.1-1.7
		c-0.1,0-0.2-0.1-0.2-0.1c0,0.1,0,0.2,0,0.3c0,0.2,0,0.3,0,0.5c0,0.1-0.1,0.1-0.1,0.2c0-0.1-0.1-0.1-0.1-0.2
		c-0.1-0.3-0.3-0.5-0.4-0.8c-0.1-0.2-0.3-0.4-0.4-0.6c-0.2-0.2-0.1-0.5,0.2-0.5c0.5,0,0.4-0.4,0.4-0.7c0-0.1-0.1-0.3-0.1-0.4
		c-0.1-1.1-0.2-2.1-0.4-3.2c0-0.2-0.1-0.3-0.2-0.4c0,0.1-0.1,0.3-0.1,0.4c0,0.2,0,0.4,0.1,0.5c0,0.8,0.1,1.5,0.1,2.3
		c0,0.1-0.2,0.2-0.3,0.3c0,0-0.2-0.1-0.2-0.2c-0.1-0.7-0.2-1.4-0.3-2.1c0-0.5,0-1.1,0-1.6c-0.1-0.8-0.3-1.6-0.4-2.4
		C4,59,4,58.4,3.9,57.8c-0.1-0.9-0.4-1.7-0.4-2.6c-0.1-1.1-0.1-2.3-0.1-3.4c0-2.5,0-5.1-0.3-7.6c-0.1-1.1-0.2-2.2-0.2-3.3
		c0-1.8,0-3.7,0-5.5c0-0.9,0.1-1.8,0.2-2.7c0.1-0.9,0.1-1.8,0.2-2.7c0.2-1.4,0.4-2.7,0.5-4.1c0.1-1.4,0.6-2.7,1-4.1
		c0.4-1.4,0.9-2.7,1.3-4.1c0.4-1.3,1.1-2.5,1.8-3.7c0.8-1.3,1.7-2.6,2.8-3.7c0.9-0.9,1.7-2,2.8-2.7c1.6-1,3.2-2,4.8-2.9
		c2-1.1,4.2-1.9,6.4-2.6c0.7-0.2,1.4-0.5,2.1-0.5c1.6-0.1,3.2,0,4.8,0c0.2,0,0.3,0.1,0.5,0.1c0.6,0.1,1.2,0.2,1.8,0.4
		c0,0,0.1,0,0.2,0C34,2,34,2,34,2c-0.1-0.1-0.3-0.2-0.4-0.3c-0.3-0.1-0.7-0.2-1-0.2c-1.3-0.4-2.7-0.5-4.1-0.6c-0.5,0-1,0-1.5-0.1
		c-1.4-0.2-2.8-0.1-4.2,0.3c-0.9,0.2-1.7,0.5-2.5,0.8c-0.4,0.1-0.8,0.3-1.2,0.4c-0.4,0.2-0.8,0.3-1.2,0.5C17.4,3,17,3.1,16.7,3.4
		c-0.3,0.2-0.6,0.2-0.9,0.5c-0.5,0.4-1,0.8-1.6,1.1c-1.5,0.8-2.8,1.9-4,3.1C9.9,8.4,9.5,8.9,9.2,9.3C8.9,9.7,8.5,10,8.3,10.5
		C7.6,11.6,7,12.8,6.3,14c-0.7,1.3-1.5,2.7-2.3,4c-0.1,0.1,0,0.2,0,0.4c0.1,0,0.2-0.1,0.3-0.1c0.1-0.1,0.2-0.2,0.3-0.2
		C4.7,18,4.8,18,4.9,17.9c0,0.1-0.1,0.2-0.1,0.3c-0.3,0.2-0.5,0.4-0.8,0.7c-0.7,0.7-1,1.6-1.3,2.5c-0.5,1.4-0.8,2.8-0.9,4.2
		c0,0.5-0.2,1-0.3,1.6c-0.1,0.5-0.2,1.1-0.3,1.6C1.1,29.9,1.1,31,1.1,32c0,0.3,0,0.7-0.3,0.9c0,0,0,0.2,0,0.2c0,0.1,0.2,0.3,0.2,0.4
		c0,0.5-0.1,1.1-0.1,1.6c-0.1,0.2-0.2,0.3-0.2,0.5c0,0.1,0.1,0.2,0.1,0.2c0-0.1,0.1-0.2,0.1-0.2c0-0.2,0-0.3,0.1-0.5
		c0,0,0,0.1,0,0.1c0,0.5,0,1,0,1.5c0,0-0.1,0.1-0.1,0c-0.4-0.1,0,0.1-0.1,0.2c0.1,0.1,0.1,0.3,0,0.4c0,0-0.1,0.1-0.1,0.2
		c0.1,0.6,0.2,1.3,0.3,1.9c0.2,1.2,0.3,2.4,0.5,3.7c0.1,0.5,0.1,1,0.1,1.5c0.1,1.2,0.3,2.5,0.4,3.7C1.9,49.2,2,50.1,2,50.9
		c0,1.2,0.2,2.3,0.4,3.5c0.1,0.9,0.2,1.8,0.3,2.7c0.1,1.1,0.2,2.2,0.3,3.3c0.1,1,0.1,1.9,0.2,2.9c0.1,1.4,0.1,2.8,0.2,4.2
		c0,0.1,0.1,0.1,0.1,0.1c0.4,0,0.7,0.1,1.1,0c0.4-0.1,0.6,0.1,0.7,0.3c0,0-0.1,0.3-0.1,0.3C4.8,68.1,4.7,68.4,4.4,68.5 M11.9,39
		c-0.9,0.5-1.7,1-2.6,1.5c-0.6,0.4-1.3,0.7-1.9,1c-0.8,0.5-1.3,1.2-1.8,2c-0.3,0.4,0,1,0.4,1.2c0.4,0.2,0.8,0.4,1.2,0.5
		c1.1,0.4,2.3,0.8,3.4,1.3c0.7,0.3,1.4,0.6,2.2,0.9c0.6,0.3,1.3,0.4,1.9,0.8c1.2,0.9,2.6,1.3,4,1.8c1,0.4,2.1,0.5,3.1,0.8
		c1.5,0.5,2.9,1,4.4,1.5c0.8,0.3,1.5,0.5,2.3,0.8c1.3,0.5,2.7,0.8,3.8,1.6c0.2,0.1,0.4,0.2,0.6,0.3c0-0.2,0-0.4,0-0.5
		c0,0,0-0.1,0-0.1c-0.1-0.6-0.2-1.2-0.3-1.7c-0.1-0.8-0.3-1.6-0.4-2.3c-0.1-0.8-0.1-1.6-0.2-2.3c-0.1-1.2-0.3-2.5-0.4-3.7
		c-0.1-0.8-0.2-1.4-1.1-1.7c-1-0.4-1.9-0.9-2.9-1.4c-0.3-0.1-0.5-0.4-0.6-0.7c0-0.1,0.3-0.4,0.5-0.5c0.1-0.1,0.3,0,0.5,0.1
		c-0.1,0.1-0.2,0.1-0.2,0.2c-0.1,0.1-0.2,0.2-0.2,0.4c0,0.1,0.1,0.2,0.2,0.3c1.1,0.6,2.2,1.2,3.3,1.8c0.1,0,0.2,0.3,0.3-0.1
		c0.1-1-0.2-1.6-1.2-1.9c-0.7-0.2-1.4-0.1-2.1-0.2c-0.1,0-0.2,0-0.2-0.1c0.1,0,0.1-0.1,0.2-0.1c0.9-0.2,1.8-0.2,2.6,0.4
		c0.2,0.1,0.4,0.2,0.5,0.4c0-0.2,0.1-0.4,0.1-0.6c0-0.1,0.1-0.2,0.1-0.3c0.1-1.3,0.1-2.6,0.2-3.9c0-0.2,0.1-0.4,0.2-0.6
		c0-0.1,0-0.3,0-0.4c-0.2,0-0.4-0.1-0.5,0.2c-0.1,0.3-0.2,0.5-0.3,0.8c-0.1,0.1-0.2,0.2-0.2,0.3c-0.1-0.1-0.2-0.2-0.2-0.4
		c0-0.3,0-0.6,0-0.9c0-0.3-0.2-0.4-0.5-0.5c-0.9-0.3-1.9-0.1-2.7-0.7c-0.1,0-0.1-0.1-0.2-0.1c-0.6-0.1-1.2-0.2-1.8-0.4
		c-1.7-0.5-3.4-0.7-5.2-0.7c-0.4,0-0.8-0.1-1.2-0.2c-0.1,0-0.2-0.1-0.2-0.1c0.1,0,0.2-0.1,0.2-0.1c1.1,0.1,2.1,0.1,3.2,0.2
		c1.1,0.1,2.2,0.4,3.3,0.6c0.6,0.1,1.2,0.4,1.9,0.4c0.7,0,1.4,0.2,2,0.5c0.2,0.1,0.5,0,0.8,0c0.1,0,0.1-0.1,0.1-0.1
		c-0.1,0-0.1-0.1-0.2-0.1c-0.9-0.3-1.7-0.5-2.6-0.7c-0.5-0.2-1.1-0.4-1.6-0.4c-1.2-0.1-2.3-0.4-3.4-0.8c-0.2,0-0.4-0.2-0.4-0.3
		c0.1-0.5-0.2-0.4-0.5-0.4c-0.1,0-0.1-0.1-0.2-0.2c0.1,0,0.2-0.1,0.2-0.1c0.2,0,0.4,0,0.6,0.1c1,0.3,2,0.7,3.1,1
		c1.8,0.6,3.6,1.1,5.4,1.7c0.6,0.2,0.9,0.5,0.9,1c0,0.1,0.1,0.2,0.2,0.3c0.1-0.1,0.2-0.2,0.2-0.3c0.1-0.5,0.1-1,0.2-1.4
		c0.4-1.9,0.9-3.7,1.4-5.5c0.1-0.3,0.1-0.5-0.3-0.6c-1-0.3-2-0.8-3.1-1c-1.2-0.2-2.5-0.5-3.7-0.8c-0.8-0.2-1.5-0.4-2.3-0.6
		c-0.1,0-0.2-0.2-0.4-0.3c0.2,0,0.3-0.1,0.5-0.1c0.8,0.2,1.5,0.3,2.3,0.6c1,0.4,2,0.6,3,0.7c0.7,0.1,1.5,0.3,2.2,0.5
		c0.6,0.2,1.1,0.4,1.6,0.7c0.3,0.1,0.5,0.1,0.7-0.2c0.1-0.4-0.1-0.4-0.3-0.4c-0.1,0-0.2-0.1-0.3-0.1c-1.3-0.2-2.6-0.4-3.9-0.8
		c-1.4-0.3-2.8-0.8-4.3-1.2c-0.4-0.1-0.9-0.2-1.4-0.2c-0.7,0-1.3,0.2-2-0.1c-0.1,0-0.1,0-0.2,0c0,0.1-0.1,0.2,0,0.2
		c0,0.1,0.1,0.2,0.2,0.3c0,0,0,0.1,0.1,0.1c0,0-0.1,0-0.1,0c-0.4-0.3-0.8-0.5-1.2-0.8c0,0,0-0.1,0.1-0.2c0.3,0.2,0.3,0,0.3-0.2
		c0.2,0.1,0.3,0.3,0.5,0.4c0.1,0,0.2,0,0.3,0c0.6,0,1.1,0,1.7,0c1.2,0,2.3,0.3,3.4,0.6c0.9,0.2,1.8,0.5,2.7,0.8
		c1.4,0.3,2.7,0.5,4.1,0.9c0.5,0.1,0.7,0,0.9-0.4c0.5-1.1,0.9-2.2,1.4-3.3c0.6-1.2,1.3-2.3,2.1-3.5c0.8-1.1,1.6-2.2,2.4-3.2
		c0.3-0.4,0.7-0.8,1.1-1.2c0.2-0.2,0.2-0.5-0.1-0.6c-1.1-0.3-2.1-0.6-3.2-0.8c-1.6-0.3-3.2-0.7-4.9-1c-1.3-0.2-2.5-0.1-3.8-0.3
		c-0.8-0.1-1.6-0.2-2.4-0.3c-1.3-0.2-2.5-0.5-3.8-0.6c-1.3-0.2-2.5-0.2-3.8-0.3c-0.7-0.1-1.5-0.2-2.2-0.4c-0.1,0-0.3,0-0.4,0
		c0.1,0.1,0.2,0.2,0.3,0.3c0.1,0.1,0.3,0.2,0.4,0.3c0,0,0.1,0,0.1,0c0,0-0.1,0.1-0.1,0.1c-0.1,0-0.3,0-0.4,0c-0.2,0-0.3-0.1-0.5-0.2
		c-0.9-0.2-1.6,0.3-2.2,0.9c-1,1-2,1.9-3,3c-0.7,0.8-1.3,1.6-1.8,2.5C8.9,18,8.4,19.3,8,20.6c-0.6,1.8-1.1,3.7-1.6,5.6
		c-0.4,1.3-0.7,2.5-0.7,3.9c-0.1,1.6-0.3,3.3-0.4,4.9c-0.1,0.8-0.1,1.5-0.1,2.3c0,0.4-0.1,0.8-0.1,1.1c0.1,0.9,0.2,1.8,0.3,2.8
		c0,0.3-0.1,0.5-0.1,0.8c0,0.1,0.2,0.2,0.2,0.2c0.3-0.2,0.5-0.3,0.7-0.6C7,40.8,7.7,40,8.4,39.2c0.8-0.8,1.6-1.6,2.4-2.4
		c0.2-0.2,0.4-0.4,0.7-0.6c0.5-0.3,1.2-0.2,1.6-0.7c0.1-0.2,0.3-0.3,0.5-0.5c1.2-0.9,2.4-1.8,3.5-2.6c0.9-0.7,1.8-1.3,2.8-1.9
		c0.1-0.1,0.3,0,0.4,0c0,0.1,0,0.3,0,0.4c-0.1,0.2-0.3,0.3-0.4,0.4c-0.6,0.4-1.3,0.9-1.9,1.3c0,0-0.1,0.1-0.1,0.1
		c0,0,0.1,0.1,0.1,0.1c0.5,0.2,1.1,0.3,1.6,0.5c1.9,0.7,3.8,1.4,5.7,2.1c1.8,0.7,3.6,1.4,5.4,2.2c0.1,0,0.1,0.2,0.2,0.3
		c-0.1,0-0.2,0.1-0.3,0.1c-0.2,0-0.4-0.1-0.5-0.2c-1.3-0.6-2.6-1.2-3.9-1.7c-2.7-1-5.5-1.9-8.2-2.9c-0.5-0.2-0.8,0-1.1,0.2
		c-0.5,0.3-0.9,0.7-1.4,1c-0.5,0.4-0.9,0.7-1.4,1.1c-0.4,0.3-0.9,0.4-1.1,0.9c0,0,0,0,0,0c-0.5,0.3-1,0.7-1.5,1.1
		c-0.4,0.3-0.7,0.6-1.1,0.9c-0.3,0.2-0.7,0.4-0.4,0.9c0,0,0,0.1,0,0.2c0,0-0.1-0.1-0.1-0.1c-0.2-0.5-0.5-0.2-0.7-0.1
		c-0.3,0.3-0.6,0.7-0.9,1c-0.1,0.2-0.3,0.3-0.4,0.5c0,0.1,0,0.1,0,0.2c0.1,0,0.1,0,0.2,0c0.6-0.3,1.2-0.6,1.8-0.9
		C10.5,39.7,11.2,39.3,11.9,39 M57.2,11.3c-0.2,0-0.4,0-0.7-0.1c-1.3-0.5-2.7-0.2-4,0.1c-1,0.2-1.9,0.6-2.8,1.1
		c-1.3,0.8-2.5,1.6-3.6,2.6c-0.7,0.7-1.4,1.4-2,2.1c-1.4,1.4-2.4,3-3.3,4.7c-1.1,1.9-2,3.9-2.7,5.9c-0.6,2-1.4,3.9-1.6,6
		c-0.1,1.1-0.5,2.1-0.4,3.2c0.1,1.3,0,2.6-0.1,3.9c0,0.1,0,0.2,0,0.4c-0.1,0.9-0.2,1.8-0.2,2.7c0,0.6,0.1,1.3,0.2,1.9
		c0.1,1.2,0.2,2.5,0.3,3.7c0.1,0.9,0.2,1.7,0.3,2.6c0.1,1.3,0.2,2.5,0.3,3.8c0,0.4,0,0.8,0.1,1.2c0.2,0.8,0.2,1.6,0.1,2.4
		c-0.1,0.3-0.1,0.7-0.1,1c0,0.3,0.1,0.6,0.1,1c0,1.1,0,2.2,0,3.2c0,0.2,0.1,0.4,0.1,0.5c0,0.1,0.4,0.3-0.1,0.3c0,0-0.1,0.2-0.1,0.3
		c0,0.9,0,1.8,0,2.7c0,1.1,0,2.1,0,3.2c0.1,1.4,0.2,2.7,0.3,4.1c0.1,0.9,0.1,1.8,0.2,2.7c0.1,1.3,0.2,2.6,0.3,4
		c0.1,0.8,0.1,1.7,0.2,2.5c0.1,1.8,0.2,3.5,0.3,5.3c0,0.8,0,1.7,0,2.5c0.1,1.2,0.3,2.4,0.3,3.6c0.1,2.7,0.1,5.5,0.1,8.2
		c0,0.4,0.1,0.8,0.1,1.2c0.1,1.7,0.2,3.3,0.3,5c0,0.5,0,1,0,1.5c0,0.1,0.1,0.2,0.1,0.3c0.1-0.1,0.2-0.1,0.2-0.2
		c0.8-1.4,2.1-2.4,3.4-3.1c1-0.6,2.2-1,3.2-1.5c1.5-0.8,2.9-1.7,4.4-2.5c2.7-1.4,5.4-2.7,8.1-4c1.2-0.6,2.3-1.4,3.6-1.8
		c0.7-0.2,1.3-0.4,2-0.6c0.1,0,0.2-0.1,0.3-0.1c-0.1-0.1-0.2-0.1-0.3-0.2c-0.1-0.1-0.2-0.1-0.3-0.2c0.1-0.1,0.2-0.1,0.3-0.2
		c0.3-0.1,0.7-0.1,1-0.2c0.7-0.3,1.3-0.5,2-0.5c0.3,0,0.4,0,0.4-0.4c0-1.3,0-2.6,0-3.9c0-0.5-0.1-1-0.1-1.5c0-0.9-0.1-1.9-0.1-2.8
		c0-0.1,0-0.1,0-0.2c0-1-0.1-2-0.1-2.9c0.1-1,0.2-2.1,0.3-3.1c0.1-0.9,0.1-1.8,0.2-2.7c0.1-1.4,0.3-2.8,0.5-4.2
		c0.1-1.1,0.2-2.2,0.2-3.2c0-1,0-2,0-3c0-1.5-0.1-3-0.1-4.5c0-2.4-0.1-4.9-0.1-7.3c0-1-0.1-2-0.1-3.1c0-1.3,0-2.5,0.1-3.8
		c0.1-1.4,0.2-2.7,0.3-4.1c0.1-2.4,0.1-4.8,0.2-7.2c0-0.6,0-1.3,0-1.9c-0.1-2.6,0.1-5.2-0.2-7.8c-0.1-0.8-0.1-1.6-0.1-2.4
		c0-0.8-0.1-1.5-0.2-2.3c-0.1-0.8-0.2-1.5-0.4-2.2c-0.5-1.5-1-3-1.7-4.4c-0.7-1.5-1.6-2.8-2.8-3.9c-0.6-0.5-1.3-1-1.9-1.5
		c-0.6-0.5-1.1-1-1.9-1.2C59,11.8,58.2,11.5,57.2,11.3 M64.7,101.1c-0.2-0.2-0.3-0.4-0.5-0.6c-0.3-0.2-0.6-0.4-0.9-0.6
		c-0.2-0.1-0.4,0-0.6,0.1c-0.8,0.4-1.5,0.8-2.3,1.1c-1.7,0.8-3.4,1.6-5,2.4c-1.5,0.7-3,1.5-4.4,2.3c-1,0.5-2,1.1-2.9,1.6
		c-0.8,0.4-1.6,1-2.5,1.3c-2,0.7-3.8,1.9-5.2,3.5c-0.6,0.7-1,1.5-0.9,2.5c0,0.6,0.1,1.2,0.2,1.9c0.1,0.9,0.1,1.8,0.1,2.7
		c0,0.5,0.1,0.9,0.4,1.3c0.1,0.1,0.1,0.2,0.2,0.2c0-0.1,0.1-0.2,0.1-0.3c-0.1-0.6-0.3-1.2-0.3-1.8c-0.1-1,0-1.9,0-2.9
		c0-0.1,0.3-0.3,0.4-0.4c0,0.1,0,0.2,0,0.3c0,0.1,0.1,0.1,0.1,0.1c0.2,0.4,0.4,0.9,0.6,1.3c0.3,0.8,0.8,1.4,1.3,2
		c0.1,0.2,0.4,0.3,0.4,0.5c0.1,0.2,0,0.5-0.1,0.7c-0.2,0.5-0.7,0.8-1.2,0.9c-0.4,0.1-0.6,0.2-0.6,0.7c0.1,0.5,0.1,1,0.2,1.5
		c0,0.1-0.1,0.3-0.2,0.3c-0.4,0.2-0.6,0.5-0.3,0.9c0.3,0.3,0.1,0.6-0.1,0.7c-0.4,0.3-0.7,0.7-1.2,0.8c-1,0.3-1.8,0-2.7-0.5
		c-0.3-0.2-0.8-0.4-0.9-0.7c-0.1-0.6-0.1-1.3,0-2c0-0.1,0.1-0.3,0.2-0.4c0.2-0.4,0.4-0.8,0.4-1.2c0-0.4-0.3-0.6-0.7-0.6
		c0,0,0,0-0.1-0.1c-0.7-0.4-0.8-1.1-0.8-1.8c0-0.4,0.1-0.6,0.5-0.7c0.7-0.2,0.7-0.3,0.7-1c0-0.4,0.1-0.8,0.1-1.3
		c0-0.5,0.2-1-0.2-1.3c-0.6-0.5-1.3-0.9-2.1-1.3c-0.7-0.3-1.4-0.5-2.2-0.8c-0.4-0.2-0.8-0.5-1.2-0.6c-1.4-0.5-2.8-1.2-4.1-2
		c-2.1-1.3-4.3-2.5-6.5-3.7c-1.8-1-3.7-1.9-5.5-2.8c-0.9-0.5-1.8-1-2.6-1.5c-0.3-0.2-0.5-0.2-0.8,0.1c-0.3,0.4-0.6,0.7-0.9,1.1
		c-0.1,0.2-0.2,0.4-0.2,0.6c0,0.1,0.3,0.2,0.4,0.3c0.1,0,0.1,0.1,0.2,0.1c-0.1,0-0.1,0.1-0.2,0.1c-0.4,0-0.4,0.2-0.4,0.5
		c0.3,1.2,0.7,2.5,0.6,3.8c0,0.1,0.1,0.1,0.1,0.2c0-0.1,0.1-0.1,0.1-0.2c0.1-0.3,0.2-0.6,0.3-0.9c0,0,0-0.1,0-0.1c0,0,0,0,0.1,0.1
		c0,0.2,0.2,0.4,0.1,0.6c-0.3,0.6,0.1,1.1,0.3,1.3c0.3,0.4,0.1,0.7,0.1,1c0,0.5-0.5,0.6-0.7,0.9c-0.3,0.4-0.6,0.4-0.9,0
		c-0.4-0.6-0.8-1.1-1.3-1.7c-0.1-0.1-0.3-0.2-0.4-0.2c-0.9,0.2-0.9,0.2-1.5,0c0,0-0.1,0-0.1,0c-0.4,0-0.7-0.1-1.1-0.1
		c-0.8,0-1.5-0.5-1.7-1.2c0-0.2-0.1-0.3-0.1-0.5c-0.1,0.1-0.2,0.3-0.3,0.4c-0.3,0.7-1.1,1.2-0.7,2.1c0,0.1,0,0.1-0.1,0.2
		c-0.1,0.4,0,0.8,0.3,1.1c0.2,0.2,0.4,0.4,0.6,0.6c0.3,0.3,0.5,0.7,0.8,0.9c0.8,0.6,1.5,1.3,2.4,1.8c1.2,0.7,2.5,1.2,3.8,1.8
		c0.8,0.3,1.6,0.6,2.3,1c0.7,0.3,1.4,0.6,2.2,1c0.4,0.2,0.8,0.6,1.2,0.7c1.3,0.6,2.7,1,4,1.7c1.7,0.8,3.3,1.5,5.1,2.2
		c2.1,0.8,4,1.7,6.1,2.4c2.2,0.7,4.4,1.6,6.5,2.5c0.5,0.2,0.5,0.2,0.6-0.3c0-0.2,0.2-0.3,0.3-0.4c0,0,0.2,0.1,0.3,0.2
		c0.3,0.4,0.6,0.8,0.8,1.2c0.1,0.3,0.3,0.3,0.5,0.2c0.9-0.5,1.7-1.1,2.6-1.6c0.2-0.1,0.4-0.3,0.6-0.3c0.8,0,1.3-0.5,1.9-0.8
		c0.9-0.5,1.9-1,2.8-1.5c0.7-0.4,1.4-0.7,2-1.1c0.7-0.5,1.3-1.1,2-1.6c1.5-0.9,3-1.8,4.5-2.6c1.2-0.7,2.4-1.3,3.6-2
		c1.7-1.1,3.4-2.4,5.1-3.6c0.9-0.6,1.4-1.6,2.5-2c0.1,0,0.2-0.1,0.3-0.2c0,0,0.1-0.1,0.1-0.2c-0.1,0-0.1,0-0.2,0
		c-0.2,0-0.5,0.1-0.7,0c-0.8-0.3-0.9-1.1-0.2-1.7c0.1-0.1,0.1-0.2,0.1-0.4c0-0.5,0.1-0.9,0.1-1.4c0-0.4,0-0.6-0.5-0.7
		c-0.2,0-0.3-0.2-0.5-0.3c-0.2-0.2-0.4-0.5-0.6-0.8c-0.2-0.2-0.4-0.5-0.4-0.7c-0.1-0.2-0.1-0.6,0-0.8c0.1-0.3,0.4-0.3,0.7-0.2
		c0.2,0,0.5,0.1,0.5-0.2c0.1-0.8,0.2-1.6,0.3-2.4c0-0.2-0.1-0.4-0.3-0.4c-0.6-0.2-1.2-0.4-1.8-0.7c-0.1,0-0.2,0-0.3-0.1
		c0,0.1,0,0.3,0.1,0.3c0.4,0.2,0.8,0.5,1.1,0.7c0.1,0.1,0.2,0.2,0.3,0.3c-0.1,0-0.3,0.1-0.4,0C65.6,101.8,65.1,101.4,64.7,101.1
		 M35,98.6c0-0.3-0.1-0.6-0.1-0.9c0-1.1-0.1-2.2-0.1-3.3c0-0.8-0.1-1.5-0.1-2.3c-0.1-1.4-0.1-2.9-0.2-4.3c0-0.2-0.1-0.4-0.3-0.5
		c-0.8-0.4-1.5-0.8-2.2-1.2c-1.4-0.9-3-1.6-4.6-2.2c-1.3-0.5-2.5-1-3.8-1.6c-1.2-0.6-2.4-1.2-3.6-1.8c-1.4-0.7-2.6-1.7-4.1-2.2
		c-1-0.4-1.9-1-2.9-1.5c-1-0.5-2-1.1-3-1.6c-0.7-0.3-1.4-0.7-2-1c-0.3-0.2-0.6-0.3-0.9-0.5c0,0-0.2,0.1-0.2,0.1c0,0.7-0.1,1.3-0.1,2
		c0,2.1,0.1,4.1,0.1,6.2c0,0,0,0.1,0,0.1c0.3,1.4,0.4,2.8,0.4,4.2c0,0.1,0,0.2,0.1,0.3c0.1,0.7,0.2,1.4,0.3,2.1
		c0.1,0.4,0.1,0.9,0.1,1.4c0.1,1,0.3,2,0.4,3c0.1,0.7,0.1,1.4,0.2,2.1c0.1,1.1,0.2,2.3,0.4,3.4c0,0.4,0.1,0.8,0.5,1
		c0.1,0,0.2,0.3,0.3,0.4c0.1,0.1,0.2,0.3,0.4,0.4c0.7,0.4,1.5,0.6,2.3,1c2.1,1.1,4.1,2.3,6.2,3.4c0.8,0.4,1.6,0.7,2.3,1.2
		c1.7,0.9,3.4,1.9,5,2.8c1,0.6,2.2,0.9,3,1.9c0,0,0.1,0.1,0.2,0.1c0.8,0.3,1.6,0.6,2.4,1c0.8,0.3,1.7,0.7,2.5,1
		c0.6,0.2,1.1,0.5,1.6,0.7c0.1,0,0.2,0.1,0.3,0.1c0-0.1,0.1-0.2,0.1-0.3c-0.1-0.8-0.1-1.7-0.2-2.5c0-0.8,0-1.6,0-2.4
		c0-0.9-0.2-1.7-0.3-2.6c-0.1-1.2-0.3-2.5-0.4-3.7C35.1,100.9,35.1,99.8,35,98.6 M68.8,82.2c0,0.5-0.1,0.9-0.1,1.4
		c-0.1,1.3-0.2,2.6-0.2,3.9c0,1.2,0.1,2.4,0.2,3.5c0,1.2,0,2.4,0,3.7c0,0.2-0.1,0.5-0.1,0.7c0,0.6,0.1,1.1,0.1,1.7
		c0,0.8-0.1,1.7-0.1,2.5c0.1,1.2,0.1,2.3-0.1,3.5c-0.1,0.4-0.1,0.9-0.1,1.3c0,0.2,0,0.5-0.1,0.7c0,0.1,0,0.1-0.1,0.2
		c0-0.1,0-0.1,0-0.2c0-0.4-0.1-0.7-0.1-1.1c0-0.1-0.1-0.2-0.2-0.2c0,0.1-0.1,0.2-0.1,0.2c0,0.3-0.1,0.5-0.1,0.8c0,0.6,0,1.3,0,1.9
		c0,0.1,0.2,0.2,0.2,0.4c0-0.1,0.1-0.2,0.1-0.4c0-0.1,0.1-0.2,0.1-0.3c0-0.1,0-0.2,0-0.3c0,0.1,0.1,0.2,0.1,0.3
		c0.2,0.5,0.3,1,0.5,1.5c0.1,0.2,0.2,0.4-0.2,0.4c-0.1,0-0.2,0.1-0.1,0.2c0,0.2,0.1,0.5,0.2,0.7c0.2,0.4,0.1,0.6-0.3,0.7
		c-0.4,0.1-0.5,0.4-0.5,0.8c0,0.1,0.1,0.1,0.1,0.1c0.6,0,1.4-0.6,1.6-1.2c0.2-0.5,0.5-0.9,1.1-0.9c0.5,0,0.9,0,1.4-0.1
		c0.2,0,0.3-0.1,0.5-0.2c0,0,0.1-0.1,0.1-0.1c-0.1,0-0.1,0-0.2,0c-0.2,0-0.5,0.1-0.7,0c-0.2-0.1-0.4-0.3-0.6-0.4
		c-0.6-0.3-0.9-0.7-0.8-1.3c0.1-0.3-0.1-0.4-0.3-0.6c-0.2-0.2-0.3-0.4-0.5-0.6c-0.1-0.3-0.2-0.5-0.3-0.8c0-0.1,0-0.2,0-0.2
		c0.1,0,0.2-0.1,0.2,0c0.1,0,0.1,0.1,0.1,0.2c0,0.2,0,0.5,0,0.7c0,0.1,0.1,0.2,0.1,0.3c0-0.1,0.1-0.2,0.1-0.3
		c0.1-1.4,0.2-2.8,0.2-4.1c0.1-2.4,0.1-4.9,0.1-7.3c0-0.3-0.1-0.6-0.1-0.9c0-0.7,0.2-1.4,0.2-2.1c0-1.7-0.1-3.3-0.1-5
		c0-1.3,0-2.6,0.1-3.9c0-1,0.2-2,0.3-2.9c0.1-1.1,0.1-2.3,0.2-3.4c0.1-0.9,0.1-1.7,0.2-2.6c0.1-1.2,0.3-2.4,0.4-3.6
		c0.1-1.6,0.1-3.3,0.2-4.9c0-1.4,0.1-2.8,0.1-4.2c0-0.2,0-0.5,0-0.7c0.1-0.9,0.1-1.8,0.2-2.7c0-0.7,0-1.5,0-2.2c0-0.2,0-0.4-0.1-0.5
		c-0.2-0.2-0.1-0.3-0.1-0.5c0.1-0.3,0.1-0.6,0.1-0.9c0-1-0.1-2-0.1-2.9c0-0.7,0.1-1.3,0.1-2c0-0.5-0.1-1.1-0.1-1.6
		c0-1.3,0.1-2.6,0.2-4c0.2-1.3,0.1-2.6,0.1-3.9c0-1.6,0-3.2,0-4.8c0-0.3-0.1-0.6-0.1-0.8c0-0.6,0-1.2,0-1.8
		c-0.1-1.2-0.2-2.3-0.4-3.5c-0.1-0.6,0-1.2-0.1-1.8c-0.1-0.5,0.1-1.1-0.4-1.4C71,24.2,71,24.1,71,24c-0.2-0.9-0.4-1.8-0.7-2.7
		c-0.2-0.7-0.4-1.4-0.5-2c-0.1-0.4-0.7-0.6-0.3-1.1c0,0-0.1-0.1-0.1-0.1c-0.5-1-0.9-2-1.5-3c-0.9-1.7-1.8-3.3-3.3-4.5
		c-0.5-0.4-1.1-0.9-1.7-1.2C61.9,8.8,61,8.4,60,8c-1.2-0.5-2.3-0.8-3.6-0.7c-0.1,0-0.2,0-0.3,0c-0.4,0-0.8,0-1.2,0
		c-0.1,0-0.2,0.1-0.2,0.1c0.1,0,0.2,0.1,0.3,0.1c0.5,0.1,0.9,0.3,1.4,0.4c0.1,0,0.1,0.1,0.2,0.2c-0.1,0.1-0.2,0.2-0.3,0.1
		C55.6,8.2,55,8.1,54.4,8c-0.9-0.2-1.7-0.6-2.7-0.3c-1.2,0.4-2.3,0.7-3.3,1.3c-1.2,0.7-2.2,1.7-3.2,2.7c-1.1,1.1-2.3,2.2-3.4,3.3
		c-0.4,0.4-0.7,0.8-1,1.2c-0.6,0.7-1.1,1.4-1.6,2.2c-0.7,1.1-1.5,2.2-2.2,3.4c-0.5,1-0.9,2-1.4,3c-0.4,0.8-0.7,1.6-1,2.5
		c-0.5,1.4-0.9,2.9-1.2,4.4c-0.2,0.8-0.3,1.7-0.4,2.6c-0.1,0.6,0,1.3-0.2,1.8c-0.3,1-0.2,2.1-0.3,3.1c-0.1,0.7,0,1.5,0.1,2.2
		c0.1,1.7,0.1,3.3,0.2,5c0,0.3,0,0.7,0.1,1c0.1,1.2,0.3,2.3,0.5,3.5c0,0.3,0.1,0.6,0.1,1c0.1,0.6,0.2,1.1,0.2,1.7
		c0,0.2-0.1,0.4-0.1,0.6c0.1,0.7,0.2,1.4,0.3,2.1c0,0.4,0,0.9,0.3,1.2c0,0,0,0.2,0,0.3c-0.4-0.1-0.3,0.2-0.3,0.4c0,0.6,0,1.3,0,1.9
		c0,0.3,0.1,0.5,0.4,0.6c0.1,0.1,0.2,0.2,0.4,0.3c-0.2,0.1-0.3,0.1-0.5,0.2c-0.1,0-0.3,0.1-0.3,0.2c0,0.3,0,0.6,0,0.9
		c0,0.7,0.1,1.4,0.1,2.1c0,2.1,0.1,4.1,0.3,6.2c0.1,1.4,0.1,2.8,0.1,4.2c0,0.5,0,1.1,0.1,1.6c0.1,1.1,0.3,2.2,0.5,3.3
		c0.1,1.1,0.2,2.3,0.3,3.4c0.1,0.9,0.1,1.8,0.2,2.7c0,0.1,0,0.1,0,0.2c0.4,1.6,0.4,3.3,0.5,5c0.1,0.9,0.1,1.8,0.1,2.7
		c0,1.1,0.1,2.1,0.1,3.2c0,0.9,0,1.8,0.1,2.6c0,0.9,0.1,1.8,0.2,2.7c0.1,1.5,0.3,3,0.4,4.5c0.1,1.1,0.1,2.2,0.2,3.3
		c0,1.2,0.1,2.3,0.1,3.5c0,0.1,0,0.2,0,0.4c0,1.1,0.1,2.1,0.1,3.2c0,0.7,0.1,1.4,0.1,2.1c0,0,0,0,0,0.1c0.4,0.6,0.4,1.1,0.1,1.8
		c-0.2,0.3-0.2,0.7,0.1,1c0,0.1,0.1,0.2,0,0.2c-0.5,0.5-0.2,1,0,1.3c0.5,0.7,1.1,1.3,1.6,1.9c0.2,0.2,0.4,0.2,0.6-0.1
		c0.3-0.5,0.4-1.1,0.4-1.7c0-0.4,0-0.9,0-1.3c0-0.5-0.3-0.4-0.5-0.1c-0.2,0.2-0.3,0.1-0.4-0.1c0-0.2-0.1-0.5-0.1-0.7
		c0-0.2,0-0.3-0.3-0.2c-0.1,0-0.2,0.1-0.3,0.1c-0.2,0.1-0.5,0.2-0.6,0c-0.1-0.3,0.2-0.3,0.5-0.4c0.5-0.2,0.7-0.4,0.5-1
		c0-0.1,0-0.1,0-0.2c-0.1-1.3-0.1-2.5-0.2-3.8c-0.1-1.1-0.1-2.1-0.2-3.2c-0.1-2-0.2-4-0.3-6c0-0.9-0.1-1.8-0.1-2.7
		c0-1.3-0.1-2.6-0.1-3.9c0-0.5,0.1-1.1,0.1-1.6c0-0.7-0.1-1.5-0.1-2.2c-0.1-1.7-0.1-3.4-0.2-5.1c0-0.1,0-0.2,0-0.3
		c-0.1-1.1-0.3-2.2-0.4-3.3c-0.1-1.4-0.3-2.8-0.3-4.2c0-1.6-0.1-3.1-0.3-4.7c-0.1-0.7-0.1-1.4-0.2-2.1c-0.1-1.4-0.2-2.8-0.3-4.1
		c-0.1-2.9-0.1-5.8-0.1-8.6c0-1.3-0.1-2.5-0.2-3.8c0-0.9-0.1-1.7-0.1-2.6c0-1-0.1-1.9-0.2-2.9c0-0.5,0-0.9-0.1-1.4
		c-0.1-1-0.3-1.9-0.4-2.9c-0.1-0.4-0.1-0.9-0.1-1.3c-0.1-1.4-0.3-2.8-0.4-4.2c0-1.2,0-2.4,0.1-3.5c0-0.3,0.1-0.7,0.1-1
		c0-0.5,0-1-0.1-1.5c0-0.4-0.1-0.8,0-1.1c0.2-0.9,0.4-1.8,0.6-2.7c0.1-0.6,0.1-1.2,0.2-1.8c0.5-1.9,1.1-3.7,1.7-5.5
		c0.6-2.1,1.6-4.1,2.6-6c0.9-1.7,2-3.3,3.3-4.7c1-1.1,2.1-2.2,3.2-3.1c0.8-0.7,1.7-1.3,2.6-1.8c1.1-0.7,2.2-1.1,3.5-1.2
		c0.7-0.1,1.4-0.2,2.1-0.3c0.5,0,0.9,0.1,1.4,0.2c0.9,0.2,1.8,0.3,2.6,0.5c0.9,0.3,1.7,0.7,2.5,1c0.5,0.1,0.6,0.5,0.9,0.8
		c0.9,0.8,1.8,1.7,2.7,2.5c1,1,1.7,2.2,2.4,3.4c0.7,1.3,1.2,2.8,1.7,4.2c0.3,0.7,0.3,1.6,0.5,2.4c0.2,0.9,0.4,1.8,0.4,2.7
		c0.1,1.7,0.2,3.4,0.2,5.2c0,2.1,0,4.1,0,6.2c0,0.9-0.1,1.9-0.1,2.8c0,1.8-0.1,3.6-0.1,5.3c0,0.5,0,1.1-0.1,1.6
		c-0.2,1.1-0.4,2.3-0.3,3.4c0.1,1,0.1,2,0.1,2.9c0,1.2,0.1,2.3,0.1,3.5c0,0.9,0.1,1.8,0.1,2.7c0,1.8,0.1,3.6,0.1,5.3
		c0,1.8,0,3.7-0.1,5.5c0,0.8-0.1,1.6-0.2,2.3c-0.1,1.3-0.1,2.5-0.2,3.8c0,0.1,0,0.3,0,0.4c-0.3,0.9-0.4,1.8-0.4,2.8
		C68.9,81.8,68.9,82,68.8,82.2 M33.1,64.9c0-0.6-0.1-1.2-0.1-1.8c0-0.3,0.1-0.6-0.3-0.8c-0.1,0-0.1-0.3-0.1-0.4
		c0.2-0.3,0.1-0.6-0.1-0.8c-0.1-0.1-0.1-0.2-0.2-0.3c0.1,0,0.3,0.1,0.4,0.1c0.1,0,0.2,0,0.2,0c0-0.1-0.1-0.2-0.1-0.2
		c-0.1-0.1-0.2-0.1-0.3-0.1c-0.4-0.1-0.9-0.2-1.3-0.4c-1.8-0.6-3.6-1.2-5.4-1.9c-0.9-0.3-1.8-0.6-2.7-1.1c-1.9-1-3.9-1.7-5.9-2.4
		c-1.7-0.6-3.4-1.2-5-1.9c-2.1-0.9-4.2-2-6.3-3c-0.2-0.1-0.5-0.1-0.7-0.2c0,0.2,0.1,0.3,0.1,0.5c0.1,1.4,0.2,2.7,0.3,4.1
		c0,0.7,0.1,1.3,0.1,2c0,1,0.1,2,0.1,3.1c0,0.1,0,0.2,0,0.3c0.1,1.3,0.2,2.6,0.4,4c0.1,1,0.2,1.9,0.3,2.9c0,0.1,0.2,0.3,0.3,0.3
		c0.4,0.1,0.9,0.1,1.4,0.2c0.8,0.2,1.6,0.4,2.3,0.8c1.4,0.7,2.8,1.6,4.2,2.4c1.3,0.7,2.5,1.3,3.8,2c1.6,0.8,3.2,1.6,4.8,2.3
		c2,0.9,3.7,2.2,5.5,3.4c0.3,0.2,0.6,0.5,1,0.6c0.8,0.3,1.7,0.6,2.6,0.8c0.4,0.1,0.8,0.3,1.3,0.5c0.1,0,0.2,0,0.3,0
		c0-0.1-0.1-0.2-0.1-0.3c-0.1-0.3-0.3-0.5-0.3-0.8c-0.1-1.5-0.1-2.9-0.2-4.4c-0.1-1.5-0.1-3.1-0.2-4.6c0-1.2-0.1-2.4-0.1-3.6
		C33.1,65.8,33.1,65.4,33.1,64.9 M45.4,8.5c0.2-0.2,0.5-0.4,0.7-0.6c0.7-0.5,1.5-0.9,2.2-1.4c0.1-0.1,0.2-0.2,0.3-0.2
		c-0.1-0.1-0.2-0.2-0.3-0.2c-0.5-0.1-1.1-0.2-1.6-0.3c-1.1-0.2-2.2-0.5-3.4-0.7c-0.9-0.2-1.7-0.3-2.6-0.5c-0.6-0.1-1.1-0.1-1.7-0.2
		c-0.9-0.2-1.8-0.4-2.7-0.5c-1.3-0.1-2.4-0.7-3.6-1c-0.3-0.1-0.7-0.2-1-0.2c-0.6,0-1.2,0.2-1.7,0.3c-1.2,0.2-2.4,0.5-3.6,0.7
		c-1.6,0.4-3.2,0.8-4.6,1.6c-0.7,0.4-1.4,0.8-2,1.2C18.9,7,18,7.4,17.3,7.9c-0.5,0.3-0.9,0.8-1.3,1.3c-0.1,0.1-0.1,0.2,0.1,0.2
		c0.2,0,0.5-0.1,0.7-0.1c0.8,0.1,1.7,0.3,2.5,0.4c1.3,0.1,2.5,0.2,3.8,0.3c0.8,0.1,1.6,0.2,2.3,0.3c1.3,0.2,2.6,0.5,3.9,0.6
		c1,0.1,2,0.1,3,0.2c0.6,0,1.1,0.2,1.7,0.3c1.1,0.2,2.1,0.5,3.2,0.6c1.3,0.2,2.6,0.6,3.9,1.1c0.4,0.2,0.8,0.3,1.2,0
		c0.5-0.4,0.9-0.8,1.3-1.2c0.9-0.8,1.8-1.7,2.8-2.5c1.1-0.9,2.3-1.5,3.7-1.8c0.3-0.1,0.6-0.2,0.9-0.3c0,0,0.1-0.1,0.1-0.2
		c-0.4-0.1-0.8-0.3-1.1-0.2c-1.6,0.4-2.9,1.5-4.2,2.5c-0.6,0.4-1.2,0.7-1.8,1c-0.1,0-0.2,0-0.2,0c0-0.1,0-0.1,0.1-0.2
		C44.4,9.6,44.8,9.1,45.4,8.5 M6.6,47.8c-0.3-0.2-0.6-0.3-0.9-0.5c-0.4-0.2-0.5-0.1-0.5,0.3c0,0.4,0.1,0.7,0.3,1.1
		C5.7,49,5.8,49.3,6,49.5c0.5,0.3,1,0.4,1.5,0.6c1.4,0.7,2.8,1.4,4.1,2.1c0.8,0.4,1.6,0.8,2.4,1.1c1.2,0.5,2.5,0.8,3.7,1.2
		c1.5,0.5,3,1,4.3,1.7c1.9,0.9,3.9,1.7,5.9,2.4c1.5,0.5,3,1,4.5,1.5c0.3,0.1,0.5,0.1,0.5-0.3c0-0.8,0-1.5,0-2.3
		c0-0.3-0.2-0.6-0.4-0.7c-0.8-0.4-1.7-0.8-2.6-1.1c-2-0.7-4-1.4-5.9-2.1c-1.9-0.7-3.7-1.4-5.6-2c-2.6-0.8-5.3-1.6-7.9-2.4
		C9.2,48.8,8,48.3,6.6,47.8 M5.6,90.5c0,0.2,0.1,0.4,0.1,0.6c0.1,1.5,0.1,2.9,0.2,4.4c0,0.1,0,0.2,0,0.3C6,97,6.1,98.2,6.2,99.4
		c0,0.5-0.1,1.1,0,1.6c0.1,0.8,0.3,1.7,0.5,2.5c0.4,1.4,0.6,2.9,0.8,4.4c0,0.1,0.1,0.3,0.2,0.4c0.3,0.1,0.7,0.1,0.7,0.6
		c0,0.1,0.3,0.1,0.4,0.3c0.2,0.2,0.4,0.5,0.6,0.8c0.1,0.1,0.2,0.1,0.2,0.2c0-0.1,0-0.2,0-0.3c0-0.5-0.1-1-0.1-1.4
		c0-0.3-0.1-0.5-0.4-0.4c-0.4,0.1-0.6-0.2-0.6-0.5c-0.2-1.3-0.3-2.6-0.5-3.9c-0.1-1-0.1-2-0.2-3.1c-0.1-0.9-0.2-1.9-0.3-2.8
		c-0.1-1.4-0.3-2.8-0.5-4.2c-0.1-1-0.2-2-0.3-2.9c0-1.4-0.2-2.8-0.4-4.2c-0.2-1.5-0.3-3-0.3-4.5c-0.1-2.1-0.1-4.2-0.1-6.3
		c0-0.6,0-1.3,0.1-1.9c0.1-0.6-0.2-0.8-0.6-1.1c-0.3-0.1-0.6-0.3-0.9-0.3c-0.2,0-0.5,0-0.5,0c-0.1,0.3-0.2,0.7-0.2,1
		c0.1,0.9,0.2,1.8,0.3,2.7c0.1,0.5,0.1,1,0.1,1.5c0.1,1.2,0.2,2.4,0.4,3.6c0,0.4,0.1,0.8,0.1,1.2c0.1,1.3,0.3,2.6,0.4,3.8
		C5.5,87.5,5.5,89,5.6,90.5 M4.1,32c-0.1,1.1-0.1,2.2-0.2,3.4c0,0.8,0,1.5,0,2.3c0,0.5-0.1,1.1-0.1,1.6c0,0.3-0.1,0.6-0.1,0.9
		c0,0.6,0.1,1.2,0.2,1.7c0,0.5,0,1,0,1.5c0,0.3,0,0.7,0,1c0,0,0.1,0.1,0.1,0.1c0,0,0.1,0,0.1,0c0.1-0.5,0.6-0.7,0.5-1.3
		c-0.1-0.2-0.1-0.4-0.1-0.6c0-0.9-0.1-1.9-0.1-2.8c0-0.3-0.1-0.6-0.1-0.9c0-0.4-0.1-0.8-0.1-1.2c0-0.5,0.1-1.1,0.2-1.6
		c0.1-1,0.1-2,0.1-3c0-1,0.1-2,0.2-3c0.2-1.2,0.4-2.5,0.7-3.7c0.3-1.5,0.7-2.9,1.1-4.4c0.4-1.3,0.8-2.7,1.3-3.9
		c0.5-1.1,1.2-2.2,2-3.2c0.7-0.9,1.4-1.8,2.2-2.7c1-1.1,2-2.3,3.1-3.4c0.5-0.5,1-0.9,1.5-1.3c0.9-0.7,1.9-1.3,2.9-1.8
		c1.1-0.6,2.1-1.2,3.3-1.6c1.4-0.5,2.8-0.8,4.2-1.2c0.6-0.2,1.2-0.2,1.9-0.3c0.2,0,0.5-0.1,0.7-0.1c0.1,0,0.1-0.1,0.2-0.2
		c-0.1,0-0.2-0.1-0.2-0.1c-0.3,0-0.7,0-1,0c-0.6,0-1.3,0-1.9,0.1c-1.2,0.3-2.3,0.7-3.4,1.1c-0.9,0.3-1.9,0.6-2.8,1.1
		c-2,1-4,2.2-6,3.3c-0.4,0.2-0.8,0.6-1.1,0.9c-0.2,0.2-0.4,0.6-0.6,0.8c-0.2,0.2-0.5,0.4-0.7,0.7C12,10.3,12,10.6,12,10.7
		c-0.3-0.3-0.5,0-0.6,0.2c-0.6,0.7-1.2,1.4-1.7,2.1c-0.7,1-1.4,2-1.9,3.1C7,17.7,6.6,19.3,6,20.8c-0.2,0.6-0.5,1.3-0.6,1.9
		c-0.2,1-0.4,2.1-0.6,3.1c-0.1,0.9-0.2,1.9-0.4,2.8c-0.1,0.5-0.2,1.1-0.2,1.6C4.1,30.9,4.1,31.4,4.1,32 M21,51.9
		c0.5,0.2,1.1,0.4,1.6,0.6c1.3,0.5,2.7,1.1,4,1.6c1.9,0.7,3.8,1.4,5.6,2c0.2,0.1,0.3,0.1,0.5,0.2c-0.1-0.2-0.1-0.4-0.2-0.6
		c0-0.1-0.2-0.1-0.3-0.2c-1.2-0.8-2.5-1.3-3.9-1.7c-1.6-0.5-3.2-1.1-4.8-1.7c-1.1-0.4-2.3-0.8-3.5-1c-1.5-0.4-3-0.9-4.4-1.5
		c-0.6-0.2-1-0.6-1.6-0.9c-1.1-0.5-2.3-1-3.4-1.5c-1.8-0.7-3.7-1.5-5.5-2.2c0,0-0.1,0-0.1,0c0,0,0,0.1,0,0.1
		c0.5,0.4,0.1,0.9,0.2,1.3c0,0.1,0.1,0.4,0.2,0.4c0.8,0.4,1.6,0.9,2.5,1.2c2.1,0.7,4.2,1.3,6.3,2C16.5,50.5,18.7,51.2,21,51.9
		 M20.8,74.7c0.1,0,0.1,0,0.2,0c1.3,0.6,2.7,1.2,4,1.8c0.1,0.1,0.3,0.1,0.5,0.1c-0.1-0.1-0.2-0.3-0.3-0.3c-0.8-0.4-1.6-0.9-2.4-1.3
		c-1.1-0.5-2.2-1-3.3-1.5c-2.1-1.1-4.2-2.2-6.3-3.3c-0.9-0.5-1.8-1-2.7-1.5c-1.1-0.8-2.3-1.3-3.7-1.3c-0.1,0-0.2,0-0.3,0
		c0.1,0.1,0.1,0.2,0.2,0.2C7,67.7,7.3,67.8,7.6,68c1.6,0.9,3.2,1.9,4.8,2.7c1.1,0.6,2.1,1.1,3.2,1.6C17.4,73.1,19.1,73.9,20.8,74.7
		 M22,80.7c0,0,0.1,0,0.1,0c1.3,0.6,2.5,1.4,3.9,1.9c1.5,0.5,3,1.2,4.4,1.8c0.8,0.3,1.5,0.8,2.2,1.2c0.2,0.1,0.3,0.1,0.5,0.2
		c-0.1-0.1-0.2-0.3-0.4-0.4c-0.8-0.5-1.6-1-2.4-1.4c-1.5-0.9-3-1.8-4.6-2.6c-0.9-0.5-1.7-0.9-2.6-1.2c-2.5-1-4.9-2-7.4-3
		c-0.1,0-0.2,0-0.3-0.1c0.1,0.1,0.1,0.2,0.2,0.2c0.7,0.4,1.5,0.7,2.2,1.1C19.3,79.2,20.6,79.9,22,80.7 M5.4,72
		c0.3,0.2,0.7,0.3,1,0.5c1,0.6,2,1.2,3,1.7c0.7,0.4,1.4,0.7,2.2,1.1c1,0.5,2,1.1,3,1.6c0.1,0,0.2,0,0.3,0c-0.1-0.1-0.1-0.2-0.2-0.2
		c-0.1-0.1-0.2-0.2-0.3-0.2c-1.8-1.1-3.6-2.2-5.5-3.2c-1.5-0.8-3-1.6-4.5-2.4c-0.1,0-0.2-0.1-0.3-0.1c-0.2,0.1-0.4,0.2-0.6,0.3
		c0.1,0.1,0.2,0.3,0.3,0.4C4.4,71.6,4.9,71.8,5.4,72 M67.5,99.6c0-0.2-0.1-0.3-0.1-0.5c0-0.7-0.2-0.8-0.9-0.6
		c-0.3,0.1-0.5,0.2-0.8,0.3c-0.1,0-0.2,0.1-0.2,0.2c-0.1,0.5-0.5,0.5-0.8,0.6c-0.3,0.1-0.6,0.1-0.9,0.2c-0.1,0-0.2,0-0.3,0
		c0.1,0.1,0.1,0.2,0.2,0.2c1,0.4,2.1,0.9,3.1,1.3c0.3,0.1,0.5,0,0.5-0.4C67.4,100.4,67.4,100,67.5,99.6 M4.8,53.9
		c0-0.4,0-0.8-0.1-1.2c-0.1-0.9-0.2-1.7-0.4-2.6c0-0.1-0.1-0.1-0.1-0.2c0,0.1-0.1,0.1-0.1,0.2c0,0.7-0.1,1.4-0.1,2.1
		c0.1,0.8,0.2,1.6,0.1,2.4c0,0.2,0,0.3,0,0.5c0.1,1,0.2,1.9,0.4,2.9c0.1,0.5,0.1,1,0.2,1.4c0,0,0.1,0.1,0.1,0.1c0,0,0.1-0.1,0.1-0.1
		c0-0.4,0-0.8,0-1.2c0-0.7-0.1-1.4-0.1-2.1C4.8,55.3,4.8,54.6,4.8,53.9 M6.2,107.9c-0.1,0-0.1-0.1-0.2-0.1c-0.4-0.3-1-0.5-0.7-1.2
		c0,0-0.1-0.1-0.1-0.1c-0.2,0.2-0.6,0.4-0.7,0.6c-0.2,1.1,0.6,2,1.7,2c0.7,0,0.8-0.1,0.5-0.7C6.7,108.2,6.4,108.1,6.2,107.9
		 M40.6,119.3c0.1,0.4,0.1,0.8,0.2,1.2c0,0.1,0.1,0.3,0.2,0.3c0.2,0,0.6,0,0.7-0.2c0.2-0.2,0.5-0.5,0.2-0.9c-0.5-0.8-1-1.7-1.2-2.7
		c0-0.1-0.1-0.1-0.1-0.2c0,0.1-0.1,0.2-0.1,0.2C40.5,117.8,40.6,118.5,40.6,119.3 M8.9,100.8c0,0.3,0,0.6,0,1c0,0.2,0,0.4,0.1,0.5
		c0.1,0.3,0.5,0.5,0.7,0.3c0.2-0.3,0.5-0.6,0.7-1c0-0.1,0-0.3-0.1-0.3C9.9,101.2,9.4,101,8.9,100.8 M38.2,126c0.1,0,0.2,0,0.3,0
		c-0.1-0.1-0.1-0.2-0.2-0.3c-0.2-0.2-0.4-0.3-0.5-0.4c-0.3-0.4-0.6-0.9-1-1.3c-0.1-0.1-0.2-0.2-0.3-0.3c0,0.1-0.1,0.2-0.1,0.3
		c0,0.8,0.2,1.5,1.1,1.7C37.8,125.8,37.9,125.9,38.2,126 M35.6,119.6c0.1,0.3,0.2,0.6,0.4,0.8c0.2,0.3,0.5,0.2,0.6-0.1
		c0.2-0.6-0.1-0.9-0.4-1.3c-0.1-0.1-0.3-0.3-0.4-0.2c-0.1,0.1-0.2,0.2-0.3,0.4C35.5,119.2,35.6,119.4,35.6,119.6 M4.3,48.8
		c0-0.4,0-0.9,0.1-1.3c0.3-0.7,0-1.3,0.1-1.9c0.1-0.4-0.3-0.1-0.4-0.2C4.1,45.4,4,45.5,4,45.6c0,0.9,0,1.8,0,2.7
		C4.1,48.5,3.9,48.8,4.3,48.8 M72.2,107.3c0.1-0.2,0.1-0.3,0.2-0.5c0-0.2,0-0.3,0-0.5c-0.2,0.1-0.3,0.1-0.5,0.2
		c-0.2,0.1-0.4,0.4-0.6,0.4c-0.4,0-0.3,0.1-0.2,0.4C71.3,107.7,71.7,107.9,72.2,107.3 M70.7,109.3c-0.2,0.2-0.4,0.5-0.6,0.7
		c-0.1,0.1-0.1,0.3-0.1,0.4c0.1,0,0.3-0.1,0.4-0.1c0.6-0.3,0.9-1,1.7-0.9c0,0,0.1-0.1,0.2-0.2c-0.1,0-0.1-0.1-0.2-0.1
		C71.6,109.2,71.2,109.2,70.7,109.3 M31.7,80.1c0.4,0.3,0.8,0.5,1.2,0.8c0.1,0.1,0.2,0.1,0.2,0.1c0.1-0.1,0.2-0.2,0.2-0.3
		c0-0.1-0.1-0.3-0.3-0.3c-0.4-0.2-0.8-0.4-1.3-0.6c-0.1,0-0.3,0.1-0.5,0.1C31.5,79.9,31.6,79.9,31.7,80.1 M73.2,107.1
		c0,0.1,0,0.2-0.1,0.3c0.1-0.1,0.2-0.1,0.2-0.2c0.1-0.3,0.2-0.7,0.3-1c0.1-0.5,0.1-0.6-0.5-0.6c-0.1,0-0.2,0.1-0.4,0.1
		c0.1,0.1,0.1,0.2,0.2,0.3C73.4,106.3,73.4,106.6,73.2,107.1 M3.1,115.7c-0.1-0.6-0.1-1.3-0.2-1.9c0-0.1-0.2-0.2-0.3-0.3
		c0,0.1,0,0.2,0,0.3c0,0.1,0,0.2,0,0.2c0.1,0.6,0.1,1.1,0.2,1.7c0,0.1,0.1,0.2,0.2,0.2C3.1,115.9,3.1,115.8,3.1,115.7 M6,107
		c0.1,0.2,0.2,0.3,0.3,0.5c0-0.2,0.1-0.4,0.1-0.6c0-0.2,0.1-0.4,0.1-0.6c0-0.1-0.2-0.3-0.2-0.3C5.9,106.1,5.7,106.6,6,107 M3.2,70.5
		c0.1,0,0.1,0,0.2,0c0.1,0,0.2,0,0.3-0.1c-0.1-0.1-0.2-0.2-0.3-0.2c-0.5-0.4-0.9-0.1-1.4,0.1c0,0-0.1,0.1-0.1,0.1
		c0.1,0,0.1,0.1,0.2,0.1C2.5,70.6,2.8,70.6,3.2,70.5 M39,136.9c0,0.1-0.1,0.2-0.1,0.3c0,0.1,0,0.2,0.1,0.3c0.2,0.2,0.5,0,0.4-0.3
		c-0.1-0.4-0.3-0.8-0.4-1.2c0,0-0.1-0.1-0.2-0.1c0,0.1-0.1,0.1,0,0.2C38.9,136.4,38.9,136.6,39,136.9 M11.1,109.6
		c-0.1-0.1-0.2-0.2-0.3-0.2c0,0.1-0.1,0.3,0,0.4c0,0.3,0.1,0.6,0.1,0.9c0,0.1,0.1,0.1,0.1,0.2c0.1-0.1,0.2-0.1,0.2-0.2
		C11.1,110.3,11.1,110,11.1,109.6 M9.5,105.2c0-0.2,0-0.4-0.1-0.5c0-0.1-0.1-0.1-0.2-0.2c0,0.1-0.1,0.1-0.1,0.2c0,0.3,0,0.6,0.1,0.9
		c0,0.2,0.1,0.3,0.2,0.5c0-0.2,0-0.3,0.1-0.5C9.5,105.4,9.5,105.3,9.5,105.2 M9.4,103.7c0-0.3-0.1-0.7-0.1-1c0,0,0-0.1-0.1-0.1
		c0,0-0.1,0-0.1,0.1C9.2,103,9.2,103.4,9.4,103.7 M54.4,7.4C54.5,7.4,54.5,7.4,54.4,7.4c-0.3-0.1-0.6-0.2-0.9-0.3c0,0,0,0.1,0,0.1
		C53.8,7.3,54.1,7.4,54.4,7.4 M66.8,105c-0.2,0.2-0.3,0.7-0.1,0.8c0,0,0.1,0,0.1,0C66.8,105.5,66.8,105.3,66.8,105 M34.1,82.9
		c0-0.2-0.1-0.4-0.1-0.6c0,0-0.1-0.1-0.2,0c0,0-0.1,0.1-0.1,0.1C33.7,82.6,33.8,82.8,34.1,82.9 M36,3.3c0.2,0,0.3,0,0.5-0.1
		c-0.2-0.1-0.3-0.2-0.5-0.2c-0.1,0-0.2,0-0.4,0C35.8,3.1,35.9,3.2,36,3.3 M35.5,37.9c0,0.1,0,0.1,0,0.2c0,0.1,0,0.1,0,0.2
		c0-0.1,0.1-0.1,0.1-0.2c0,0,0-0.1,0.1-0.2c0-0.2,0.1-0.4,0.1-0.5c0,0-0.1,0-0.1,0C35.7,37.5,35.6,37.7,35.5,37.9 M9.7,107.1
		c-0.1-0.1-0.1-0.2-0.2-0.3c0,0.1,0,0.3,0,0.4c0,0.1,0.1,0.2,0.1,0.3C9.6,107.4,9.7,107.3,9.7,107.1 M39.7,129.1c0.1,0,0.2,0,0.3,0
		c-0.1-0.1-0.2-0.2-0.3-0.3c0,0-0.1,0-0.2,0C39.6,128.9,39.6,129,39.7,129.1 M35.3,23.8c0.1-0.1,0.1-0.1,0.1-0.2c0-0.1,0-0.2,0-0.3
		c-0.1,0.1-0.1,0.1-0.2,0.2C35.2,23.6,35.2,23.7,35.3,23.8 M39.7,22.8c0,0.1,0.1,0.2,0.1,0.2c0.1-0.1,0.2-0.2,0.3-0.3
		C39.9,22.8,39.8,22.8,39.7,22.8 M11.3,36.7c-0.1,0.1-0.1,0.1-0.2,0.2c0.1,0,0.1,0.1,0.2,0.1C11.3,36.9,11.3,36.8,11.3,36.7
		 M43,12.6c0.1,0,0.2,0.1,0.2,0.1c0-0.1,0-0.2,0-0.3C43.2,12.5,43.1,12.6,43,12.6 M15.6,9.8c-0.1,0.1-0.2,0.1-0.3,0.2
		c0,0,0,0.1,0.1,0.1C15.4,10,15.5,9.9,15.6,9.8 M5.9,67.5c0-0.1-0.1-0.2-0.2-0.2c0,0-0.1,0-0.1,0.1C5.7,67.4,5.8,67.5,5.9,67.5
		 M6.9,22.3c0-0.1-0.1-0.2-0.1-0.2c0,0.1-0.1,0.2-0.1,0.3C6.7,22.3,6.8,22.3,6.9,22.3 M38.5,105.4c-0.1,0-0.1,0-0.2,0
		c0,0.1,0,0.1,0.1,0.2C38.4,105.6,38.4,105.6,38.5,105.4 M3.4,32.7c0,0-0.1-0.1-0.1-0.1c0,0.1,0,0.1-0.1,0.2
		C3.3,32.7,3.4,32.7,3.4,32.7 M35.9,37c0,0,0,0.1,0,0.1c0.1-0.1,0.1-0.2,0.2-0.2C36,36.9,35.9,36.9,35.9,37 M36.4,21.5
		c0-0.1,0-0.1,0-0.2c-0.1,0.1-0.1,0.2-0.2,0.3C36.2,21.6,36.3,21.6,36.4,21.5 M7.1,21.1c0-0.1,0-0.2,0-0.2c0,0,0-0.1-0.1-0.1
		C7.1,20.9,7,21,7.1,21.1 M3.1,119.1c0,0,0.1,0.1,0.1,0.1c0-0.1,0-0.1,0.1-0.2C3.2,119.1,3.1,119.1,3.1,119.1 M6.4,17.3
		c0-0.1,0.1-0.1,0.1-0.2c0,0-0.1-0.1-0.1-0.1C6.4,17.1,6.4,17.2,6.4,17.3 M34,27c0,0-0.1-0.1-0.1-0.1c0,0.1,0,0.2-0.1,0.2
		C33.9,27.1,33.9,27.1,34,27 M38.7,24.7c-0.1,0-0.2,0-0.2,0.1c0,0,0,0,0,0.1C38.6,24.8,38.6,24.8,38.7,24.7 M44.2,11.8
		c0-0.1,0.1-0.1,0.1-0.2c0,0,0,0-0.1-0.1C44.2,11.6,44.1,11.7,44.2,11.8z"/>
	<path class="st0" d="M76,104.7c0,0.1-0.1,0.2-0.2,0.3c0,0-0.1,0-0.2,0c0-0.1,0-0.1,0-0.2c0-0.1,0-0.3-0.1-0.4
		c-0.9-0.2-1.4-1-2.2-1.4c-0.4-0.2-0.9-0.3-1.4-0.5c-0.1,0-0.1,0-0.2-0.1c-0.1-0.1-0.4-0.3-0.3-0.4c0.2-0.3,0.3,0,0.5,0.1
		c0.4,0.1,0.8,0.3,1.2,0.5c0.4,0.2,0.7,0.5,1.1,0.7c0.4,0.2,0.9,0.5,1.3,0.7C75.6,104.4,75.8,104.6,76,104.7z"/>
	<path class="st0" d="M59.4,80.4c-0.7,0.4-1.4,0.9-2.1,1.2c-1.3,0.5-2.1,1.6-3.3,2.2c-0.7,0.3-1.4,0.5-2.1,0.7
		c-1.1,0.3-2.2,0.5-3.3,1c-0.6,0.2-1.1,0-1.6-0.1c-0.4-0.1-0.6-0.4-0.6-0.8c0-0.4,0.1-0.7,0.1-1.1c0-0.3-0.1-0.6-0.1-0.9
		c0-0.5,0-0.9,0-1.4c0-1.3,0-2.5,0-3.8c0-1.9,0.1-3.8,0.2-5.7c0-1.2,0.1-2.4,0.2-3.6c0-1.3,0-2.5,0.1-3.8c0.1-0.9,0.4-1.8,0.8-2.6
		c0.3-0.6,1-0.8,1.6-1c0.8-0.2,1.5-0.4,2.2-0.6c1.2-0.4,2.4-0.7,3.6-1.1c1.4-0.6,2.8-1.3,4.2-2c0.8-0.4,1.7-0.7,2.6-0.8
		c0.6-0.1,1.1,0.4,1.6,0.8c0.4,0.4,0.6,0.9,0.6,1.5c0,0.1,0,0.2,0.1,0.3c0.6,1.1,0.6,2.2,0.3,3.3c-0.1,0.4-0.1,0.8-0.1,1.2
		c-0.1,1.5-0.1,2.9-0.2,4.4c-0.1,1.7-0.1,3.4-0.3,5.1c-0.1,1.3-0.1,2.5-0.4,3.8c-0.3,1.2-1,1.9-2,2.5C60.8,79.5,60.1,79.9,59.4,80.4
		 M47.5,64.2c0,0-0.1,0.1-0.1,0.1c0,0.7-0.1,1.4-0.1,2.2c0,1.3-0.1,2.5-0.1,3.8c0,1-0.1,2-0.1,3c0,0.8,0,1.6,0,2.5
		c0,2.4,0.1,4.9,0.1,7.3c0,1,0.4,1.4,1.3,1.4c0.2,0,0.3,0,0.5,0c-0.2,0.1-0.4,0.3-0.5,0.4c-0.4,0.2-0.7,0.2-1-0.1
		c-0.2-0.1-0.3-0.3-0.5-0.4c0,0.2,0,0.4,0,0.5c-0.2,0.3,0.1,0.4,0.2,0.4c0.4,0,0.8,0.1,1.1,0c1.1-0.3,2.1-0.6,3.2-1
		c1.1-0.4,2.2-0.6,3.2-1.3c1.3-0.9,2.6-1.7,3.9-2.5c0.4-0.2,0.7-0.4,0.4-0.8c-0.1-0.1-0.2-0.3-0.2-0.4c-0.2,0.1-0.3,0.2-0.5,0.3
		c0,0,0,0.2,0,0.3c0.1,0,0.1,0,0.2-0.1c0,0,0,0,0.1,0c0,0,0,0.1,0,0.1c-0.1,0.1-0.2,0.2-0.3,0.2c-0.1,0-0.3-0.1-0.3-0.2
		c-0.1-0.1,0-0.4-0.1-0.5c-0.1-0.1-0.3-0.2-0.5-0.3c0,0.1-0.1,0.3-0.1,0.4c0,0.2,0.1,0.4,0.2,0.6c0.2,0.4,0,0.7-0.4,0.9
		c-0.3,0.1-0.6,0.3-0.8,0.4c-0.4,0.2-0.8,0-0.8-0.4c0-0.4,0.1-0.8,0.2-1.3c0-0.1,0.1-0.1,0.2-0.1c0,0.1,0.1,0.1,0.1,0.2
		c0,0.3-0.1,0.6-0.1,0.9c0,0.2-0.1,0.5,0.3,0.6c0.5,0,1.1-0.7,1-1.1c0-0.2-0.1-0.3-0.2-0.5c-0.1-0.5,0.1-0.8,0.7-0.6
		c0.1,0,0.4,0,0.4-0.1c0.2-0.4,0.5-0.4,0.8-0.4c0.1,0,0.2-0.1,0.3-0.2c0.1-0.4,0.3-0.6,0.8-0.7c0.5-0.2,0.3,0.1,0.4,0.3
		c0,0.1,0,0.2,0,0.3c0,0.1,0,0.2,0.1,0.3c0-0.1,0.1-0.2,0.1-0.3c0-0.2,0.1-0.4,0.1-0.7c0,0,0.1-0.1,0.1-0.1c0,0,0.1,0,0.1,0.1
		c0,0.3,0.1,0.6,0.1,0.9c0,0.3-0.6,0.5-0.9,0.4c-0.1,0-0.3,0-0.4,0c0,0,0,0.2,0,0.2c0.1,0.1,0.2,0.1,0.2,0.2c-0.1,0-0.2,0-0.3,0
		c0,0-0.1,0-0.1,0.1c0,0.2-0.1,0.5-0.1,0.7c0,0.1,0.1,0.2,0.1,0.2c0,0,0.1,0,0.1-0.1c0.2-0.2,0.4-0.4,0.6-0.5
		c0.6-0.4,1.2-0.8,1.7-1.2c0.1-0.1,0.1-0.2,0.1-0.3c-0.1,0-0.2,0-0.2,0.1c-0.2,0-0.4,0.2-0.6-0.2c-0.1-0.3-0.1-0.5,0.1-0.7
		c0.1-0.1,0.3-0.1,0.5-0.1c-0.1,0.1-0.2,0.2-0.3,0.2c0,0-0.1,0-0.1,0.1c0,0.1,0,0.3,0.1,0.4c0.1,0,0.3-0.1,0.4-0.1
		c0-0.1,0-0.2-0.1-0.2c-0.1,0-0.1,0-0.2,0c0.1,0,0.1-0.1,0.2-0.1c0.1,0,0.3-0.1,0.4-0.1c0.4-0.1,0.5-0.5,0.3-0.8
		c-0.1-0.1-0.1-0.1-0.2-0.2c0.1,0,0.2,0,0.3-0.1c0.1-0.1,0.2-0.1,0.3-0.2c0.1-0.4,0.2-0.7,0.2-1.1c0-1.5,0.1-3.1,0.1-4.6
		c0-0.1,0-0.3,0-0.4c0.1-1.4,0.3-2.9,0.4-4.3c0-0.6,0.1-1.3,0.1-1.9c0-0.5,0-1,0.1-1.4c0.1-0.7,0.5-1.5,0.1-2.2c0,0,0-0.1,0-0.2
		c0-0.2,0-0.4-0.1-0.7c-0.1-0.3-0.3-0.7-0.3-1c0-0.8-0.7-1.6-1.4-1.4c-0.7,0.1-1.5,0.3-2.1,0.6c-1.8,0.9-3.5,1.8-5.4,2.4
		c-0.6,0.2-1.2,0.3-1.7,0.4c-1.1,0.4-2.1,0.9-3.3,1.2c-0.9,0.3-1.4,0.8-1.6,1.7C47.8,63.3,47.7,63.7,47.5,64.2 M58.6,78.5
		c-0.1,0.1-0.2,0.3-0.2,0.4c0.2,0,0.3,0,0.5-0.1c0.1,0,0.1-0.2,0.2-0.3C58.9,78.5,58.7,78.5,58.6,78.5 M63.2,75.9
		c0,0,0.1-0.1,0.1-0.1c0-0.2,0-0.3,0-0.5c0,0-0.1,0-0.1,0c0,0.1-0.1,0.2-0.1,0.4C63.2,75.7,63.2,75.8,63.2,75.9 M59.6,78.1
		c-0.1-0.1-0.1-0.2-0.2-0.2c0,0.1-0.1,0.1-0.1,0.2C59.4,78.1,59.5,78.1,59.6,78.1z"/>
	<path class="st0" d="M37.4,52.7c-0.5-0.3-0.4-0.8-0.4-1.2c0-0.2,0.4-0.5,0.5-0.5c0.3,0,0.7,0.2,0.9,0.5c0.2,0.4,0.1,0.7-0.1,1
		C38,52.9,37.7,52.9,37.4,52.7 M37.5,51.4c-0.1,0.1-0.2,0.1-0.3,0.2c0,0,0,0.1,0,0.1c0.1,0.2,0.3,0.4,0.5,0.5c0,0,0.2,0.1,0.2,0
		C38.1,52,38,51.6,37.5,51.4z"/>
	<path class="st0" d="M40.2,100.9c0.5,0.5,0.5,1,0,1.2c-0.4,0.1-0.8,0-1-0.2c-0.1-0.1-0.1-0.5,0-0.7
		C39.3,100.7,39.8,100.8,40.2,100.9 M39.6,101.4C39.6,101.5,39.6,101.5,39.6,101.4c0.2,0.1,0.3,0.2,0.4,0.2c0-0.1,0.1-0.3,0.1-0.3
		c-0.1-0.1-0.2-0.1-0.3-0.2C39.6,101.2,39.6,101.3,39.6,101.4z"/>
	<path class="st0" d="M40.2,109.1c0.1-0.3,0.1-0.6,0.1-1c0-0.1-0.3-0.2-0.4-0.2c-0.1,0-0.1,0-0.2-0.1c0,0,0.1-0.1,0.1-0.1
		c0.2,0,0.4-0.1,0.5,0c0.4,0.2,0.5,0.6,0.4,1c-0.1,0.4-0.2,0.7-0.6,0.7c-0.2,0-0.5-0.1-0.7-0.2c-0.1-0.1-0.1-0.4-0.1-0.6
		c0-0.1,0.2-0.1,0.3-0.2c0.1,0.1,0.2,0.2,0.3,0.4C40,109,39.8,109.3,40.2,109.1z"/>
	<path class="st0" d="M38.6,74.4c-0.3-0.2-0.5-0.3-0.8-0.5c0,0,0-0.2,0-0.2c0.1-0.1,0.3-0.2,0.4-0.2c0.2-0.1,0.4-0.1,0.5-0.1
		c0-0.1,0-0.3-0.1-0.4c-0.1-0.1-0.3,0-0.4,0c-0.1,0-0.1,0-0.2,0.1c0-0.1,0-0.2,0.1-0.3c0.2-0.3,0.5-0.3,0.7-0.1
		c0.3,0.2,0.6,0.5,0.4,0.8C39.2,73.9,38.9,74.1,38.6,74.4 M38.6,73.8c0,0,0-0.1-0.1-0.1c0,0.1-0.1,0.1-0.1,0.2
		C38.5,73.9,38.6,73.9,38.6,73.8z"/>
	<path class="st0" d="M37.4,33.9c0.1-0.3,0.1-0.3,0.5-0.3c0.2,0,0.5,0.1,0.3-0.3c0,0,0-0.1,0-0.1c-0.1-0.2-0.1-0.3-0.2-0.5
		c-0.1,0.1-0.2,0.3-0.3,0.4c-0.1,0.2-0.1,0.4-0.3,0.2c-0.1-0.1-0.1-0.3-0.1-0.3c0.2-0.2,0.4-0.5,0.6-0.5c0.2,0,0.4,0.3,0.5,0.6
		c0.2,0.4,0.2,0.8-0.1,1.1C38,34.5,37.7,34.5,37.4,33.9 M38.1,34c0,0-0.1-0.1-0.1-0.1c0,0.1,0,0.2-0.1,0.2C38,34.1,38,34,38.1,34z"
		/>
	<path class="st0" d="M39.7,91c0.3,0.3,0.6,0.5,0.4,1c-0.2,0.4-0.6,0.3-0.9,0.2c-0.2-0.1-0.4-0.3-0.4-0.7C38.9,90.9,39.3,91,39.7,91
		 M39.6,91.3c-0.2,0.2-0.3,0.6-0.1,0.7c0,0,0.1,0,0.2,0c0,0,0.1-0.1,0.1-0.2C39.7,91.7,39.7,91.5,39.6,91.3z"/>
	<path class="st0" d="M46.4,16.5c0.1,0,0.2,0,0.3,0c0,0,0.1,0,0.1,0.1c0,0-0.1,0.1-0.1,0.1c-0.2,0-0.2,0.1-0.1,0.2
		c0.3,0.3,0,0.6-0.2,0.7c-0.2,0.1-0.6,0.2-0.8,0.1c-0.6-0.4-0.5-0.5,0-0.9C45.9,16.7,46.1,16.6,46.4,16.5 M46.1,17.4
		c0.1-0.1,0.2-0.3,0.2-0.4c-0.1,0-0.2-0.1-0.3-0.1c-0.1,0.1-0.2,0.2-0.3,0.4C45.9,17.4,46,17.4,46.1,17.4z"/>
	<path class="st0" d="M37.4,42.9c-0.2,0.1-0.5,0.2-0.7,0.2c-0.1,0-0.2-0.1-0.3-0.2c0.1-0.1,0.2-0.1,0.3-0.2c0.1,0,0.4,0.3,0.4-0.1
		c0-0.3,0-0.6,0-0.9c-0.1-0.3-0.3,0-0.4,0.1c-0.1,0.1-0.1,0.2-0.1,0.4c0,0.1-0.1,0.2-0.2,0.2c-0.1-0.1-0.2-0.2-0.2-0.3
		c0.1-0.2,0.2-0.5,0.4-0.6c0.2-0.1,0.5-0.2,0.7,0.1C37.7,42.1,37.8,42.3,37.4,42.9z"/>
	<path class="st0" d="M68.3,43.2c-0.5,0.3-1,0.1-1-0.5c0-0.2,0-0.4,0.1-0.6c0.1-0.2,0.3-0.2,0.5-0.4c0,0.1,0.1,0.2,0.1,0.3
		C68.3,42.4,68.5,42.8,68.3,43.2 M67.7,42.6c0,0.1,0,0.2,0,0.3c0.1,0.1,0.2,0.2,0.3,0.3c0-0.2,0.1-0.4,0.1-0.6
		C68.1,42.6,67.9,42.6,67.7,42.6z"/>
	<path class="st0" d="M41.6,23c-0.4-0.1-0.5-0.4-0.5-0.7c0.1-0.4,0.3-0.4,0.6-0.5c0.5-0.1,0.5-0.1,0.5,0.5
		C42.3,22.9,42.2,23,41.6,23 M41.7,22.7c0-0.2,0.1-0.4,0.1-0.6c-0.1,0-0.2,0-0.2,0c-0.1,0.2-0.3,0.3-0.1,0.6
		C41.6,22.7,41.6,22.7,41.7,22.7z"/>
	<path class="st0" d="M59.4,12.9c0.1,0.2,0.2,0.3,0.3,0.4c-0.3,0.2-0.5,0.4-0.8,0.5c-0.4,0.1-0.9-0.3-1-0.7c0-0.3,0.4-0.6,0.8-0.4
		C59,12.7,59.2,12.8,59.4,12.9 M59.3,13.3c-0.1-0.1-0.3-0.3-0.4-0.4c-0.1,0-0.4,0-0.4,0.1c0,0.1,0,0.4,0.1,0.5c0,0.1,0.3,0.1,0.4,0
		C59,13.5,59.1,13.4,59.3,13.3z"/>
	<path class="st0" d="M66.6,24.9c0.3-0.3,0.6-0.3,0.9-0.1c0.3,0.2,0.3,0.5,0.2,0.8c-0.1,0.4-0.6,0.5-0.9,0.2
		C66.5,25.5,66.4,25.2,66.6,24.9 M67,25.3c0.1,0.1,0.1,0.3,0.2,0.4c0.1-0.1,0.2-0.2,0.2-0.3c0-0.2-0.1-0.3-0.1-0.5
		C67.2,25,67.1,25.1,67,25.3z"/>
	<path class="st0" d="M39.1,27c0.1-0.2,0.1-0.3,0.2-0.4c0.1-0.2,0.3-0.3,0.2-0.6c0,0,0-0.1,0-0.2c0.1,0,0.2,0.1,0.2,0.1
		c0.1,0.1,0.2,0.3,0.3,0.4c0.1,0.2,0.5,0.2,0.3,0.6c-0.2,0.4-0.7,0.5-1,0.3C39.3,27.2,39.2,27.1,39.1,27 M39.9,26.8
		c-0.1,0-0.2,0-0.4,0c0,0,0,0.1,0,0.1C39.7,26.9,39.8,26.9,39.9,26.8z"/>
	<path class="st0" d="M38.9,80.3c0.4,0,0.7,0.1,0.7,0.5c0.1,0.4-0.2,0.9-0.6,0.9c0,0-0.1,0-0.1,0c-0.2-0.2-0.4-0.4-0.5-0.7
		c-0.1-0.2-0.2-0.5,0.2-0.7C38.6,80.4,38.8,80.4,38.9,80.3 M38.9,81.5c0.4-0.1,0.6-0.5,0.4-0.8c-0.1-0.1-0.3-0.1-0.4-0.1
		c-0.1,0-0.2,0.2-0.2,0.3C38.7,81.1,38.8,81.2,38.9,81.5z"/>
	<path class="st0" d="M51.5,13.7c-0.6,0.4-0.9,0.5-1.2,0.1c-0.1-0.1-0.1-0.3-0.1-0.5c0.1,0,0.2-0.1,0.3,0c0.1,0,0.1,0.2,0.1,0.2
		c0,0.1,0,0.1,0.1,0.2c0.1,0,0.2-0.1,0.2-0.1c0.1-0.2,0.2-0.4,0.3-0.6c0,0-0.1-0.1-0.2-0.2c-0.1-0.1-0.1-0.2-0.2-0.3
		c0,0,0-0.1,0-0.1c0.1,0,0.2,0.1,0.3,0.1C51.5,12.9,51.7,13.3,51.5,13.7z"/>
	<path class="st0" d="M67.2,50.9c0.5,0,0.7,0.3,0.9,0.7c0.1,0.1,0,0.4-0.1,0.5c-0.2,0.1-0.4,0.2-0.6,0.2c-0.2,0-0.4-0.3-0.4-0.4
		C67,51.5,67.1,51.2,67.2,50.9 M67.8,51.7c-0.1-0.1-0.1-0.2-0.2-0.3c-0.1,0.1-0.2,0.2-0.3,0.3c0,0.1,0.1,0.3,0.1,0.4
		C67.6,52,67.7,51.9,67.8,51.7z"/>
	<path class="st0" d="M67.6,69.9c0.2,0.4,0.1,0.8-0.1,0.9c-0.3,0.1-0.6,0-0.8-0.3c-0.2-0.2,0-0.9,0.3-1
		C67.2,69.5,67.5,69.5,67.6,69.9 M67.3,70c0,0.2-0.1,0.4-0.1,0.6c0,0,0.1,0,0.1,0C67.4,70.4,67.4,70.2,67.3,70z"/>
	<path class="st0" d="M38.6,64.3c-0.2,0-0.4,0-0.6-0.1c-0.1,0-0.1-0.2-0.1-0.3c0.1,0,0.2-0.1,0.3-0.1c0.1,0,0.2-0.1,0.3-0.1
		c-0.1-0.1-0.1-0.2-0.2-0.3c-0.1-0.1-0.2-0.1-0.2-0.2c0-0.1,0-0.3,0.1-0.3c0.1,0,0.3-0.1,0.4,0C38.9,63.3,39,63.9,38.6,64.3z"/>
	<path class="st0" d="M67.4,77.5c0.1,0.2,0.2,0.3,0.3,0.4c0.1,0.3,0.2,0.5-0.1,0.7c-0.3,0.1-0.7-0.2-0.8-0.5c0-0.1,0-0.2,0-0.2
		c0-0.1,0-0.3,0-0.4c0.2,0,0.3,0,0.5,0C67.3,77.4,67.4,77.5,67.4,77.5 M67.5,78.1c0-0.1-0.1-0.2-0.1-0.3c0,0.1,0,0.2-0.1,0.3
		c0,0.1,0,0.1,0,0.2C67.4,78.3,67.4,78.2,67.5,78.1z"/>
	<path class="st0" d="M68,60.4c0.1,0.1,0.2,0.2,0.2,0.3c0,0.2,0,0.4,0,0.6c-0.2,0-0.5,0-0.7-0.1c-0.2-0.1-0.3-0.4-0.4-0.6
		c-0.1-0.2,0.3-0.5,0.6-0.4C67.8,60.3,67.9,60.4,68,60.4 M68,61c0-0.1-0.1-0.2-0.1-0.3c-0.1,0.1-0.2,0.1-0.2,0.2
		c0,0.1,0.1,0.2,0.1,0.4C67.8,61.2,67.9,61.1,68,61z"/>
	<path class="st0" d="M66.4,86.7c0-0.2,0.1-0.3,0.1-0.4c0.1-0.1,0.2-0.1,0.3-0.1c0.1,0.1,0.2,0.3,0.2,0.3c-0.1,0.3-0.1,0.4,0.1,0.6
		c0.1,0.1,0.1,0.3,0.1,0.5c-0.2,0-0.4,0-0.5-0.1C66.6,87.4,66.5,87.1,66.4,86.7z"/>
	<path class="st0" d="M68.2,33.3c0.4,0.2,0.6,0.7,0.4,1.2c-0.1,0.3-0.3,0.3-0.6,0.1c-0.3-0.2-0.5-0.5-0.2-0.9
		C68,33.6,68.1,33.4,68.2,33.3 M68.4,34.2c0-0.1,0-0.2,0.1-0.3c0-0.1,0-0.1,0-0.2c-0.1,0-0.2,0-0.2,0.1c0,0.2,0,0.4,0,0.6
		C68.3,34.3,68.3,34.3,68.4,34.2z"/>
	<path class="st0" d="M66.6,94.4c-0.3-0.4-0.1-0.6,0.1-0.8c0.1-0.1,0.3-0.3,0.4-0.4c0,0.2,0,0.4-0.1,0.6c0,0.2,0,0.2,0.2,0.3
		c0,0,0.1,0.2,0.1,0.2C67.1,94.6,66.9,94.7,66.6,94.4z"/>
	<path class="st0" d="M64,18.4c-0.1,0-0.2-0.1-0.2-0.1c-0.3-0.1-0.5-0.3-0.4-0.5c0.1-0.2,0.5-0.3,0.7-0.3c0.2,0,0.5,0.3,0.5,0.5
		C64.7,18.3,64.4,18.5,64,18.4 M64.1,18.3c0.1-0.1,0.2-0.2,0.3-0.3c-0.1-0.1-0.2-0.2-0.3-0.1c-0.1,0-0.2,0.1-0.3,0.2
		C63.8,18.1,63.9,18.1,64.1,18.3z"/>
	<path class="st0" d="M14.8,42.8c0.9,0.6,1.8,1.1,2.7,1.7c0.6,0.3,1.2,0.6,1.9,0.9c0.3,0.1,0.5,0.3,0.4,0.7c0,0.3,0,0.6,0,0.9
		c0,0.3-0.1,0.4-0.4,0.3c-0.6-0.1-1.1-0.4-1.6-0.7c-0.7-0.4-1.4-0.7-2.1-1.1c-0.5-0.3-0.9-0.7-1.4-0.9c-0.7-0.3-1.5-0.5-2.2-0.8
		c-0.5-0.2-1.1-0.4-1.6-0.6c-0.1,0-0.2-0.1-0.3-0.1c-0.1,0-0.3-0.1-0.4-0.1c0.1-0.1,0.1-0.3,0.2-0.4c0.4-0.4,0.8-0.9,1.4-1
		c0.4-0.1,0.7-0.1,1.1,0.1C13.2,42,14,42.4,14.8,42.8 M11.9,43.4c0.2,0.1,0.4,0.1,0.6,0.2c0.8,0.3,1.7,0.6,2.5,1.1
		c0.8,0.6,1.8,0.9,2.7,1.4c0.4,0.2,0.7,0.4,1.1,0.6c0.1,0.1,0.4,0,0.4-0.1c0.2-0.7,0-1-0.7-1.3c-0.7-0.3-1.4-0.6-2.1-1
		c-0.8-0.5-1.6-1-2.4-1.5c-0.5-0.3-1-0.5-1.5-0.8c-0.5-0.3-0.9-0.6-1.5-0.2c-0.2,0.2-0.5,0.4-0.7,0.6c0,0,0,0.2,0.1,0.2
		C11,43,11.4,43.2,11.9,43.4z"/>
	<path class="st0" d="M28.5,49.6c-1-0.9-2.1-1.5-3.3-2.1c-0.5-0.2-1-0.5-1.4-0.8c-0.1,0,0-0.2,0-0.4c0,0,0.1-0.1,0.2,0
		c0.7,0.3,1.3,0.7,2,1.1c1.1,0.5,2.1,1.2,3,2c0.3,0.3,0.7,0.4,1,0.6c0.1,0.1,0.2,0.2,0.4,0.2c-0.1,0.1-0.2,0.2-0.3,0.3
		c-0.2,0.2-0.4,0.4-0.6,0.4c-0.5-0.1-0.9-0.4-1.4-0.6c-1.4-0.7-2.9-1.4-4.3-2.2c-0.5-0.2-1-0.5-1.4-0.8c-0.1-0.1-0.2-0.1-0.3-0.1
		c-0.1-0.1-0.2-0.1-0.3-0.2c0.1-0.1,0.1-0.3,0.2-0.3c0.2-0.2,0.5-0.3,0.7-0.5c0.1-0.1,0.2-0.1,0.4-0.1c0.1,0,0.2,0.1,0.3,0.1
		c-0.1,0.1-0.2,0.1-0.2,0.2c-0.2,0.2-0.4,0.3-0.7,0.5c0.2,0.2,0.5,0.4,0.7,0.5c1.1,0.5,2.1,1,3.2,1.6c0.9,0.4,1.7,0.9,2.5,1.4
		c0.1,0,0.2,0.1,0.2,0.1c0.2,0,0.4-0.1,0.5-0.1c-0.1-0.1-0.2-0.2-0.4-0.3C29,49.9,28.8,49.8,28.5,49.6z"/>
	<path class="st0" d="M11.9,38.9c0-0.1,0.1-0.2,0.2-0.2c1.2-0.3,1.8-1.3,2.8-1.9c0.6-0.4,1.3-0.7,2-1c0,0,0.1,0,0.1-0.1
		c0.2,0.6,0.8,0.5,1.3,0.7c0.9,0.4,1.8,0.8,2.6,1.2c0.2,0.1,0.3,0.2,0.1,0.4c-0.3,0.4-0.6,0.9-0.8,1.3c-0.3,0.7-0.9,1-1.5,1.3
		c-0.4,0.2-0.9,0.7-1.3,0.7c-0.6-0.1-1.2-0.4-1.9-0.7c-0.7-0.3-1.5-0.6-2.2-0.9c-0.3-0.1-0.7-0.1-1-0.2c-0.1,0-0.2-0.1-0.3-0.1
		c0.1-0.1,0.1-0.2,0.2-0.3c0.1-0.1,0.3-0.2,0.4-0.3c0.1-0.1,0.1-0.2,0.1-0.3c-0.1,0-0.2,0-0.3,0C12.2,38.8,12,38.9,11.9,38.9
		 M17.7,40.9c0.2-0.1,0.5-0.2,0.7-0.4c0.5-0.3,1-0.5,1.3-1c0.3-0.4,0.6-0.8,0.8-1.3c0.1-0.2,0.1-0.4-0.1-0.5
		c-0.2-0.1-0.5-0.2-0.7-0.3c-0.8-0.3-1.7-0.6-2.5-0.9c-0.2-0.1-0.3,0-0.5,0c-0.2,0-0.3,0-0.5,0c-0.1,0-0.3,0-0.4,0.1
		c-1.2,0.7-2.3,1.5-3.2,2.6c0,0-0.1,0.1-0.1,0.2c0.1,0,0.1,0,0.2,0c0.3,0.1,0.7,0.1,1,0.2c0.9,0.4,1.7,0.8,2.5,1.2
		C16.6,41,17.1,41.5,17.7,40.9z"/>
	<path class="st0" d="M22.3,38.6c0.4-0.1,0.7-0.4,1-0.4c0.6,0.1,1.1,0.4,1.6,0.6c0.1,0,0.1,0.3,0,0.4c-0.6,1.1-1.3,2.1-2,3.2
		c-0.3,0.4-0.8,0.4-1.2,0.4c-1.1,0-1.6-0.9-2.3-1.6c0,0,0-0.2,0.1-0.3C20.4,40.2,21.3,39.4,22.3,38.6 M22.1,42.4
		c0.1-0.1,0.3-0.1,0.4-0.2c0.7-1,1.3-2,2-2.9c0.3-0.4,0.1-0.4-0.2-0.5c-0.4-0.1-0.7-0.2-1.1-0.2c-0.1,0-0.3,0-0.3,0.1
		c-0.9,0.8-1.8,1.5-2.7,2.3C20.1,41,20,41.2,20,41.3C20.2,42,21.3,42.6,22.1,42.4z"/>
	<path class="st0" d="M30.1,46c-0.8-0.3-1.5-0.5-2.2-0.8c-0.5-0.2-1-0.5-1.4-0.6c-0.7-0.2-0.9-1.1-0.4-1.7c0,0,0.1-0.1,0.1-0.1
		c0.5,0,1.1-0.1,1.6-0.1c0.1,0,0.1,0.1,0.2,0.1c0,0.1-0.1,0.1-0.2,0.2c-0.4,0.1-0.8,0.2-1.1,0.2c-0.6-0.2-0.5,0.3-0.6,0.5
		c-0.1,0.3,0.1,0.5,0.3,0.6c0.5,0.2,0.9,0.4,1.4,0.6c0.5,0.2,1,0.5,1.6,0.7c0.2,0.1,0.4,0,0.7,0c0-0.2,0-0.4-0.1-0.6
		c-0.1-0.2-0.2-0.4-0.3-0.6c-0.4-0.7-0.9-0.9-1.6-0.6c0,0-0.1,0-0.2,0c0,0,0.1-0.1,0.1-0.1c0.7-0.4,1.4-0.3,2,0.5
		c0.3,0.4,0.5,0.9,0.7,1.3C30.6,45.4,30.3,45.7,30.1,46z"/>
	<path class="st0" d="M18.5,19.4c0.5,0.7,0.9,1.4,1.4,2.1c0.2,0.4,0.5,0.8,0.7,1.2c0,0,0,0.1,0.1,0.2c-0.1,0-0.1,0-0.2-0.1
		c-0.4-0.6-0.7-1.2-1-1.7C19.1,20.5,18.8,19.9,18.5,19.4z"/>
	<path class="st0" d="M15.9,14.2c-0.1-0.4-0.3-0.7-0.4-1.1c0-0.1,0-0.1,0-0.2c0,0.1,0,0.1,0.1,0.2c0.3,0.7,0.6,1.4,0.9,2.1
		c0,0.1,0,0.1,0.1,0.2c-0.1-0.1-0.1-0.1-0.2-0.2C16.3,14.9,16.1,14.5,15.9,14.2z"/>
	<path class="st0" d="M18.5,19.3C18.5,19.4,18.5,19.4,18.5,19.3c-0.1-0.1-0.2-0.2-0.3-0.4c0,0,0,0,0.1,0
		C18.4,19,18.5,19.2,18.5,19.3z"/>
	<path class="st0" d="M18.2,18.6c-0.1,0-0.2-0.1-0.3-0.2c0,0,0-0.1,0-0.1c0,0,0.1,0,0.1,0.1C18.1,18.4,18.1,18.5,18.2,18.6z"/>
	<path class="st0" d="M11.9,110.7c0.1-0.2,0.2-0.4,0.3-0.5c0.1-0.1,0.2-0.1,0.4-0.1c0,0.1-0.1,0.2-0.1,0.3c-0.1,0.2-0.3,0.4-0.5,0.6
		C12,110.8,12,110.7,11.9,110.7z"/>
	<path class="st0" d="M18.5,80.5c0.3,0.3,0.8,0.2,0.8,0.7c0,0.3,0,0.5-0.2,0.6c-0.3,0.1-0.6,0.3-0.9,0.3c-0.1,0-0.3-0.3-0.4-0.4
		c0,0,0-0.1,0-0.2C17.5,80.6,17.7,80.4,18.5,80.5 M18.8,81.2c-0.1-0.1-0.2-0.2-0.2-0.4c-0.1,0.2-0.2,0.3-0.3,0.5
		c0,0.1,0.2,0.2,0.2,0.3C18.6,81.4,18.7,81.3,18.8,81.2z"/>
	<path class="st0" d="M8.5,89.7c0.3-0.3,0.8-0.4,1.1-0.2c0.2,0.2,0.3,0.9,0.1,1.1c-0.2,0.3-0.5,0.5-0.9,0.3
		c-0.3-0.2-0.4-0.5-0.3-0.9C8.5,89.9,8.5,89.8,8.5,89.7 M9.4,90.5c0-0.2,0-0.5,0-0.7c0,0-0.1-0.1-0.2-0.1c-0.1,0-0.1,0.1-0.1,0.2
		c0,0.1,0,0.3,0,0.5c0,0.1,0,0.2,0,0.3C9.2,90.6,9.3,90.6,9.4,90.5z"/>
	<path class="st0" d="M25.4,84.7c0-0.1,0.1-0.2,0.1-0.3c0.2-0.1,0.3-0.2,0.5-0.3c0,0.1,0,0.3,0.1,0.4c0.1,0.1,0.2,0.3,0.3,0.4
		c0.2,0.2,0.5,0.5,0.2,0.8c-0.3,0.3-0.8,0.3-1.1,0C25.1,85.4,25.2,85.1,25.4,84.7 M25.8,85c0,0.1,0,0.3,0,0.4c0,0.1,0.1,0.1,0.2,0.2
		c0.1-0.1,0.2-0.2,0.2-0.3C26.2,85.2,26,85.1,25.8,85z"/>
	<path class="st0" d="M10.3,99.2c-0.6,0.2-0.8,0.1-0.8-0.4c0-0.1-0.1-0.3-0.1-0.4c0-0.3-0.1-0.7,0.4-0.7c0.4-0.1,0.6,0.2,0.8,0.5
		C10.8,98.5,10.7,98.9,10.3,99.2 M9.9,98.3c0,0.2,0.1,0.4,0.1,0.6c0,0,0.1,0,0.1,0c0.1-0.1,0.1-0.3,0.1-0.4c0-0.1,0-0.2,0-0.2
		C10.2,98,10.1,98,9.9,98.3z"/>
	<path class="st0" d="M33.7,104.3c0-0.2,0.1-0.4,0.1-0.6c0-0.1,0.1-0.2,0.2-0.3c0,0.1,0.1,0.2,0.1,0.3c0.1,0.1,0.2,0.1,0.2,0.2
		c0.2,0.2,0.5,0.3,0.6,0.5c0.1,0.2,0.2,0.6-0.1,0.7c-0.3,0.2-0.6,0.2-0.8-0.1C33.9,104.8,33.8,104.6,33.7,104.3 M34.3,104.7
		c0.1,0.1,0.2,0.1,0.3,0.2c0-0.2,0.1-0.3,0-0.5c0-0.1-0.2-0.2-0.3-0.2c0,0.1,0,0.2-0.1,0.3C34.3,104.5,34.3,104.6,34.3,104.7z"/>
	<path class="st0" d="M9.3,82.6c0.1,0.3,0.2,0.7-0.1,0.9c-0.4,0.2-0.7-0.1-0.9-0.5c-0.2-0.3-0.2-0.8-0.2-1.1c0,0,0.2-0.1,0.2-0.1
		C8.6,82,9,82.3,9.3,82.6 M9,83c-0.1-0.2-0.1-0.3-0.2-0.5c-0.1,0-0.2,0.1-0.2,0.1c0,0.2,0.1,0.4,0.2,0.6C8.9,83.1,8.9,83.1,9,83z"/>
	<path class="st0" d="M9,76.4c-0.4,0.2-0.9-0.2-0.9-0.6c0-0.3,0.2-0.6,0.2-0.9c0.1-0.3,0.5-0.1,0.7,0C9.4,75.3,9.5,75.8,9,76.4
		 M8.7,75.7c0.1,0,0.1,0,0.2,0.1c0-0.1,0-0.3,0-0.4c0,0-0.2,0-0.3,0C8.6,75.5,8.6,75.6,8.7,75.7z"/>
	<path class="st0" d="M33.2,90.1c0.4-0.4,0.6-0.4,0.9,0c0.3,0.3,0.3,0.7-0.1,1c-0.3,0.3-0.7,0.2-1-0.2
		C32.8,90.7,32.9,90.4,33.2,90.1 M33.8,90.2c-0.2,0.2-0.5,0.3-0.3,0.6c0,0.1,0.3,0.1,0.3,0.1C33.9,90.6,34.2,90.4,33.8,90.2z"/>
	<path class="st0" d="M34.6,109.7c0.5,0.4,0.6,0.8,0.3,1.4c-0.1,0.1-0.3,0.1-0.5,0.1c-0.1,0-0.3-0.2-0.3-0.2c0-0.3,0.1-0.5,0.2-0.8
		c0.1-0.2,0.4-0.3,0-0.5c0,0,0-0.1,0-0.1C34.4,109.6,34.5,109.6,34.6,109.7 M34.5,110.4c0.1,0,0.2,0,0.2,0c0-0.1,0-0.2,0-0.3
		C34.6,110.2,34.5,110.3,34.5,110.4z"/>
	<path class="st0" d="M13.2,79.1c-0.4-0.1-0.6-0.3-0.6-0.7c0-0.1,0-0.2,0-0.3c0.3-0.3,0.7-0.3,1-0.1c0.1,0.1,0.3,0.3,0.2,0.5
		C13.8,78.9,13.6,79.1,13.2,79.1 M13.3,78.6c0.1-0.1,0.1-0.1,0.2-0.2c0-0.1,0-0.2-0.1-0.2c-0.1-0.1-0.3-0.1-0.3,0
		c0,0.1-0.1,0.3-0.1,0.5C13.1,78.6,13.2,78.7,13.3,78.6z"/>
	<path class="st0" d="M34.2,97.9c0.4,0.5,0.5,0.8,0.1,1c-0.3,0.2-0.7,0.1-0.8-0.3c0-0.2,0.1-0.5,0.2-0.7
		C33.8,97.8,34,97.9,34.2,97.9z"/>
	<path class="st0" d="M39.2,123.3c-0.2,0.8-0.2,0.9-0.8,0.8c-0.2,0-0.4-0.2-0.5-0.4c-0.1-0.1,0.1-0.3,0.2-0.5c0.2-0.3,0.6-0.6,1-0.6
		c0.4,0,0.4,0.1,0.3,0.4C39.3,123.1,39.2,123.1,39.2,123.3z"/>
	<path class="st0" d="M32.2,77c0.1-0.1,0.1-0.2,0.2-0.3c0,0.1,0,0.2,0.1,0.3c0.1,0.1,0.2,0.2,0.3,0.3c0.3,0.2,0.5,0.7,0.3,0.9
		c-0.3,0.4-0.6,0.1-0.7-0.2c-0.2-0.4-0.2-0.1-0.3,0c-0.1,0.1-0.2,0.2-0.2,0.3c0-0.1,0-0.3,0.1-0.4C32,77.6,32.1,77.3,32.2,77
		 M32.6,77.5c0,0.1,0.1,0.2,0.1,0.4c0,0,0.1,0,0.1,0c0-0.1,0-0.2,0-0.3C32.7,77.5,32.7,77.5,32.6,77.5z"/>
	<path class="st0" d="M14.1,69.1c0.2-0.1,0.4-0.3,0.5-0.2c0.3,0.1,0.5,0.3,0.7,0.6c0.2,0.3-0.1,0.4-0.4,0.5
		C14.4,70.1,14,69.7,14.1,69.1 M14.5,69.5c0.1,0,0.2,0.1,0.4,0.1c0-0.1,0-0.2-0.1-0.2C14.8,69.4,14.6,69.4,14.5,69.5z"/>
	<path class="st0" d="M25.3,74c0.3,0.1,0.5,0.2,0.3,0.4c-0.1,0.4-0.4,0.6-0.8,0.6c-0.2,0-0.5-0.2-0.4-0.3c0.1-0.2,0.2-0.4,0.4-0.6
		C24.9,74,25.1,74,25.3,74 M25,74.2c0,0.1-0.1,0.3-0.1,0.4c0.1,0,0.2,0.1,0.2,0c0.1-0.1,0.2-0.2,0.2-0.3
		C25.2,74.3,25.1,74.3,25,74.2z"/>
	<path class="st0" d="M26.6,60.1c0.5-0.2,1-0.1,1.2,0.2c0.1,0.2,0.1,0.3-0.1,0.3c-0.2,0-0.3,0.2-0.4,0.3
		C26.6,61,26.4,60.7,26.6,60.1 M27,60.2c-0.1,0.1-0.2,0.1-0.2,0.2c0.1,0.1,0.3,0.2,0.4,0.1c0.1,0,0.2-0.2,0.3-0.3
		C27.3,60.3,27.2,60.3,27,60.2z"/>
	<path class="st0" d="M7.9,65.1c0,0.5-0.3,0.6-0.6,0.7c0,0-0.1,0-0.1,0c-0.1-0.2-0.4-0.5-0.3-0.6C7,65,6.7,64.5,7.2,64.5
		C7.6,64.5,7.8,64.6,7.9,65.1 M7.7,65.1c-0.1-0.1-0.2-0.3-0.4-0.4c0,0.1-0.1,0.3-0.1,0.4c0,0.1,0,0.2,0,0.3c0,0.1,0.1,0.1,0.1,0.2
		c0.1,0,0.1,0,0.2-0.1C7.6,65.4,7.6,65.3,7.7,65.1z"/>
	<path class="st0" d="M7.4,54.2c-0.3,0.1-0.5,0.2-0.6-0.1c-0.2-0.3,0-0.8,0.3-0.9c0.2-0.1,0.6-0.1,0.7,0.2C7.8,53.7,7.6,54,7.4,54.2
		 M7.3,53.4c-0.1,0.2-0.2,0.4-0.4,0.6c0,0,0.1,0.1,0.1,0.1c0.2-0.1,0.4-0.2,0.5-0.4C7.6,53.7,7.4,53.5,7.3,53.4z"/>
	<path class="st0" d="M6.9,60.9c-0.1-0.2-0.1-0.5-0.1-0.7c0-0.1,0.3-0.3,0.4-0.3c0.2,0.1,0.4,0.3,0.5,0.5c0,0.1-0.1,0.2-0.1,0.3
		C7.4,60.9,7.2,61.1,6.9,60.9 M7,60.4c0,0.1,0.1,0.1,0.1,0.2c0,0,0.1-0.1,0.1-0.1C7.2,60.4,7.1,60.4,7,60.4z"/>
	<path class="st0" d="M15.8,56.8c-0.2-0.3-0.2-0.5,0.1-0.6c0.1,0,0.3-0.1,0.4-0.2c0.1-0.1,0.3-0.2,0.4,0c0.1,0.1,0.1,0.4,0,0.5
		C16.5,56.7,16.2,57.1,15.8,56.8 M15.9,56.6c0.3,0.2,0.4,0,0.6-0.2c0.1-0.1,0-0.2,0-0.3c-0.1,0-0.2,0.1-0.2,0.1
		C16.2,56.3,16.1,56.4,15.9,56.6z"/>
	<path class="st0" d="M32.3,62.1c-0.1,0.2-0.1,0.3-0.2,0.4c-0.2-0.1-0.5-0.3-0.5-0.4c0-0.2,0.1-0.5,0.2-0.7c0,0,0.1,0,0.1,0.1
		C32.1,61.7,32.2,61.9,32.3,62.1z"/>
	<path class="st0" d="M31.9,70.5c-0.1,0.1-0.2,0.1-0.3,0.2c-0.1-0.1-0.1-0.3-0.1-0.4c0-0.2,0-0.4,0.1-0.6c0.1-0.1,0.3-0.2,0.5-0.3
		c0.1,0,0.3,0.2,0.2,0.3C32.2,70,32,70.3,31.9,70.5c0.1-0.3,0.1-0.5,0.2-0.7c0-0.1-0.1-0.1-0.1-0.2c-0.1,0.1-0.2,0.3-0.2,0.4
		C31.7,70.2,31.5,70.5,31.9,70.5z"/>
	<path class="st0" d="M62.5,70.2c0.1,0.6-0.2,1.3,0.3,1.8c0,0-0.1,0.2-0.2,0.3c-1.3,0.6-2.7,1.2-4,1.8c-0.4,0.2-0.7,0.3-1.1,0.5
		c-0.1,0-0.3,0.4-0.4,0c0,0-0.1,0-0.1,0.1c0,0.5-0.4,0.4-0.7,0.6c-0.6,0.3-1.2,0.6-1.8,1c-0.2,0.1-0.3,0.3-0.6,0.1
		c-0.1,0-0.2,0-0.4,0c-1,0.4-2.1,0.8-3.1,1.2c-0.2,0.1-0.4,0.2-0.7,0.3c-0.1,0-0.3-0.1-0.4-0.1c0.1-0.1,0.1-0.3,0.2-0.3
		c0.4-0.2,0.8-0.4,1.2-0.6c0.5-0.3,0.9-0.6,1.4-1c1.1-1,2.1-2.1,3.2-3.1c1.4-1.3,2.5-2.9,3.4-4.6c0.6-1,1.1-2.1,1.6-3.2
		c0.3-0.7,0.3-1.5,0.4-2.2c0-0.2,0-0.3,0-0.5c0-0.1,0-0.1,0-0.2c-0.1,0-0.1,0.1-0.2,0.1c-0.1,0-0.1,0.1-0.2,0.1
		c-1-0.1-1.6,0.8-2.3,1.2c-0.3,0.2-0.6,0.6-1.1,0.2c-0.1-0.1-0.4,0.1-0.6,0.2c-1.3,0.8-2.7,1.7-4,2.5c-0.3,0.2-0.4,0.4-0.3,0.7
		c0.2,0.7,0.4,1.5,0.6,2.3c0.1,0.3,0.2,0.2,0.4,0.1c1-0.7,1.9-1.5,2.8-2.2c0.6-0.5,1.2-1,1.8-1.5c0.2-0.2,0.4,0,0.5,0.1
		c0.1,0.2,0.1,0.3-0.1,0.5c-0.3,0.3-0.5,0.7-0.8,1.1c-0.8,1.1-1.5,2.2-2.3,3.3c-0.6,0.8-1.3,1.7-2,2.5c-1,1.1-2.2,2.2-3.2,3.3
		c-0.1,0.1-0.3,0.2-0.4,0.2c-0.1-0.2-0.3-0.4-0.3-0.5c-0.1-1.8-0.1-3.7-0.1-5.5c0-0.9,0-1.8,0-2.6c0-0.3-0.1-0.5-0.4-0.5
		c-0.3,0-0.2-0.2-0.1-0.3c0.3-0.3,0.5-0.6,0.9-0.8c0.6-0.3,1.1-0.7,1.7-1c0.9-0.5,1.9-0.9,2.8-1.4c0.6-0.3,1.2-0.7,1.8-1
		c0.3-0.1,0.7-0.1,1-0.2c0.1,0,0.2,0.1,0.2,0.1c0.1,0.6,0.3,0.3,0.4,0c0.1-0.1,0.1-0.2,0.2-0.3c0.3-0.2,0.4-0.4,0-0.6
		c0,0-0.1-0.1-0.1-0.1c0.3-0.8-0.4-0.4-0.6-0.4c-0.8,0.1-1.7,0.3-2.5,0.5c-0.6,0.2-1.2,0.5-1.8,0.7c-0.4,0.1-0.9,0.2-1.3,0.2
		c-0.5,0-1.1,0.1-1.6,0.1c-0.1,0-0.2,0-0.3-0.1c-0.2-0.1-0.3-0.2-0.5-0.4c0.1-0.1,0.3-0.2,0.4-0.3c1.6-1.1,3.4-1.5,5.1-2
		c1.6-0.5,3.3-1.1,4.9-1.7c0.8-0.3,1.6-0.8,2.5-0.7c0.6,0,0.9,0.4,0.6,0.9c-0.1,0.1-0.1,0.3-0.1,0.4c0,0.6,0,1.2,0,1.8
		c0,0.6,0.1,1.2,0.2,1.7c0,0.4-0.1,0.8-0.1,1.2c0,1.1,0,2.1,0,3.2C62.5,68.2,62.5,69.2,62.5,70.2 M51.6,70.3c0-0.1,0-0.3,0-0.4
		c-0.1,0.1-0.2,0.1-0.2,0.2c-0.2,0.5-0.3,1-0.4,1.5c0,0,0.1,0.1,0.1,0.2c0.1,0,0.2-0.1,0.2-0.1C51.4,71.2,51.5,70.8,51.6,70.3
		 M58.6,71.4c-0.1,0.3-0.3,0.5-0.4,0.8c0,0.1,0,0.2,0,0.2c0.1,0,0.2,0,0.2-0.1c0.2-0.2,0.4-0.4,0.5-0.7c0-0.1-0.1-0.2-0.2-0.4
		C58.7,71.3,58.7,71.4,58.6,71.4 M58.6,62c0.1-0.1,0.3-0.2,0.4-0.3c-0.2,0-0.3,0-0.5,0.1c0,0,0,0-0.1,0.1c-0.1,0.2-0.3,0.3-0.4,0.5
		C58.2,62.2,58.4,62.1,58.6,62 M58.9,59.8c0-0.1,0-0.1-0.1-0.2c-0.4,0.2-0.8,0.3-1.1,0.5c0,0,0,0.1,0,0.2c0,0,0.1,0,0.1,0
		C58.1,60.1,58.5,59.9,58.9,59.8 M61.9,69.2c0.2-0.1,0.3-0.8,0.2-0.9c0,0-0.2,0-0.2,0.1C61.8,68.6,61.8,68.9,61.9,69.2 M60.6,59.2
		c0.1,0,0.2,0,0.3-0.1c0,0,0.1-0.1,0.1-0.2c0,0,0-0.1,0-0.1c-0.3,0-0.7,0.1-1,0.1c0,0-0.1,0.1-0.1,0.2c0.1,0,0.1,0.1,0.2,0.1
		C60.1,59.2,60.3,59.2,60.6,59.2 M61.6,71.6c0,0.1,0,0.2-0.1,0.3c0.1-0.1,0.3-0.2,0.4-0.3c0,0,0-0.2-0.1-0.3
		C61.8,71.4,61.7,71.5,61.6,71.6 M49.8,67c-0.1,0.1-0.1,0.3-0.2,0.4c0.1,0,0.2,0.1,0.2,0c0.1-0.1,0.2-0.2,0.3-0.3
		C50,67.1,49.9,67,49.8,67 M57.8,61.2c0.1,0,0.2,0.1,0.3,0.1c0-0.1,0.1-0.1,0-0.2c-0.1-0.1-0.2-0.2-0.3-0.3
		C57.8,61,57.7,61.1,57.8,61.2 M54.1,69.4c0,0.1-0.1,0.2-0.1,0.3c0.2-0.1,0.3-0.2,0.5-0.4c0,0,0-0.1,0-0.1c0,0-0.1,0-0.1,0
		C54.2,69.2,54.2,69.3,54.1,69.4 M61.3,64.6c-0.1-0.1-0.1-0.1-0.2-0.2c0,0.1-0.1,0.2-0.1,0.4c0,0.1,0,0.2,0.1,0.3
		c0,0,0.1-0.1,0.1-0.1C61.2,64.9,61.2,64.8,61.3,64.6 M60.2,72.6C60.2,72.6,60.2,72.7,60.2,72.6c0.1,0,0.3-0.1,0.4-0.1
		c0,0,0-0.1,0-0.2c-0.1,0-0.2,0.1-0.3,0.1C60.3,72.4,60.3,72.5,60.2,72.6 M61.8,58.8c-0.1,0-0.2-0.1-0.4-0.1c0,0-0.1,0.1-0.1,0.2
		C61.5,58.9,61.6,58.9,61.8,58.8C61.7,58.8,61.7,58.8,61.8,58.8 M61.4,61.3c0-0.1-0.1-0.2-0.1-0.3c0,0.1-0.1,0.2-0.1,0.3
		c0,0.1,0.1,0.2,0.1,0.3C61.3,61.4,61.3,61.4,61.4,61.3 M50.3,74.9c-0.1,0-0.1,0-0.2,0.1C50,75,50,75.1,49.9,75.2
		c0,0,0.1,0.1,0.1,0.1c0.1-0.1,0.2-0.1,0.2-0.2C50.3,75,50.3,75,50.3,74.9 M61.9,63.3c0.1,0,0.2,0,0.3-0.1c0,0,0-0.2,0-0.3
		C62.1,63.1,62,63.2,61.9,63.3 M57.3,71.5c0-0.1,0.1-0.2,0.1-0.3c0,0-0.1,0-0.1,0C57.3,71.3,57.3,71.4,57.3,71.5 M60.9,65.6
		c-0.1,0-0.1,0-0.2-0.1c0,0.1,0,0.2,0,0.3C60.7,65.7,60.8,65.7,60.9,65.6 M50.1,72.6C50.1,72.6,50.1,72.5,50.1,72.6
		C50.1,72.5,50.1,72.5,50.1,72.6c-0.1,0-0.1,0.1-0.1,0.2C50.1,72.8,50.1,72.7,50.1,72.6 M58,72.6c0,0,0.1-0.1,0.1-0.1
		c-0.1,0-0.1,0-0.2-0.1C57.9,72.4,57.9,72.5,58,72.6z"/>
	<path class="st0" d="M56.4,76.3C56.3,76.3,56.3,76.2,56.4,76.3c0.4-0.3,0.8-0.7,1.2-0.9c0.7-0.4,1.6-0.4,2.1-1.1
		c0-0.1,0.2-0.1,0.2-0.1c0.2,0.3,0.5,0.1,0.6,0c0.5-0.4,1.1-0.1,1.6-0.4c0,0.1,0.1,0.2,0.1,0.2c-0.3,0.3-0.3,0.5,0,0.8
		c0.1,0.1,0.2,0.3,0.3,0.4c0,0.2-0.1,0.4-0.2,0.6c0-0.1-0.1-0.1-0.1-0.2c0-0.1,0-0.2,0-0.2c-0.1-0.2-0.2-0.5-0.3-0.7
		c-0.1-0.1-0.2-0.2-0.2-0.3c0-0.1-0.1-0.2-0.1-0.3c-0.1,0.1-0.3,0.1-0.3,0.2c0,0.3,0,0.7,0,1c0,0.1,0.1,0.2,0.2,0.3c0,0,0.1,0,0.1,0
		c0,0.1,0,0.3-0.1,0.3c-0.6,0.3-1.2,0.6-1.9,0.9c-0.6,0.3-1.2,0.5-1.8,0.7c-1.1,0.5-2.2,0.9-3.3,1.4c-0.9,0.3-1.8,0.6-2.7,1
		c-0.4,0.2-0.8,0.5-1.3,0.8c-0.1,0-0.1,0-0.2,0c0,0,0.1-0.1,0.1-0.1c0.6-0.7,1.5-1,2.3-1.3c0.8-0.3,1.6-0.6,2.4-0.9
		c0.9-0.3,1.8-0.7,2.7-1.1c0.1,0,0.3-0.2,0.3-0.3c0-0.5,0-0.9,0-1.4c0,0-0.1-0.1-0.1-0.1c-0.2,0.1-0.4,0.1-0.5,0.2
		c-0.1,0.1-0.1,0.3-0.1,0.5c0,0.3,0,0.6-0.1,0.9c0,0.1-0.2,0.2-0.3,0.3c0-0.2-0.1-0.4-0.1-0.5c0-0.1,0.1-0.1,0.1-0.2
		c0-0.2-0.1-0.4-0.1-0.7C56.8,76.1,56.6,76.2,56.4,76.3 M58.6,75.9c-0.1,0.3-0.1,0.7-0.2,1c0,0.1,0,0.2,0,0.3c0.1,0,0.2,0,0.2-0.1
		c0.2-0.1,0.3-0.2,0.5-0.3c0.5-0.2,0.6-0.5,0.4-0.9c0-0.1-0.1-0.2-0.1-0.2c0,0-0.1,0.1-0.2,0.1c-0.1,0.2-0.1,0.4-0.2,0.6
		c0,0.1-0.1,0.1-0.1,0.1c0-0.1-0.1-0.1,0-0.2c0.1-0.4,0.2-0.7,0.3-1.1c0-0.1,0-0.1,0.1-0.2c-0.1,0-0.2,0-0.2,0
		C58.7,75.2,58.6,75.5,58.6,75.9 M61.2,75.8C61,75.3,60.6,75,61,74.5c0.1-0.1,0-0.2,0.1-0.3c-0.1,0-0.3,0-0.4,0.1
		c-0.1,0.2-0.1,0.4-0.1,0.5c0,0.3,0,0.5,0,0.8c0,0.2,0,0.4,0,0.5c0.1-0.1,0.2-0.2,0.3-0.2C60.9,75.9,61,75.8,61.2,75.8 M60.2,75.4
		c-0.1-0.1-0.2-0.2-0.3,0c0,0.3,0,0.6,0,0.9c0,0.1,0.1,0.1,0.1,0.2c0-0.1,0.1-0.1,0.1-0.2C60.2,76,60.2,75.7,60.2,75.4 M60,74.7
		c0,0.1,0.1,0.1,0.1,0.2c0,0,0.1-0.1,0.1-0.1C60.1,74.8,60,74.8,60,74.7z"/>
	<path class="st0" d="M51,82.5c0.1,0.1,0.2,0.2,0.3,0.2c0-0.1,0-0.3,0-0.4c-0.1-0.3-0.3-0.6,0.1-0.8c0.1-0.1,0.2-0.1,0.4-0.1
		c0,0,0.1,0.2,0.1,0.2c-0.4,0.3-0.2,0.7-0.1,1c0.1,0.6,0.1,0.6-0.4,0.7c-0.2,0-0.3,0.2-0.4,0.3c-0.3,0.5-0.6,0.7-0.9,0.4
		c-0.2-0.2-0.3-0.4-0.2-0.7c0.1-0.4,0.2-0.8,0.4-1.2c0-0.1,0.2-0.3,0.3-0.3c0.1,0,0.3,0.1,0.4,0.2C50.8,82.2,50.9,82.3,51,82.5
		 M50.3,82.2c-0.1,0.2-0.1,0.4-0.2,0.5c0,0.4,0,0.7-0.1,1.1c0.5-0.2,0.5-0.6,0.6-1C50.7,82.7,50.8,82.3,50.3,82.2z"/>
	<path class="st0" d="M48.3,82.5c0.2-0.2,0.2-0.5,0.5-0.3c0,0,0.1-0.1,0.1-0.2c0-0.1-0.1-0.2-0.1-0.2c0.1-0.2,0.3-0.6,0.5-0.6
		c0.4-0.1,0.3,0.4,0.4,0.6c0,0.6-0.1,1-0.6,1.4c-0.1,0.1-0.1,0.4-0.2,0.6c0,0.1-0.1,0.2-0.1,0.3c-0.1-0.1-0.2-0.2-0.2-0.2
		c0-0.3,0-0.6,0-0.9C48.5,82.8,48.5,82.6,48.3,82.5C48.2,82.6,48.2,82.6,48.3,82.5C48.2,82.6,48.2,82.6,48.3,82.5 M49.3,81.7
		c-0.1,0-0.1,0-0.2-0.1c-0.1,0.3-0.1,0.6-0.2,0.9c0,0.1,0.1,0.1,0.1,0.2c0.1,0,0.1-0.1,0.2-0.1C49.3,82.3,49.3,82.1,49.3,81.7z"/>
	<path class="st0" d="M54,81.7c-0.1,0.2-0.1,0.3-0.2,0.4c0,0-0.1,0-0.1,0c0-0.1-0.1-0.3,0-0.4c0.1-0.5,0.2-0.9,0.4-1.4
		c0.1-0.1,0.3-0.3,0.4-0.3c0.1,0,0.3,0.2,0.3,0.4c0.1,0.4,0.1,0.8,0.1,1.2c0,0.1-0.1,0.1-0.1,0.2c0-0.1-0.1-0.1-0.1-0.2c0,0,0,0,0,0
		c-0.1-0.1-0.1-0.4-0.2-0.4C54.2,81.1,54.1,81.3,54,81.7C54.1,81.6,54.1,81.6,54,81.7 M54.3,80.3c0,0.1,0,0.2,0,0.3
		c0,0.1,0.1,0.1,0.1,0.2c0,0,0.1-0.1,0.1-0.1C54.6,80.5,54.7,80.3,54.3,80.3z"/>
	<path class="st0" d="M56.3,76.3c0,0.2,0,0.5,0,0.7c0.1,0.4-0.4,0.9-0.8,0.7c-0.1,0-0.2-0.2-0.3-0.4c0-0.1,0.1-0.2,0.2-0.4
		c0-0.2,0-0.4,0-0.6c0.1-0.2,0.2-0.3,0.3-0.5c0.1,0.1,0.2,0.2,0.4,0.3C56.1,76.3,56.2,76.3,56.3,76.3 M55.8,76.6c0,0.1,0,0.1,0,0.2
		c0,0.1-0.1,0.2-0.1,0.4c0,0,0.1,0,0.1,0c0.1-0.1,0.1-0.3,0.1-0.4C56,76.8,55.9,76.7,55.8,76.6z"/>
	<path class="st0" d="M53.1,82.4c-0.1,0.2-0.1,0.3-0.2,0.4c-0.1-0.1-0.2-0.2-0.2-0.3c0-0.4,0.1-0.7,0.2-1.1c0-0.1,0-0.3,0-0.4
		c-0.1,0-0.2,0.1-0.3,0.1c-0.1,0-0.2,0.1-0.3,0.1c0.1-0.1,0.1-0.3,0.2-0.3c0.4-0.2,0.9-0.5,1.3-0.7c0,0,0.1,0,0.1,0
		c0,0-0.1,0.1-0.1,0.1c-0.4,0.1-0.4,0.5-0.4,0.8C53.2,81.5,53.2,81.9,53.1,82.4z"/>
	<path class="st0" d="M52.8,77.7c0.2-0.1,0.4-0.2,0.6-0.3c0,0.2-0.1,0.4-0.1,0.7c-0.1,0.3-0.1,0.6-0.2,0.9c0,0-0.1,0.1-0.1,0.1
		c0,0-0.1-0.1-0.1-0.1c0-0.2,0-0.5,0-0.7c0-0.1,0-0.2,0-0.2c0,0-0.2,0-0.2,0c-0.1,0.3-0.6-0.2-0.6,0.4c0,0.3-0.1,0.6-0.2,0.9
		c0,0.1-0.1,0.1-0.1,0.1c0,0-0.1-0.1-0.1-0.1c0-0.4,0.1-0.8,0.1-1.1c0-0.1,0.2-0.2,0.4-0.3C52.4,77.8,52.6,77.8,52.8,77.7z"/>
	<path class="st0" d="M50.3,79c0-0.2,0.1-0.3,0.1-0.4c0.1-0.1,0.2-0.2,0.3-0.2c0,0,0.1,0.2,0.2,0.3c0.1,0.1,0.1,0.2,0.2,0.4
		c0-0.1,0.1-0.3,0.1-0.4c0-0.2,0.1-0.3,0.1-0.5c0,0,0.1-0.1,0.2-0.1c0,0,0.1,0.1,0.1,0.1c-0.1,0.4-0.3,0.9-0.4,1.3
		c-0.1,0.3-0.3,0.2-0.4-0.1c0-0.1-0.1-0.1-0.2-0.2c0,0.1-0.1,0.2-0.1,0.3c0,0.2-0.1,0.3-0.1,0.5c0,0.1-0.1,0.1-0.1,0.2
		c0-0.1-0.1-0.2-0.1-0.3C50.2,79.5,50.3,79.2,50.3,79z"/>
	<path class="st0" d="M55.2,77.4c-0.1,0.1-0.3,0.2-0.4,0.3c-0.1,0.1-0.3,0.1-0.5,0.2c-0.1,0-0.1,0.2-0.1,0.3c0.1,0,0.2,0,0.3,0
		c0.1,0,0.1,0,0.2,0c0,0.1,0,0.1-0.1,0.1c-0.2,0.1-0.4,0.1-0.6,0.1c0,0-0.1-0.3-0.1-0.4c0-0.5,0-1.1,0.7-1.2c0.1,0,0.2,0,0.3,0
		c-0.1,0.1-0.1,0.2-0.2,0.3c-0.1,0.1-0.3,0.2-0.4,0.4c0.2,0,0.4,0,0.7,0C55,77.4,55.1,77.4,55.2,77.4z"/>
	<path class="st0" d="M49.9,78.9c-0.2,0.6-0.4,1.2-0.9,1.6c-0.1,0-0.2,0.1-0.2,0c-0.1-0.1-0.1-0.2-0.1-0.3c0.1-0.3,0.2-0.6,0.3-0.9
		c0-0.1,0.1-0.1,0.1-0.2c0,0.1,0,0.2,0,0.2c-0.1,0.2-0.2,0.5-0.2,0.7c0,0.1,0,0.2,0,0.3c0.1-0.1,0.2-0.1,0.3-0.2
		C49.4,79.8,49.6,79.3,49.9,78.9z"/>
</g>
</svg>
