<?xml version="1.0" encoding="utf-8"?>
<!-- Generator: Adobe Illustrator 26.2.1, SVG Export Plug-In . SVG Version: 6.00 Build 0)  -->
<svg version="1.1" id="Layer_1" xmlns="http://www.w3.org/2000/svg" xmlns:xlink="http://www.w3.org/1999/xlink" x="0px" y="0px"
	 viewBox="0 0 170.8 78" style="enable-background:new 0 0 170.8 78;" xml:space="preserve">
<style type="text/css">
	.st0{fill:#000000;}
	.st1{fill:none;}
</style>
<g>
	<path class="st0" d="M165.4,45.7c0,0.4,0,0.7,0.1,1c0.1,0.4,0.1,0.9,0.2,1.4c0.1,0.6,0.2,1.1,0.2,1.6c0,0.2,0,0.3,0,0.5
		c-0.1,0.9,0.1,1.8-0.1,2.6c-0.1,0.3,0.1,0.6,0.1,0.9c0.1,0.7,0.3,1.3,0.4,2c0.1,0.4,0.1,0.8,0.2,1.2c0.2,0.8,0.2,1.6,0.4,2.3
		c0,0.2,0,0.4,0,0.5c0,0.5,0,0.9,0.1,1.4c0.1,0.7,0.1,1.4-0.4,2c-0.6,0.7-1.3,1.2-2.3,1.4c-1.1,0.1-2.2,0.3-3.3,0.3
		c-0.6,0-1.2,0.3-1.8,0.3c-0.4,0-0.8,0.1-1.3,0.2c-0.7,0.1-1.5,0.3-2.2,0.4c-0.6,0.1-1.3,0.3-1.9,0.4c-1,0.2-2,0.2-3,0.5
		c-1,0.3-2.2,0.3-3.2,0.6c-0.9,0.2-1.8,0.3-2.8,0.5c-0.3,0.1-0.6,0-0.9,0c-0.4,0-0.5,0.1-0.5,0.5c0,0.1,0.1,0.2,0.1,0.4
		c0,0.2,0,0.4,0,0.6c-0.1,0.4-0.3,0.5-0.7,0.4c-0.4,0-0.8-0.1-1-0.6c-0.1-0.3-0.1-0.6-0.1-0.9c0-0.5,0-0.5-0.5-0.6
		c-0.5-0.1-0.7-0.3-0.7-0.8c0-0.1,0.1-0.3,0.2-0.4c0-0.1,0.1-0.1,0.2-0.2c-0.1,0-0.2-0.1-0.3-0.1c-0.7-0.1-1.1-0.5-1.2-1.1
		c0-0.2,0-0.4,0.3-0.4c0.1,0,0.3,0.1,0.3-0.2c0-0.2-0.1-0.2-0.3-0.3c-0.4-0.2-0.7-0.4-1-0.7c-1-0.8-1.9-1.6-2.7-2.5
		c-0.2-0.2-0.4-0.5-0.6-0.7c-0.3-0.3-0.6-0.6-1-0.8c-1-0.6-2-1.3-2.9-2c-0.8-0.7-1.5-1.4-2.3-2.1c-0.3-0.3-0.5-0.6-0.4-1
		c0-0.9,0-1.7,0-2.6c0.1-1.3,0-2.7,0.2-4c0.1-0.5,0-0.9-0.3-1.3c-0.1-0.2-0.2-0.4-0.3-0.6c-0.1-0.3,0.2-0.6,0.5-0.5
		c0.5,0.3,0.4,0,0.5-0.3c0-0.3,0.2-0.5,0.3-0.8c0.1-0.2,0.2-0.5,0.6-0.5c0.3,0,0.6,0.3,0.7,0.6c0.1,0.2,0.1,0.4,0.2,0.7
		c0.2,0.4,0.1,1,0,1.6c-0.1,0.3-0.1,0.7-0.2,1.1c-0.2,0.9,0,1.7-0.2,2.6c-0.2,1.4,0,2.8-0.1,4.1c0,0.2,0.1,0.2,0.2,0.3
		c1.3,1,2.7,1.8,4,2.7c1,0.6,2,1.3,2.7,2.4c0.2,0.2,0.5,0.4,0.7,0.6c0.2,0.1,0.3,0.3,0.5,0.5c0.1,0.1,0.2,0.2,0.2,0.3
		c0-0.1,0.1-0.3,0-0.4c-0.1-0.4,0.1-0.8-0.1-1.2c-0.1-0.1,0.1-0.4,0.1-0.6c0-1,0.1-2,0-3c-0.1-0.9,0.1-1.8-0.2-2.7c0,0,0-0.1,0-0.1
		c0-1.2-0.1-2.4-0.1-3.7c0-0.5,0.1-1,0.1-1.4c0-0.2-0.1-0.5-0.1-0.7c0-0.1-0.2-0.3-0.3-0.3c-0.5-0.2-1.1-0.5-1.6-0.7
		c-0.9-0.3-1.5-1-2.3-1.6c-0.7-0.6-1.6-0.8-2.4-1.1c-0.5-0.2-1.1-0.3-1.6-0.3c-0.2,0-0.4,0.1-0.6,0.1c-0.5,0.1-1.1,0.2-1.6,0.3
		c-1.4,0.1-2.8,0.4-4.2,0.7c-0.8,0.2-1.6,0.3-2.4,0.3c-0.8,0-1.6,0.3-2.5,0.4c-0.5,0.1-1,0.1-1.5,0.1c-0.8,0-1.6,0.1-2.3,0.3
		c-0.5,0.1-1,0.1-1.5,0.1c-0.8,0.1-1.5,0.2-2.3,0.3c-1.4,0.2-2.7,0.4-4.1,0.4c-0.4,0-0.8,0.3-1.2,0c-0.4,0.2-0.8,0.1-1.2,0.1
		c-1.5,0.1-3,0-4.5,0.2c-1.2,0.1-2.4,0-3.7,0.1c-0.3,0-0.5,0.1-0.8,0.1c-0.1,0-0.3,0-0.4,0c-0.6-0.2-1.1-0.2-1.7,0
		c-0.1,0-0.3,0-0.5,0c-0.6,0-1.2,0-1.8,0c-1.3,0-2.5,0-3.8,0.2c-0.6,0.1-1.3,0-1.9,0.1c-1,0.1-2.1,0.1-3.1,0.3
		c-0.9,0.1-1.7,0.2-2.6,0.3c-0.6,0.1-1.3,0.1-1.9,0.4c-0.1,0-0.2,0-0.3,0c-0.9,0-1.7,0.1-2.6,0.3c-0.4,0.1-0.8,0-1.1,0
		c-1.3,0-2.6,0-3.9,0.1c-1.1,0.1-2.2,0.2-3.3,0.3c-0.8,0.1-1.6-0.1-2.3,0.1c-1.5,0.4-3,0.1-4.4,0.3c-1.3,0.2-2.7,0-4,0.1
		c-0.6,0-1.3,0.2-1.9,0.3c-0.6,0.1-1.2,0.1-1.8,0.1c-0.8,0-1.6,0.1-2.3,0.3c-0.1,0-0.3,0-0.4,0c-1.1,0-2.1-0.1-3.2,0
		c-1,0.1-2,0-3,0.4c-0.3,0.1-0.7,0.1-1.1,0.1c-0.8,0.1-1.6,0.2-2.4,0.3c-0.3,0-0.3,0.2-0.2,0.3c0.2,0.3,0.3,0.7,0.7,0.9
		c0.3,0.1,0.5,0.5,0.5,0.9c0,0.3,0.1,0.7-0.1,1c0,0,0.1,0.3,0.2,0.3c0.9,0.5,1,0.9,0.7,1.8c-0.3,1.1-0.6,2.1-0.7,3.2
		c0,0.5-0.2,0.9-0.3,1.4c-0.1,0.6,0,1.1,0.1,1.6c0,0.7,0.2,1.4,0.2,2.1c0.2,2.1,0,4.2,0.1,6.3c0.1,1.1,0,2.3,0.1,3.4
		c0,0.2,0.1,0.4,0.2,0.6c0.1,0.2,0.3,0.4,0.3,0.6c-0.1,0.3-0.2,0.7-0.5,0.9c-0.6,0.5-1.4,0.8-2.2,0.9c-0.8,0.1-1.6,0.2-2.3,0.4
		c-0.1,0-0.2,0-0.3,0c-0.2,0-0.4,0-0.7,0c-2.8,0-5.7,0.1-8.5,0.1c-0.5,0-1.1-0.2-1.6-0.2c-0.1,0-0.1,0-0.2,0c-1.5,0-2.9-0.1-4.4-0.1
		c-0.5,0-0.9,0.1-1.4,0c-0.3,0-0.5,0.1-0.8,0.1c-0.1,0-0.2,0-0.3,0c-1.2,0-2.4,0-3.6-0.2c-0.9-0.1-1.9-0.2-2.8-0.3c-1-0.1-2,0-3-0.1
		c-0.7-0.1-1.3,0-2-0.2c-0.4-0.1-0.9-0.1-1.4-0.2c-0.5-0.1-1.1-0.3-1.6-0.4c-0.1,0-0.2-0.1-0.4-0.1c-0.5-0.1-1-0.6-1.1-1.1
		c-0.1-0.3,0.2-0.4,0.4-0.5c0.3-0.1,0.4-0.3,0.1-0.5c-0.4-0.4-0.4-0.9-0.5-1.3c-0.1-0.5-0.1-0.9-0.1-1.4c-0.1-1.2-0.1-2.3-0.1-3.5
		c0-0.4,0.1-0.9,0.1-1.3c0-0.4-0.1-0.8,0.1-1.2c0-0.1,0-0.2,0-0.3c0-0.8,0-1.5,0.1-2.3c0.1-1.2,0.3-2.3,0.5-3.5
		c0.1-0.4,0.3-0.8,0.5-1.1c0.3-0.4,0.9-0.4,1,0.1c0.1,0.4,0.2,0.4,0.6,0.3c0.5-0.1,1.1,0,1.6-0.2c0.7-0.2,1.4,0,2.1-0.4
		c0.3-0.2,0.8-0.1,1.1-0.2c1.1-0.2,2.3-0.1,3.4-0.1c0.1,0,0.2,0,0.3,0c1,0,1.9-0.1,2.9-0.3c0,0,0,0,0.1,0c1.9,0,3.8-0.1,5.7-0.1
		c0.5,0,0.9,0.1,1.4,0.1c1,0,2-0.2,2.9-0.4c1-0.2,1.9-0.6,3-0.7c0.6-0.1,1.3-0.3,1.9-0.4c0.2,0,0.4,0,0.5,0c1.4,0,2.8-0.1,4.1-0.3
		c0.1,0,0.2,0,0.3,0c0.6,0.1,1.1-0.2,1.7,0c0,0,0.1-0.1,0.2-0.2c0.1-0.3-0.1-0.6,0.1-0.8c-0.1-0.1-0.1-0.2-0.2-0.2
		c-0.9,0.1-1.8-0.1-2.6,0.2c-0.3,0.1-0.8,0.1-1.1,0.2c-0.6,0.1-1.1,0.2-1.7,0.3c-0.4,0.1-0.8,0.1-1.2,0.2c-0.4,0.1-0.9,0.2-1.3,0.2
		c-0.2,0-0.4,0-0.5,0c-1.5,0-2.9,0-4.4,0c-1,0-1.9,0.1-2.8,0.4c-0.4,0.1-0.8,0.1-1.2,0.1c-0.7,0.1-1.3,0-2,0.2
		c-0.7,0.1-1.4,0.1-2,0.1c-0.6,0-1.1-0.1-1.6-0.3c-0.1,0-0.3,0-0.5,0c-1.1,0-2.3,0-3.4,0c-0.7,0-1.4,0.3-2.1,0.3
		c-0.3,0-0.7,0.1-1,0.1c-0.6,0-0.7,0.1-0.6,0.6c0,0.3-0.1,0.5-0.3,0.7c-0.3,0.3-0.7,0.2-0.9-0.2c-0.1-0.2-0.2-0.4-0.3-0.6
		c-0.1-0.1-0.1-0.3-0.2-0.4c-0.2-0.2-0.1-0.3-0.1-0.5c0.1-0.6,0.3-1.1,0.4-1.7c0-0.2,0.1-0.3,0.1-0.5c0.1-0.2,0.3-0.4,0.5-0.4
		c0.1,0,0.4,0.2,0.5,0.4c0.1,0.2,0.3,0.4,0.3,0.7c0,0.4,0.5,0.6,0.9,0.5c0.8-0.2,1.5-0.3,2.3-0.4c1-0.2,2.1-0.1,3.1-0.1
		c0.6,0,1.2,0.1,1.8,0.2c0.5,0,1.1,0.2,1.6-0.1c0.1-0.1,0.3,0,0.5,0c0.9,0,1.7-0.1,2.5-0.3c0.5-0.1,0.9-0.1,1.4-0.1
		c2.3-0.1,4.6-0.1,6.9-0.2c1.1,0,2.1-0.2,3.2-0.5c0.6-0.2,1.3-0.2,1.9-0.3c1.1-0.2,2.1-0.3,3.2-0.6c0.4-0.1,0.5-0.2,0.5-0.6
		c0-0.9-0.1-1-0.9-0.8c-0.7,0.1-1.5,0.2-2.2,0.3c-1.4,0.2-2.8,0.2-4.1,0.3c-1.2,0.1-2.3,0.2-3.5,0.3c-0.7,0.1-1.4,0-2.1,0.1
		c-0.8,0.1-1.6,0.1-2.5,0.3c-0.1,0-0.2,0-0.3,0c-0.8,0-1.6,0.1-2.4,0.3c-0.1,0-0.3,0-0.4,0c-1.1,0-2.3,0-3.4,0
		c-0.3,0-0.6-0.2-0.9-0.1c-0.2,0.1-0.6,0.1-0.9,0c-0.7-0.2-1.5-0.2-2.2-0.1c-1,0.1-1.9,0-2.8,0.1c-1.1,0.2-2.2,0.1-3.3,0.1
		c-0.1,0-0.2,0-0.3,0c-0.1,0-0.2,0.1-0.1,0.3c0.5,1,0.5,2,0.5,3c0,0.4-0.4,0.7-0.8,0.4c-0.2-0.1-0.3-0.3-0.4-0.4
		c-0.3-0.5-0.5-1-0.4-1.6c0.1-0.5-0.2-0.9-0.3-1.4c0-0.1-0.3-0.3-0.4-0.4C4.3,53,3.8,53,3.4,53c-0.3,0-0.7,0.1-0.9-0.4
		c0,0-0.2-0.1-0.2,0c-0.1,0-0.1,0.1-0.1,0.2c-0.1,0.8-0.2,0.9-1,0.5c-0.7-0.4-1-1-1.1-1.8c0-0.3-0.2-0.7-0.1-1
		c0.2-1.7,0.1-3.4,0.1-5.1c0-0.4,0.2-0.9,0.1-1.3c-0.2-0.7-0.1-1.4-0.1-2c0-0.2,0-0.5,0-0.7c0-0.7,0.1-1.4,0.3-2.1
		c0-0.1,0-0.3,0-0.4c0-0.8,0.2-1.6,0.2-2.5c0.1-1.1,0.5-2,0.7-3c0.3-1.7,0.9-3.3,1.5-4.8c0.5-1.5,1-3.1,1.7-4.6
		c0.5-1.1,0.9-2.2,1.4-3.2c0.7-1.3,1.4-2.6,2.2-3.9c0.4-0.7,0.9-1.3,1.4-2c0.1-0.1,0.2-0.2,0.3-0.3c0.1,0,0.3-0.1,0.4,0
		c0.2,0.1,0.3,0.4,0.4,0.6c0.2,0.3-0.1,0.4-0.2,0.6c-0.1,0.1-0.1,0.3-0.1,0.4c0.2,0,0.3,0.1,0.5,0c0.4-0.1,0.7-0.2,1.1-0.2
		c1.1,0,2.2-0.3,3.3-0.3c0.7,0,1.4,0,2.2-0.1c0.4,0,0.8-0.1,1.2-0.1c0.4,0,0.8,0.1,1.2-0.1c0,0,0.1,0,0.1,0c1,0,1.9-0.1,2.9-0.1
		c0.6,0,1.2-0.1,1.8-0.3c0.4-0.1,0.8-0.1,1.2-0.1c0.8-0.1,1.5-0.3,2.3-0.4c1-0.1,2-0.4,2.9-0.6c1.3-0.2,2.6-0.5,3.8-0.8
		c0.7-0.1,1.5-0.2,2.2-0.3c0.7-0.1,1.3-0.3,2-0.4c0.8-0.1,1.5-0.2,2.3-0.3c1.1-0.2,2.1-0.2,3.2-0.5c0.6-0.2,1.2-0.2,1.8-0.3
		c1.4-0.3,2.8-0.4,4.2-0.8c0.6-0.2,1.2-0.2,1.8-0.3c0.7-0.1,1.5-0.3,2.2-0.4c0.2,0,0.3,0,0.5,0c0.6,0,1.1-0.1,1.7-0.3
		c0.4-0.1,0.8-0.1,1.2-0.1c0.7-0.1,1.5,0,2.2-0.2c0.7-0.2,1.5,0,2.2-0.2c0.4-0.1,0.9-0.1,1.3-0.1c0.7-0.1,1.4-0.1,2.1-0.1
		c0.8-0.1,1.5-0.3,2.3-0.4c0.4-0.1,0.8-0.1,1.2-0.1c0.8,0,1.5-0.1,2.3-0.3c0.5-0.1,1-0.1,1.6-0.1c0.3,0,0.6-0.1,0.9-0.1
		c0.3,0,0.6,0.1,0.9-0.1c0.1-0.1,0.3,0,0.4,0c0.8,0,1.6-0.1,2.5-0.3c0.5-0.1,1-0.1,1.5-0.2C80,7,80.9,7.1,81.8,7
		c0.8-0.1,1.5-0.1,2.3-0.1c1.1-0.1,2.1-0.1,3.2-0.1c1-0.1,2-0.1,2.9-0.3c0.6-0.1,1.1-0.1,1.7-0.1c0.9-0.1,1.7,0,2.6-0.2
		C95.3,6,96.2,6.1,97,6.1c0.9-0.1,1.8,0,2.6-0.2c0.6-0.1,1.1-0.1,1.6-0.1c1-0.1,1.9-0.1,2.8-0.3c0.5-0.1,1-0.1,1.4-0.1
		c0.5-0.1,1-0.2,1.5-0.2c0.4-0.1,0.9-0.1,1.3-0.1c1.4-0.1,2.7-0.4,4-0.7c0.6-0.1,1.3-0.2,1.9-0.3c0.6-0.1,1.2-0.3,1.8-0.4
		c0.3-0.1,0.7-0.1,1-0.2c0.7-0.1,1.4-0.2,2.1-0.4c0.8-0.2,1.7-0.3,2.5-0.4c0.6-0.1,1.1-0.3,1.7-0.4c0.4-0.1,0.9-0.1,1.3-0.1
		c0.9-0.1,1.8-0.1,2.7-0.3c0.8-0.1,1.7-0.2,2.5-0.3c0.9-0.1,1.8-0.3,2.7-0.4c0.6-0.1,1.3-0.1,1.9-0.1c1.1-0.1,2.1-0.1,3.2-0.1
		c0.3,0,0.4-0.1,0.4-0.4c0.1-0.6,0.2-0.7,0.7-0.4c1.1,0.6,2.2,1.1,3.3,1.8c0.8,0.5,1.6,1.1,2.4,1.6c0.5,0.3,1,0.7,1.5,1
		c0.6,0.4,1.3,0.9,2,1.3c0.9,0.6,1.8,1.2,2.7,1.8c1.3,0.9,2.6,1.8,3.9,2.7c1.1,0.7,2.1,1.4,3.3,2c1.8,1,3.5,2,5.1,3.2
		c0.8,0.6,1.7,1.1,2.5,1.7c0.8,0.6,1.6,1.1,2.3,1.8c0.7,0.6,1.3,1.2,2,1.9c0.2,0.2,0.5,0.5,0.7,0.8c0.4,0.8,0.5,1.5-0.1,2.3
		c-0.3,0.4-0.5,0.9-0.8,1.3c-0.2,0.3,0,0.5,0.1,0.6c0.3,0.5,0.5,1.1,0.3,1.7c-0.1,0.2,0,0.3,0,0.5c0,1.1-0.1,2.2-0.3,3.3
		c-0.1,0.4-0.1,0.9-0.1,1.4c-0.1,0.9-0.1,1.8-0.3,2.7c-0.1,0.8-0.2,1.5-0.3,2.3c-0.1,0.7-0.1,1.4-0.4,2.1c-0.1,0.3-0.4,0.4-0.7,0.4
		c-0.5-0.1-0.8-0.3-1.2-0.6c-0.5-0.5-1.1-0.7-1.8-0.4c-0.4,0.2-0.8,0.2-1.2,0.3c-0.2,0-0.4,0.1-0.4,0.3c-0.1,0.4-0.3,0.6-0.7,0.7
		c-0.1,0-0.2,0.1-0.3,0.1c-0.2,0.1-0.4,0.1-0.5,0.2c-0.1,0.1,0.1,0.3,0.1,0.5c0,0.5,0,0.9-0.2,1.3c-0.1,0.3,0,0.5,0.3,0.5
		c0.4,0,0.9,0.2,1.3-0.2c0.3-0.3,0.7-0.1,0.9,0.1c0.5,0.5,1.1,1.1,1.1,1.9C165.2,45.4,165.3,45.5,165.4,45.7 M121.1,3.2
		c-0.1,0-0.1,0-0.2,0c0,0,0,0.1,0,0.1c0.1,0,0.1-0.1,0.3-0.1c0,0,0-0.1,0-0.1C121.2,3.2,121.2,3.2,121.1,3.2 M163,40
		c-0.1,0-0.1,0-0.2,0c0,0,0,0.1,0,0.1c0.1,0,0.1-0.1,0.3-0.1c0,0,0-0.1,0-0.1C163.1,40,163.1,40,163,40 M6.1,34.9c0.1,0,0.2,0,0.3,0
		c1-0.3,1.9-0.4,2.9-0.4c1,0,2.1,0,3.1,0c0.2,0,0.3,0,0.5,0c0.5-0.1,1-0.2,1.6-0.3c1.5-0.1,3.1,0.1,4.6-0.1c0.8-0.1,1.5,0,2.3-0.1
		c0.6-0.1,1.3-0.1,1.9-0.1c1.1-0.1,2.1-0.1,3.2-0.3c0.9-0.1,1.8-0.1,2.7-0.2c0.7,0,1.5,0,2.2-0.2c0.4-0.1,0.8,0,1.2-0.1
		c0.9-0.2,1.8-0.3,2.7-0.4c1.6-0.1,3.2,0,4.7-0.3c1.2-0.2,2.3-0.1,3.5-0.2c0.9,0,1.8-0.1,2.7-0.1c0.1,0,0.1,0,0.2,0
		C47,32.1,47.5,32,48,32c0.6-0.1,1.1,0,1.7-0.2c0.7-0.1,1.4-0.3,2.2-0.3c0.1,0,0.2,0,0.3,0c0.7-0.3,1.4-0.1,2.1-0.2
		c0.7-0.2,1.5-0.1,2.3-0.2c0.5,0,0.9,0,1.4-0.2c0.7-0.2,1.4,0.1,2.1-0.3c0.3,0.2,0.7,0.1,1,0c0.9-0.1,1.7-0.2,2.6-0.3
		c1.4-0.1,2.9,0,4.3-0.3c0.5-0.1,1-0.1,1.5-0.1c0.3,0,0.7,0,1-0.1c0.9-0.3,1.9-0.2,2.8-0.4c0.8-0.1,1.6-0.1,2.4-0.2
		c0.1,0,0.1,0,0.2,0c0.5-0.1,1-0.3,1.4-0.2c0.9,0,1.9-0.2,2.8-0.3c0.9-0.1,1.7-0.4,2.6-0.4c0.4,0,0.7-0.1,1.1-0.1
		c0.9-0.2,1.8-0.3,2.7-0.4c0.1,0,0.3,0,0.4,0c0.5-0.2,1-0.3,1.6-0.3c0.2,0,0.3,0,0.5,0c0.6-0.1,1.2-0.3,1.9-0.4
		c0.6-0.1,1.2-0.2,1.8-0.3c1.1-0.2,2.2-0.5,3.3-0.7c0.9-0.1,1.8-0.2,2.7-0.3c0.4,0,0.9,0,1.3-0.1c0.8-0.2,1.6-0.3,2.5-0.4
		c0.4,0,0.8,0,1.2-0.1c0.7-0.3,1.5-0.3,2.3-0.4c0.5,0,0.9,0,1.4-0.2c0.3-0.1,0.6-0.1,1-0.1c0.3,0,0.7-0.1,1-0.1
		c0.6-0.1,1.2,0,1.8-0.2c0.4-0.1,0.9,0,1.3-0.1c1.1-0.3,2.1-0.4,3.2-0.5c1.1-0.1,2.3-0.3,3.4-0.4c0.9-0.1,1.8-0.1,2.6-0.1
		c1.6-0.1,3.3-0.1,4.9-0.1c0.1,0,0.2,0,0.3,0c0.5-0.1,1.1-0.2,1.6-0.2c0.7-0.1,1.5,0,2.2-0.2c0.4-0.1,0.9,0,1.3-0.1
		c0.9-0.3,1.9-0.2,2.9-0.4c0.6-0.1,1.2-0.1,1.8-0.2c0.5,0,1,0,1.5-0.2c0.7-0.2,1.4,0,2.1-0.2c3.2-0.1,6.4,0.1,9.6-0.1
		c0.7-0.1,1.4,0,2.1-0.1c0.9-0.1,1.9-0.1,2.9-0.3c0.4-0.1,0.7,0,1.1,0c0.3,0,0.6-0.1,1-0.1c0.3,0,0.6,0,1,0c0.6,0.1,1.3,0.1,1.9,0.1
		c0.1,0,0.2,0,0.3,0c0.9,0.3,1.9,0.2,2.8,0.1c0.8-0.1,1.6,0,2.5-0.2c0.5-0.1,1-0.2,1.4-0.3c0.3-0.1,0.2-0.1,0.1-0.3
		c-0.4-0.4-0.9-0.8-1.4-1.1c-0.6-0.4-1.2-0.9-1.8-1.3c-1.9-1.4-4-2.5-6-3.6c-1.3-0.7-2.6-1.6-3.8-2.5c-1-0.8-2.1-1.5-3.2-2.2
		c-0.6-0.4-1.3-0.8-2-1.3c-0.6-0.4-1.2-0.9-1.8-1.3c-1-0.7-1.9-1.4-2.9-2.1c-0.6-0.4-1.1-0.8-1.7-1.1c-0.7-0.4-1.3-0.7-1.9-1.2
		c-0.2-0.1-0.4-0.3-0.6-0.3c-0.3,0-0.6,0.2-0.9,0.3c-0.6,0.3-1.1,0.8-1.8,0.6c0,0-0.1,0.1-0.1,0.1c-0.8,0.3-1.6,0.3-2.4,0.5
		c-0.5,0.1-1,0.1-1.6,0.1c-1,0.1-1.9,0.3-2.9,0.4c-0.8,0.1-1.7,0.1-2.5,0.3c-0.4,0.1-0.8,0.1-1.2,0.1c-0.8,0.1-1.5,0.3-2.3,0.4
		c-0.8,0.1-1.7,0.3-2.5,0.4c-0.9,0.2-1.9,0.3-2.8,0.5c-0.6,0.1-1.3,0.2-1.9,0.3c-0.6,0.1-1.2,0.2-1.8,0.3c-0.4,0.1-0.9,0-1.4,0.2
		c-1.2,0.4-2.4,0.5-3.6,0.6c-0.9,0.1-1.9,0.2-2.8,0.3c-0.8,0.1-1.5,0.2-2.3,0.3c-1,0.1-1.9,0.2-2.9,0.3c-0.8,0.1-1.6,0-2.4,0.1
		c-0.8,0.1-1.7,0-2.5,0.1c-0.8,0.1-1.6,0.1-2.4,0.1C93.3,8.8,92,8.9,90.7,9c-1.1,0.1-2.3,0.2-3.4,0.3c-1.3,0.1-2.6,0.1-3.9,0.1
		c-0.5,0-1.1-0.1-1.6,0c-0.7,0.1-1.4,0.3-2,0.3c-0.2,0-0.3,0-0.5,0c-0.8,0.2-1.5,0.3-2.3,0.3c-0.1,0-0.2,0-0.3,0
		c-0.5,0.1-0.9,0.2-1.4,0.3c-0.9,0.1-1.7,0.1-2.6,0.3c-0.7,0.1-1.5,0.2-2.2,0.3c-0.4,0.1-0.9,0-1.3,0.1c-1.1,0.3-2.2,0.4-3.3,0.4
		c-0.7,0-1.5,0.1-2.2,0.1c0,0,0,0-0.1,0c-0.8,0.2-1.6,0.3-2.4,0.3c-0.1,0-0.2,0-0.3,0c-0.9,0.2-1.9,0.2-2.9,0.4
		c-0.9,0.2-1.8,0.2-2.7,0.3c-0.4,0-0.7,0.2-1,0.2c-0.7,0.1-1.4,0.2-2.1,0.4c-0.7,0.2-1.4,0.4-2.1,0.3c-0.1,0-0.1,0.1-0.2,0.1
		c-0.4,0.1-0.7,0.1-1.1,0.2c-0.1,0-0.3,0-0.4,0c-0.7,0.3-1.5,0.4-2.3,0.5c-0.4,0.1-0.7,0.3-1.1,0.3c-0.9,0-1.8,0.2-2.7,0.3
		c-0.4,0-0.7,0.2-1,0.2c-0.6,0.1-1.3,0.2-1.9,0.3c-0.7,0.1-1.5,0.2-2.2,0.3c-0.7,0.1-1.4,0.3-2.1,0.4c-0.4,0.1-0.8,0.2-1.2,0.3
		c-0.6,0.1-1.2,0.2-1.7,0.4c-0.6,0.2-1.2,0.2-1.8,0.3c-1,0.2-2,0.4-2.9,0.6c-1,0.1-2,0.1-3,0.2c-0.6,0.1-1.3-0.1-1.9,0
		c-0.7,0.2-1.5,0-2.2,0.2c-0.6,0.2-1.2,0.1-1.8,0.1c-1.2,0.1-2.4,0.2-3.7,0.3c-0.9,0.1-1.9,0.1-2.8,0.1c-0.1,0-0.1,0-0.2,0
		c-0.5,0.2-1.1,0.2-1.6,0c-0.2-0.1-0.4,0-0.6,0.2c-0.1,0.2-0.3,0.4-0.4,0.6c-0.5,1.2-1.1,2.4-1.6,3.7c-0.1,0.2-0.2,0.5-0.3,0.7
		c-0.2,0.6-0.4,1.1-0.6,1.7c-0.3,0.8-0.7,1.5-1,2.3c-0.3,0.8-0.5,1.7-0.8,2.6c-0.4,1.4-0.9,2.8-1.4,4.1C3.1,34.6,3,34.9,3,35.1
		c0.3,0.1,0.5,0.2,0.8,0.3c0.2,0.1,0.5,0.1,0.7,0C5,35.3,5.5,35.1,6.1,34.9 M109.9,44.4c0,0,0.1-0.1,0.1-0.1c0.7-0.1,1.4-0.2,2-0.3
		c0.8,0,1.6-0.2,2.4-0.3c0.9-0.1,1.9-0.2,2.9-0.3c0.4,0,0.9-0.1,1.3-0.1c0.9-0.1,1.8-0.3,2.7-0.4c0.7-0.1,1.5-0.1,2.2-0.3
		c1-0.3,2-0.3,3-0.5c0.6-0.2,1.3-0.2,1.9-0.3c0.7-0.1,1.4-0.3,2.1-0.4c0.8-0.1,1.6-0.1,2.4-0.1c0.5,0,1.1-0.1,1.6-0.1
		c0.9-0.1,1.7-0.3,2.6-0.4c0.5-0.1,1.1,0,1.6-0.2c1-0.3,2.1-0.2,3.1-0.4c0.8-0.1,1.7-0.1,2.6-0.2c0,0,0.1,0,0.1,0c1-0.2,2-0.2,3-0.3
		c0.9,0,1.8,0,2.6-0.2c0.9-0.1,1.8-0.1,2.7-0.3c0.4,0,0.8,0,1.2-0.1c0.7-0.2,1.3-0.2,2-0.3c0.9-0.1,1.7,0.1,2.6-0.1
		c0.2,0,0.3,0,0.3-0.3c0-0.6,0.1-0.5,0.6-0.6c0.7,0,1.3-0.1,2-0.1c0.1,0,0.4-0.1,0.4-0.2c0-0.4,0.3-0.6,0.4-0.8
		c0.6-1.1,1-2.3,1.4-3.6c0.3-0.9,0.3-1.8,0.2-2.7c0-0.6-0.3-1.3-0.5-1.9c-0.1-0.2,0-0.3,0.1-0.4c0.1,0,0.2,0,0.3,0.1
		c0.1,0.1,0.1,0.3,0.2,0.4c0.1,0.3,0.2,0.6,0.4,0.8c0.4,0.4,0.6,0.9,0.8,1.4c0.2,0.4,0.4,0.8,0.5,1.3c0.1,1-0.2,2-0.3,3.1
		c-0.1,0.6-0.4,1.2-0.6,1.8c-0.1,0.4-0.2,0.4,0.2,0.4c0.6,0,1.3-0.1,1.9-0.1c0.1,0,0.1-0.1,0.2-0.2c0.2-0.3,0-0.5,0-0.8
		c0-0.4,0.2-0.8,0.2-1.2c0-0.8,0.2-1.6,0.3-2.4c0.1-0.7,0.1-1.5,0.1-2.2c0-0.9,0-1.8,0-2.6c0-1-0.1-2-0.1-3c0-0.1,0-0.1-0.1-0.2
		c0,0-0.1,0.1-0.1,0.1c-0.3,0.3-0.7,0.5-1,0.7c-0.1,0.1-0.4-0.1-0.6-0.1c0-0.2-0.3-0.3-0.1-0.6c0.2-0.3,0.3-0.6,0.4-0.9
		c0.2-0.5,0.2-0.5-0.4-0.5c-0.3,0-0.7,0.1-1-0.1c-0.1-0.1-0.2,0-0.3,0c-0.3,0-0.5,0.1-0.8,0.1c-1.3,0-2.5,0-3.8-0.1
		c-1.3-0.1-2.6,0-3.9,0c-0.1,0-0.1,0-0.2,0c-0.8,0.2-1.7,0.3-2.5,0.3c-0.6,0-1.1,0-1.7,0c-0.2,0-0.3,0-0.5,0c-0.5,0.1-1,0.2-1.4,0.2
		c-1,0-2.1,0.1-3.1,0.3c-0.9,0.1-1.8,0.2-2.6,0.3s-1.8,0.2-2.7,0.3c-0.7,0.1-1.5,0.2-2.2,0.3c-0.9,0.1-1.8,0.2-2.7,0.3
		c-0.8,0.1-1.6,0.1-2.4,0.1c-1.7,0-3.3,0.1-5,0.4c-0.9,0.2-1.8,0.2-2.6,0.3c-1.2,0.1-2.3,0-3.5,0.1c-1.3,0.1-2.6,0.1-3.9,0.2
		c0,0-0.1,0-0.1,0c-0.7,0.1-1.5,0.2-2.2,0.3c-0.9,0.1-1.8,0.1-2.6,0.1c-0.4,0-0.8,0.1-1.2,0.1c-1.1,0.2-2.3,0.3-3.5,0.3
		c-0.3,0-0.6-0.1-0.9,0c-1,0.2-2.1,0.2-3.1,0.4c-0.9,0.2-1.9,0.1-2.8,0.2c-0.1,0-0.1,0-0.2,0c-0.7,0.2-1.4,0.3-2.1,0.3
		c-0.2,0-0.4,0-0.6,0c-0.6,0.2-1.2,0.2-1.8,0.3c-0.5,0-0.9,0.1-1.4,0.1c-1,0.1-2,0.4-3,0.6c-1.1,0.3-2.3,0.5-3.4,0.8
		c-0.7,0.2-1.5,0.3-2.2,0.4c-0.8,0.2-1.6,0.4-2.4,0.4c-0.8,0-1.6-0.1-2.4-0.3c-0.8-0.3-1.5,0.1-2.3,0.1c-0.5,0-1.1,0.2-1.6,0.2
		c-0.1,0-0.2,0-0.3,0c-0.9,0.6-2,0.5-3,0.7c-0.6,0.1-1.3,0.1-1.9,0.2c-0.1,0-0.1,0-0.2,0c-0.9,0.2-1.8,0.4-2.7,0.4
		c-0.8,0-1.6-0.1-2.4,0C67.7,31.9,67,32,66.3,32c-1.4,0-2.7,0.1-4.1,0.1c-0.1,0-0.2,0-0.2,0.1c-0.4,0.1-0.8,0.2-1.2,0.2
		c-1.5-0.1-3,0.1-4.5,0.3c-0.4,0-0.9,0-1.3,0.1c-1.3,0.4-2.7,0.4-4.1,0.7c-0.5,0.1-1,0-1.4,0.2c-1,0.3-2,0.3-3,0.4
		c-1.1,0.1-2.2-0.1-3.3,0.1c-0.9,0.2-1.8,0.2-2.6,0.3c-0.7,0-1.4,0-2,0.1c-0.4,0.1-0.9,0-1.4,0.2c-1.3,0.4-2.6,0.4-3.9,0.4
		c-0.2,0-0.4,0.1-0.6,0.1c-1,0.3-2,0.4-3.1,0.4c-0.9,0-1.8,0.1-2.7,0.1c0,0-0.1,0-0.1,0C26,35.9,25.4,36,24.8,36c-0.1,0-0.2,0-0.3,0
		c-0.5,0.2-0.9,0.2-1.5,0.2c-1.5,0-3.1-0.1-4.6,0.3c-0.7,0.2-1.3,0.1-2,0.1c-0.9,0-1.8-0.1-2.8-0.1c-0.5,0-0.9,0.1-1.4,0
		c-0.1,0-0.2,0-0.3,0c-0.6,0.4-1.3-0.1-1.9,0c-0.7,0.1-1.5,0-2.2,0.1c-1,0.2-1.9,0.4-2.8,0.7c-0.7,0.2-1.5,0.3-2.3,0.4
		c-0.3,0-0.4,0.1-0.4,0.4c0,0.4,0,0.8-0.1,1.2c-0.1,0.8-0.2,1.5-0.1,2.3c0,1.1-0.1,2.3,0.1,3.5c0.1,0.5-0.1,1.1-0.1,1.6
		c0,1.4,0,2.8,0,4.2c0,0.3,0.1,0.7-0.1,1c0,0,0,0.2,0,0.2c0.1-0.1,0.2-0.1,0.2-0.2c0.2-0.4,0.5-0.5,0.9-0.6c0.7-0.1,1.4-0.2,2-0.3
		c1.1-0.1,2.3,0,3.5-0.1c1.3-0.2,2.7,0,4-0.1c0.4-0.1,0.8,0.1,1.2,0.1c0.4,0,0.7,0,1.1,0c2.2,0,4.3,0.1,6.5-0.2c1-0.2,2-0.1,3.1-0.3
		c0.6-0.1,1.3-0.1,1.9-0.1c1.2-0.1,2.3-0.2,3.5-0.3c0.7-0.1,1.5,0,2.2-0.1c1.1-0.1,2.3-0.2,3.4-0.3c1-0.1,2-0.2,3.1-0.4
		c1.1-0.2,2.1-0.3,3.2-0.4c0.4,0,0.7-0.1,1.1-0.1c0.8-0.1,1.5-0.3,2.3-0.4c1.3-0.1,2.6,0.1,3.9-0.1c0.6-0.1,1.2-0.1,1.8-0.1
		c1-0.1,2-0.2,3.1-0.3c0.9-0.1,1.8-0.2,2.7-0.3c0.9-0.1,1.8-0.1,2.8-0.1c1.3-0.1,2.6,0.1,3.9-0.1c0.6-0.1,1.3-0.1,1.9-0.1
		c1.1-0.1,2.2-0.1,3.3-0.2c0.1,0,0.2,0,0.3,0c0.9-0.2,1.7-0.3,2.6-0.3c0.2,0,0.4,0.1,0.5,0c0.4-0.2,0.8-0.1,1.2-0.1
		c0.4,0,0.9-0.1,1.3-0.1c0.9-0.1,1.8-0.1,2.6-0.1c0,0,0,0,0.1,0c0.7-0.1,1.4-0.2,2-0.3c0.8-0.1,1.6-0.1,2.4-0.1c0,0,0.1,0,0.1,0
		c1-0.3,2-0.3,3-0.4c1.1-0.1,2.3-0.2,3.5-0.3c1.3-0.1,2.6,0,3.9-0.1c1.5-0.1,3.1,0,4.6,0c1.1,0,2.3,0.1,3.5-0.1
		c0.9-0.1,1.8-0.1,2.8-0.2c1.3-0.1,2.6-0.1,3.9-0.1c0,0,0.1,0,0.1,0C107.9,44.4,108.9,44.6,109.9,44.4 M35.8,58
		c-0.2,0-0.4,0.1-0.6,0.1c-1.5,0-2.9-0.1-4.3,0.3c-0.7,0.2-1.4,0.4-2.2,0.5c-1,0.2-1.9,0.5-2.9,0.5c-1,0-1.9-0.1-2.9-0.1
		c-1.6-0.1-3.2,0-4.8,0.2c-0.9,0.1-1.9,0.1-2.8,0.1c-0.2,0-0.4,0.2-0.7,0.1c-0.5-0.2-1.2-0.2-1.7,0c-0.6,0.1-1.2,0.2-1.8,0.2
		c-0.5,0-1,0-1.5,0.1c-0.7,0.2-1.5,0.3-2.2,0.3c-0.3,0-0.6,0-0.9,0c-0.4,0-0.5,0.1-0.6,0.6c0,0.3,0.1,0.6,0,0.9
		c-0.2,0.6-0.2,1.3-0.2,1.9c0,1.2-0.2,2.4-0.2,3.7c0,1.2-0.3,2.4-0.1,3.7c0.2,1,0.1,2,0.2,3c0,0.2,0.1,0.5-0.3,0.5
		c0,0-0.1,0.2-0.2,0.3c0.1,0,0.2,0.1,0.3,0.1c0.5,0,1-0.1,1.4,0c1,0.2,2,0.2,3,0.2c1.2,0,2.4,0,3.6,0.3c0.7,0.1,1.5,0.1,2.3,0.2
		c0.4,0,0.9,0,1.3,0c0.5,0,0.9,0,1.4,0c0.4,0,0.9,0,1.3,0s0.9,0.1,1.3,0c0.5-0.1,0.9,0.1,1.3,0c0.4,0,0.9,0,1.3,0
		c0.6,0,1.2,0.1,1.8,0.1c0.4,0.1,0.9,0.3,1.3,0.2c0.5-0.1,0.9,0.1,1.4,0c0.9-0.1,1.8-0.1,2.8-0.1c1.7-0.1,3.4,0.1,5.1-0.1
		c1.1-0.1,2.2-0.3,3.3-0.4c0.4,0,0.5-0.2,0.6-0.6c0.2-0.5,0.3-1,0.3-1.6c0-0.6,0.2-1.2,0.1-1.8c-0.1-0.6-0.1-1.1-0.1-1.7
		c0-0.2,0.1-0.5,0-0.7c-0.2-0.6-0.2-1.1,0-1.6c0.1-0.2,0.1-0.5,0-0.6c-0.3-0.3,0-0.7-0.1-1c-0.1-0.4-0.1-0.8,0-1.1
		c0.1-0.3-0.1-0.5,0-0.8c0-0.3,0.1-0.6,0-0.9c-0.2-0.4-0.1-0.8-0.1-1.2c0-0.4-0.1-0.8-0.1-1.2c0-0.8-0.2-1.5-0.4-2.3
		c-0.1-0.3-0.2-0.4-0.5-0.4c-0.4,0-0.7,0.1-1.1,0.1C37,58,36.5,58,35.8,58 M140.7,50.9c0,0.3-0.1,0.5-0.1,0.8c0,0.6,0.1,1.2,0.1,1.8
		c0.1,1.3,0.1,2.5,0.7,3.7c0.1,0.1,0.1,0.3,0.1,0.4c0.3,0.7,0.3,1.4,0.5,2.1c0.2,0.5,0.4,1.1,0.4,1.6c0.1,0.7,0.2,1.3,0.3,2
		c0.1,0.6,0.2,1.2,0.3,1.8c0.1,0.5,0.4,0.6,0.8,0.5c0.2,0,0.3-0.1,0.5-0.1c0.7-0.1,1.4-0.2,2.1-0.3c0.6-0.1,1.2-0.2,1.7-0.3
		c0.4-0.1,0.8-0.1,1.2-0.2c1.1-0.2,2.3-0.4,3.4-0.7c0.6-0.1,1.2-0.2,1.7-0.3c0.7-0.2,1.5-0.3,2.2-0.5c0.7-0.1,1.3-0.1,2-0.3
		c1.2-0.3,2.4-0.2,3.5-0.4c0.3,0,0.6,0,0.9-0.1c0.6-0.1,1.1-0.2,1.6-0.7c0.2-0.2,0.3-0.3,0.3-0.5c0-0.3-0.1-0.5-0.1-0.8
		c0-0.9,0.1-1.9-0.1-2.8c-0.1-0.5,0-1-0.2-1.5c-0.3-1.2-0.3-2.5-0.5-3.7c-0.1-0.8,0-1.7,0-2.5c0-0.2,0.2-0.4,0.1-0.6
		c-0.2-0.7-0.1-1.4-0.2-2.1c-0.1-0.5-0.1-1.1-0.2-1.6c0-0.3-0.2-0.3-0.4-0.2c-0.7,0.3-1.4,0.5-2.1,0.5c-0.3,0-0.6,0-0.9,0.1
		c-1,0.3-2,0.6-3.1,0.4c-1.1-0.1-2.1,0.2-3.1,0.5c-1,0.3-1.9,0.5-2.9,0.5c-0.7,0-1.3-0.2-1.9-0.3c-1-0.2-2,0-3,0.2
		c-0.3,0-0.6,0-0.9,0.1c-0.9,0.2-1.8,0.4-2.7,0.4c-0.4,0-0.9-0.1-1.3-0.1c-0.7,0-0.8,0.2-0.8,0.8c0,0.7,0.1,1.5-0.1,2.2
		C140.6,50.6,140.7,50.7,140.7,50.9 M157.1,41.3c-0.2,0-0.4,0-0.6,0c-0.9,0.2-1.8,0.2-2.7,0.4c-0.7,0.1-1.4,0-2.2,0.1
		c-0.5,0.1-1.1,0-1.7,0.1c-0.8,0.1-1.7,0.1-2.6,0.2c-0.6,0-1.1,0.1-1.7,0.1c-1.1,0.1-2.1,0.2-3.2,0.3c-0.3,0-0.8,0-1,0.2
		c-0.3,0.3,0.1,0.7,0.2,1c0.1,0.4,0.3,0.4,0.6,0.4c0.7,0,1.5,0,2.2-0.2c0.4-0.1,0.9,0,1.3-0.1c0.7-0.1,1.4-0.3,2.1-0.4
		c0.6-0.1,1.2-0.2,1.8-0.3c0.6-0.1,1.2-0.2,1.7,0c1,0.2,2,0.2,2.9,0.1c1-0.2,2-0.5,3-0.7c0.6-0.2,1.3-0.2,1.9-0.2
		c0.3,0,0.6-0.1,0.7-0.4c0.1-0.1,0.1-0.3,0.2-0.3c0.2-0.2,0.1-0.2-0.1-0.2C159,41.3,158.1,41.3,157.1,41.3 M139,43.1
		c0.3,0,0.7,0.1,1-0.2c0.1,0,0.1-0.1,0.1-0.1c-0.1,0-0.1-0.1-0.2-0.1c-0.3,0-0.6,0-0.9,0c-0.9,0.1-1.7,0.3-2.6,0.4
		c-0.7,0.1-1.4,0.1-2.2,0.1c-0.1,0-0.1,0-0.2,0c0,0.1,0.1,0.1,0.1,0.2c0.5,0.4,1,0.9,1.5,1.2c0.9,0.6,1.8,1.2,2.8,1.5
		c0.1,0,0.2,0.2,0.3,0.3c0,0,0.1,0.1,0.1,0.1c0,0,0-0.1,0-0.1c0-0.6,0.1-1.2-0.5-1.5c-0.2-0.1-0.3-0.4-0.4-0.6
		c-0.1-0.2,0.1-0.5,0.3-0.5c0.1,0,0.6-0.4,0.6-0.4C138.9,43.3,138.9,43.3,139,43.1 M152.1,44.8c0.2,0,0.5,0,0.7,0
		c0,0,0.1-0.1,0.1-0.1c0-0.1-0.1-0.2-0.1-0.2c-0.4-0.1-0.8-0.1-1.2-0.1c-1.1-0.2-2.1-0.2-3.1,0.1c-0.3,0.1-0.7,0.1-1.1,0.2
		c-0.1,0-0.2,0-0.3,0c-0.1,0-0.1,0.1-0.2,0.2c0.1,0,0.1,0.1,0.2,0.1c0.7,0,1.4,0,2.1,0c0.2,0,0.3,0,0.5,0c0.8,0.3,1.5-0.1,2.3-0.1
		C151.9,44.8,151.9,44.8,152.1,44.8 M157.5,43.8c0.4,0,0.8-0.1,1.2-0.1c0.1,0,0.1-0.1,0.2-0.2c-0.1,0-0.1-0.1-0.2-0.1
		c-0.5-0.1-1,0.2-1.6,0.3c-0.1,0-0.2,0.1-0.2,0.1c0.1,0,0.2,0.1,0.2,0.1C157.2,44,157.3,43.9,157.5,43.8 M40.4,57.6
		c0,0.1-0.1,0.3-0.1,0.4c0,0.1,0,0.1,0,0.2c0.1-0.1,0.2-0.1,0.2-0.2c0.1-0.3,0.2-0.7,0.3-1c0-0.2,0.1-0.3,0.1-0.5
		c0-0.1,0-0.1-0.1-0.2c-0.1,0.1-0.2,0.1-0.2,0.2C40.6,56.9,40.5,57.2,40.4,57.6 M142.3,45.6c0,0,0.1,0,0.1,0
		c0.2-0.1,0.3-0.1,0.5-0.2c-0.2,0-0.3-0.1-0.5-0.1c-0.1,0-0.2,0-0.3,0c-0.2,0-0.3,0.1-0.5,0.2C141.8,45.5,142,45.5,142.3,45.6
		 M64.2,49.1c0.1,0,0.1,0,0.2-0.1c0.1,0,0.1-0.1,0.1-0.2c-0.1,0-0.2,0-0.2,0C64.2,48.9,64.2,49,64.2,49.1 M141.4,65.9
		c-0.1,0-0.1,0-0.2,0c0,0,0,0.1,0,0.1C141.4,66,141.4,66,141.4,65.9 M137.6,2.4C137.6,2.4,137.6,2.3,137.6,2.4
		C137.5,2.4,137.5,2.4,137.6,2.4 M94.3,28.2C94.3,28.2,94.3,28.1,94.3,28.2C94.3,28.1,94.2,28.1,94.3,28.2z"/>
	<path class="st0" d="M41.9,54.3C41.8,54.3,41.8,54.3,41.9,54.3c-0.1-0.2-0.1-0.4,0-0.6C41.9,53.9,41.9,54.1,41.9,54.3z"/>
	<path class="st0" d="M36.5,52.9c-0.1,0-0.1,0-0.2,0c0.1-0.1,0.1-0.1,0.2-0.2C36.5,52.8,36.5,52.9,36.5,52.9z"/>
	<path class="st0" d="M29.5,53.5c-0.1,0-0.1-0.1-0.1-0.2c0,0,0.1,0,0.1,0C29.5,53.3,29.5,53.4,29.5,53.5z"/>
	<path class="st0" d="M39,55.2c0.1,0,0.1,0.1,0.1,0.2c0,0-0.1,0-0.1,0C39,55.3,39,55.3,39,55.2z"/>
	<path class="st0" d="M35.1,55.4c0,0.1,0,0.1,0,0.2c0,0-0.1,0-0.1,0C35.1,55.6,35.1,55.5,35.1,55.4z"/>
	<path class="st0" d="M41.8,52.7C41.8,52.8,41.9,52.8,41.8,52.7C41.8,52.8,41.8,52.8,41.8,52.7z"/>
	<path class="st0" d="M38.2,55.2C38.2,55.2,38.2,55.2,38.2,55.2C38.2,55.2,38.2,55.2,38.2,55.2z"/>
	<path class="st0" d="M37.4,55.4C37.4,55.4,37.4,55.5,37.4,55.4C37.4,55.5,37.4,55.5,37.4,55.4z"/>
	<path class="st0" d="M34.7,55.6C34.7,55.6,34.7,55.6,34.7,55.6C34.7,55.6,34.7,55.6,34.7,55.6z"/>
	<path class="st0" d="M42.3,70.5C42.2,70.5,42.2,70.4,42.3,70.5C42.3,70.4,42.3,70.4,42.3,70.5z"/>
	<path class="st0" d="M77.2,45.7c-0.1,0-0.1,0-0.2,0c0.1-0.1,0.1-0.1,0.2-0.2C77.2,45.5,77.2,45.6,77.2,45.7z"/>
	<path class="st0" d="M38.9,74.9C38.9,74.9,38.9,74.9,38.9,74.9C38.9,74.8,38.9,74.9,38.9,74.9z"/>
</g>
</svg>
