<svg enable-background="new 0 0 170.8 78" viewBox="0 0 170.8 78" xmlns="http://www.w3.org/2000/svg"><path d="m165.4 45.7c0 .4 0 .7.1 1 .1.4.1.9.2 1.4.1.6.2 1.1.2 1.6v.5c-.1.9.1 1.8-.1 2.6-.1.3.1.6.1.9.1.7.3 1.3.4 2 .1.4.1.8.2 1.2.2.8.2 1.6.4 2.3v.5c0 .5 0 .9.1 1.4.1.7.1 1.4-.4 2-.6.7-1.3 1.2-2.3 1.4-1.1.1-2.2.3-3.3.3-.6 0-1.2.3-1.8.3-.4 0-.8.1-1.3.2-.7.1-1.5.3-2.2.4-.6.1-1.3.3-1.9.4-1 .2-2 .2-3 .5s-2.2.3-3.2.6c-.9.2-1.8.3-2.8.5-.3.1-.6 0-.9 0-.4 0-.5.1-.5.5 0 .1.1.2.1.4v.6c-.1.4-.3.5-.7.4-.4 0-.8-.1-1-.6-.1-.3-.1-.6-.1-.9 0-.5 0-.5-.5-.6s-.7-.3-.7-.8c0-.1.1-.3.2-.4 0-.1.1-.1.2-.2-.1 0-.2-.1-.3-.1-.7-.1-1.1-.5-1.2-1.1 0-.2 0-.4.3-.4.1 0 .3.1.3-.2 0-.2-.1-.2-.3-.3-.4-.2-.7-.4-1-.7-1-.8-1.9-1.6-2.7-2.5-.2-.2-.4-.5-.6-.7-.3-.3-.6-.6-1-.8-1-.6-2-1.3-2.9-2-.8-.7-1.5-1.4-2.3-2.1-.3-.3-.5-.6-.4-1 0-.9 0-1.7 0-2.6.1-1.3 0-2.7.2-4 .1-.5 0-.9-.3-1.3-.1-.2-.2-.4-.3-.6-.1-.3.2-.6.5-.5.5.3.4 0 .5-.3 0-.3.2-.5.3-.8.1-.2.2-.5.6-.5.3 0 .6.3.7.6.1.2.1.4.2.7.2.4.1 1 0 1.6-.1.3-.1.7-.2 1.1-.2.9 0 1.7-.2 2.6-.2 1.4 0 2.8-.1 4.1 0 .2.1.2.2.3 1.3 1 2.7 1.8 4 2.7 1 .6 2 1.3 2.7 2.4.2.2.5.4.7.6.2.1.3.3.5.5.1.1.2.2.2.3 0-.1.1-.3 0-.4-.1-.4.1-.8-.1-1.2-.1-.1.1-.4.1-.6 0-1 .1-2 0-3-.1-.9.1-1.8-.2-2.7v-.1c0-1.2-.1-2.4-.1-3.7 0-.5.1-1 .1-1.4 0-.2-.1-.5-.1-.7 0-.1-.2-.3-.3-.3-.5-.2-1.1-.5-1.6-.7-.9-.3-1.5-1-2.3-1.6-.7-.6-1.6-.8-2.4-1.1-.5-.2-1.1-.3-1.6-.3-.2 0-.4.1-.6.1-.5.1-1.1.2-1.6.3-1.4.1-2.8.4-4.2.7-.8.2-1.6.3-2.4.3s-1.6.3-2.5.4c-.5.1-1 .1-1.5.1-.8 0-1.6.1-2.3.3-.5.1-1 .1-1.5.1-.8.1-1.5.2-2.3.3-1.4.2-2.7.4-4.1.4-.4 0-.8.3-1.2 0-.4.2-.8.1-1.2.1-1.5.1-3 0-4.5.2-1.2.1-2.4 0-3.7.1-.3 0-.5.1-.8.1-.1 0-.3 0-.4 0-.6-.2-1.1-.2-1.7 0-.1 0-.3 0-.5 0-.6 0-1.2 0-1.8 0-1.3 0-2.5 0-3.8.2-.6.1-1.3 0-1.9.1-1 .1-2.1.1-3.1.3-.9.1-1.7.2-2.6.3-.6.1-1.3.1-1.9.4-.1 0-.2 0-.3 0-.9 0-1.7.1-2.6.3-.4.1-.8 0-1.1 0-1.3 0-2.6 0-3.9.1-1.1.1-2.2.2-3.3.3-.8.1-1.6-.1-2.3.1-1.5.4-3 .1-4.4.3-1.3.2-2.7 0-4 .1-.6 0-1.3.2-1.9.3s-1.2.1-1.8.1c-.8 0-1.6.1-2.3.3-.1 0-.3 0-.4 0-1.1 0-2.1-.1-3.2 0-1 .1-2 0-3 .4-.3.1-.7.1-1.1.1-.8.1-1.6.2-2.4.3-.3 0-.3.2-.2.3.2.3.3.7.7.9.3.1.5.5.5.9 0 .3.1.7-.1 1 0 0 .1.3.2.3.9.5 1 .9.7 1.8-.3 1.1-.6 2.1-.7 3.2 0 .5-.2.9-.3 1.4-.1.6 0 1.1.1 1.6 0 .7.2 1.4.2 2.1.2 2.1 0 4.2.1 6.3.1 1.1 0 2.3.1 3.4 0 .2.1.4.2.6s.3.4.3.6c-.1.3-.2.7-.5.9-.6.5-1.4.8-2.2.9s-1.6.2-2.3.4c-.1 0-.2 0-.3 0-.2 0-.4 0-.7 0-2.8 0-5.7.1-8.5.1-.5 0-1.1-.2-1.6-.2-.1 0-.1 0-.2 0-1.5 0-2.9-.1-4.4-.1-.5 0-.9.1-1.4 0-.3 0-.5.1-.8.1-.1 0-.2 0-.3 0-1.2 0-2.4 0-3.6-.2-.9-.1-1.9-.2-2.8-.3-1-.1-2 0-3-.1-.7-.1-1.3 0-2-.2-.4-.1-.9-.1-1.4-.2s-1.1-.3-1.6-.4c-.1 0-.2-.1-.4-.1-.5-.1-1-.6-1.1-1.1-.1-.3.2-.4.4-.5.3-.1.4-.3.1-.5-.4-.4-.4-.9-.5-1.3-.1-.5-.1-.9-.1-1.4-.1-1.2-.1-2.3-.1-3.5 0-.4.1-.9.1-1.3s-.1-.8.1-1.2c0-.1 0-.2 0-.3 0-.8 0-1.5.1-2.3.1-1.2.3-2.3.5-3.5.1-.4.3-.8.5-1.1.3-.4.9-.4 1 .1.1.4.2.4.6.3.5-.1 1.1 0 1.6-.2.7-.2 1.4 0 2.1-.4.3-.2.8-.1 1.1-.2 1.1-.2 2.3-.1 3.4-.1h.3c1 0 1.9-.1 2.9-.3h.1c1.9 0 3.8-.1 5.7-.1.5 0 .9.1 1.4.1 1 0 2-.2 2.9-.4 1-.2 1.9-.6 3-.7.6-.1 1.3-.3 1.9-.4h.5c1.4 0 2.8-.1 4.1-.3h.3c.6.1 1.1-.2 1.7 0 0 0 .1-.1.2-.2.1-.3-.1-.6.1-.8-.1-.1-.1-.2-.2-.2-.9.1-1.8-.1-2.6.2-.3.1-.8.1-1.1.2-.6.1-1.1.2-1.7.3-.4.1-.8.1-1.2.2s-.9.2-1.3.2c-.2 0-.4 0-.5 0-1.5 0-2.9 0-4.4 0-1 0-1.9.1-2.8.4-.4.1-.8.1-1.2.1-.7.1-1.3 0-2 .2-.7.1-1.4.1-2 .1s-1.1-.1-1.6-.3c-.1 0-.3 0-.5 0-1.1 0-2.3 0-3.4 0-.7 0-1.4.3-2.1.3-.3 0-.7.1-1 .1-.6 0-.7.1-.6.6 0 .3-.1.5-.3.7-.3.3-.7.2-.9-.2-.1-.2-.2-.4-.3-.6-.1-.1-.1-.3-.2-.4-.2-.2-.1-.3-.1-.5.1-.6.3-1.1.4-1.7 0-.2.1-.3.1-.5.1-.2.3-.4.5-.4.1 0 .4.2.5.4s.3.4.3.7c0 .4.5.6.9.5.8-.2 1.5-.3 2.3-.4 1-.2 2.1-.1 3.1-.1.6 0 1.2.1 1.8.2.5 0 1.1.2 1.6-.1.1-.1.3 0 .5 0 .9 0 1.7-.1 2.5-.3.5-.1.9-.1 1.4-.1 2.3-.1 4.6-.1 6.9-.2 1.1 0 2.1-.2 3.2-.5.6-.2 1.3-.2 1.9-.3 1.1-.2 2.1-.3 3.2-.6.4-.1.5-.2.5-.6 0-.9-.1-1-.9-.8-.7.1-1.5.2-2.2.3-1.4.2-2.8.2-4.1.3-1.2.1-2.3.2-3.5.3-.7.1-1.4 0-2.1.1-.8.1-1.6.1-2.5.3-.1 0-.2 0-.3 0-.8 0-1.6.1-2.4.3-.1 0-.3 0-.4 0-1.1 0-2.3 0-3.4 0-.3 0-.6-.2-.9-.1-.2.1-.6.1-.9 0-.7-.2-1.5-.2-2.2-.1-1 .1-1.9 0-2.8.1-1.1.2-2.2.1-3.3.1-.1 0-.2 0-.3 0s-.2.1-.1.3c.5 1 .5 2 .5 3 0 .4-.4.7-.8.4-.2-.1-.3-.3-.4-.4-.3-.5-.5-1-.4-1.6.1-.5-.2-.9-.3-1.4 0-.1-.3-.3-.4-.4-.3.7-.8.7-1.2.7-.3 0-.7.1-.9-.4 0 0-.2-.1-.2 0-.1 0-.1.1-.1.2-.1.8-.2.9-1 .5-.7-.4-1-1-1.1-1.8 0-.3-.2-.7-.1-1 .2-1.7.1-3.4.1-5.1 0-.4.2-.9.1-1.3-.2-.7-.1-1.4-.1-2 0-.2 0-.5 0-.7 0-.7.1-1.4.3-2.1 0-.1 0-.3 0-.4 0-.8.2-1.6.2-2.5.1-1.1.5-2 .7-3 .3-1.7.9-3.3 1.5-4.8.5-1.5 1-3.1 1.7-4.6.5-1.1.9-2.2 1.4-3.2.7-1.3 1.4-2.6 2.2-3.9.4-.7.9-1.3 1.4-2 .1-.1.2-.2.3-.3.1 0 .3-.1.4 0 .2.1.3.4.4.6.2.3-.1.4-.2.6-.1.1-.1.3-.1.4.2 0 .3.1.5 0 .4-.1.7-.2 1.1-.2 1.1 0 2.2-.3 3.3-.3.7 0 1.4 0 2.2-.1.4 0 .8-.1 1.2-.1s.8.1 1.2-.1h.1c1 0 1.9-.1 2.9-.1.6 0 1.2-.1 1.8-.3.4-.1.8-.1 1.2-.1.8-.1 1.5-.3 2.3-.4 1-.1 2-.4 2.9-.6 1.3-.2 2.6-.5 3.8-.8.7-.1 1.5-.2 2.2-.3s1.3-.3 2-.4c.8-.1 1.5-.2 2.3-.3 1.1-.2 2.1-.2 3.2-.5.6-.2 1.2-.2 1.8-.3 1.4-.3 2.8-.4 4.2-.8.6-.2 1.2-.2 1.8-.3.7-.1 1.5-.3 2.2-.4h.5c.6 0 1.1-.1 1.7-.3.4-.1.8-.1 1.2-.1.7-.1 1.5 0 2.2-.2s1.5 0 2.2-.2c.4-.1.9-.1 1.3-.1.7-.1 1.4-.1 2.1-.1.8-.1 1.5-.3 2.3-.4.4-.1.8-.1 1.2-.1.8 0 1.5-.1 2.3-.3.5-.1 1-.1 1.6-.1.3 0 .6-.1.9-.1s.6.1.9-.1c.1-.1.3 0 .4 0 .8 0 1.6-.1 2.5-.3.5-.1 1-.1 1.5-.2.7-.2 1.6-.1 2.5-.2.8-.1 1.5-.1 2.3-.1 1.1-.1 2.1-.1 3.2-.1 1-.1 2-.1 2.9-.3.6-.1 1.1-.1 1.7-.1.9-.1 1.7 0 2.6-.2.8-.2 1.7-.1 2.5-.1.9-.1 1.8 0 2.6-.2.6-.1 1.1-.1 1.6-.1 1-.1 1.9-.1 2.8-.3.5-.1 1-.1 1.4-.1.5-.1 1-.2 1.5-.2.4-.1.9-.1 1.3-.1 1.4-.1 2.7-.4 4-.7.6-.1 1.3-.2 1.9-.3s1.2-.3 1.8-.4c.3-.1.7-.1 1-.2.7-.1 1.4-.2 2.1-.4.8-.2 1.7-.3 2.5-.4.6-.1 1.1-.3 1.7-.4.4-.1.9-.1 1.3-.1.9-.1 1.8-.1 2.7-.3.8-.1 1.7-.2 2.5-.3.9-.1 1.8-.3 2.7-.4.6-.1 1.3-.1 1.9-.1 1.1-.1 2.1-.1 3.2-.1.3 0 .4-.1.4-.4.1-.6.2-.7.7-.4 1.1.6 2.2 1.1 3.3 1.8.8.5 1.6 1.1 2.4 1.6.5.3 1 .7 1.5 1 .6.4 1.3.9 2 1.3.9.6 1.8 1.2 2.7 1.8 1.3.9 2.6 1.8 3.9 2.7 1.1.7 2.1 1.4 3.3 2 1.8 1 3.5 2 5.1 3.2.8.6 1.7 1.1 2.5 1.7s1.6 1.1 2.3 1.8c.7.6 1.3 1.2 2 1.9.2.2.5.5.7.8.4.8.5 1.5-.1 2.3-.3.4-.5.9-.8 1.3-.2.3 0 .5.1.6.3.5.5 1.1.3 1.7-.1.2 0 .3 0 .5 0 1.1-.1 2.2-.3 3.3-.1.4-.1.9-.1 1.4-.1.9-.1 1.8-.3 2.7-.1.8-.2 1.5-.3 2.3-.1.7-.1 1.4-.4 2.1-.1.3-.4.4-.7.4-.5-.1-.8-.3-1.2-.6-.5-.5-1.1-.7-1.8-.4-.4.2-.8.2-1.2.3-.2 0-.4.1-.4.3-.1.4-.3.6-.7.7-.1 0-.2.1-.3.1-.2.1-.4.1-.5.2s.1.3.1.5c0 .5 0 .9-.2 1.3-.1.3 0 .5.3.5.4 0 .9.2 1.3-.2.3-.3.7-.1.9.1.5.5 1.1 1.1 1.1 1.9.1.3.2.4.3.6m-44.3-42.5c-.1 0-.1 0-.2 0v.1c.1 0 .1-.1.3-.1v-.1c0 .1 0 .1-.1.1m41.9 36.8c-.1 0-.1 0-.2 0v.1c.1 0 .1-.1.3-.1v-.1c0 .1 0 .1-.1.1m-156.9-5.1h.3c1-.3 1.9-.4 2.9-.4h3.1.5c.5-.1 1-.2 1.6-.3 1.5-.1 3.1.1 4.6-.1.8-.1 1.5 0 2.3-.1.6-.1 1.3-.1 1.9-.1 1.1-.1 2.1-.1 3.2-.3.9-.1 1.8-.1 2.7-.2.7 0 1.5 0 2.2-.2.4-.1.8 0 1.2-.1.9-.2 1.8-.3 2.7-.4 1.6-.1 3.2 0 4.7-.3 1.2-.2 2.3-.1 3.5-.2.9 0 1.8-.1 2.7-.1h.2c.6 0 1.1-.1 1.6-.1.6-.1 1.1 0 1.7-.2.7-.1 1.4-.3 2.2-.3h.3c.7-.3 1.4-.1 2.1-.2.7-.2 1.5-.1 2.3-.2.5 0 .9 0 1.4-.2.7-.2 1.4.1 2.1-.3.3.2.7.1 1 0 .9-.1 1.7-.2 2.6-.3 1.4-.1 2.9 0 4.3-.3.5-.1 1-.1 1.5-.1.3 0 .7 0 1-.1.9-.3 1.9-.2 2.8-.4.8-.1 1.6-.1 2.4-.2h.2c.5-.1 1-.3 1.4-.2.9 0 1.9-.2 2.8-.3s1.7-.4 2.6-.4c.4 0 .7-.1 1.1-.1.9-.2 1.8-.3 2.7-.4h.4c.5-.2 1-.3 1.6-.3h.5c.6-.1 1.2-.3 1.9-.4.6-.1 1.2-.2 1.8-.3 1.1-.2 2.2-.5 3.3-.7.9-.1 1.8-.2 2.7-.3.4 0 .9 0 1.3-.1.8-.2 1.6-.3 2.5-.4.4 0 .8 0 1.2-.1.7-.3 1.5-.3 2.3-.4.5 0 .9 0 1.4-.2.3-.1.6-.1 1-.1.3 0 .7-.1 1-.1.6-.1 1.2 0 1.8-.2.4-.1.9 0 1.3-.1 1.1-.3 2.1-.4 3.2-.5s2.3-.3 3.4-.4c.9-.1 1.8-.1 2.6-.1 1.6-.1 3.3-.1 4.9-.1h.3c.5-.1 1.1-.2 1.6-.2.7-.1 1.5 0 2.2-.2.4-.1.9 0 1.3-.1.9-.3 1.9-.2 2.9-.4.6-.1 1.2-.1 1.8-.2.5 0 1 0 1.5-.2.7-.2 1.4 0 2.1-.2 3.2-.1 6.4.1 9.6-.1.7-.1 1.4 0 2.1-.1.9-.1 1.9-.1 2.9-.3.4-.1.7 0 1.1 0 .3 0 .6-.1 1-.1h1c.6.1 1.3.1 1.9.1h.3c.9.3 1.9.2 2.8.1.8-.1 1.6 0 2.5-.2.5-.1 1-.2 1.4-.3.3-.1.2-.1.1-.3-.4-.4-.9-.8-1.4-1.1-.6-.4-1.2-.9-1.8-1.3-1.9-1.4-4-2.5-6-3.6-1.3-.7-2.6-1.6-3.8-2.5-1-.8-2.1-1.5-3.2-2.2-.6-.4-1.3-.8-2-1.3-.6-.4-1.2-.9-1.8-1.3-1-.7-1.9-1.4-2.9-2.1-.6-.4-1.1-.8-1.7-1.1-.7-.4-1.3-.7-1.9-1.2-.2-.1-.4-.3-.6-.3-.3 0-.6.2-.9.3-.6.3-1.1.8-1.8.6 0 0-.1.1-.1.1-.8.3-1.6.3-2.4.5-.5.1-1 .1-1.6.1-1 .1-1.9.3-2.9.4-.8.1-1.7.1-2.5.3-.4.1-.8.1-1.2.1-.8.1-1.5.3-2.3.4s-1.7.3-2.5.4c-.9.2-1.9.3-2.8.5-.6.1-1.3.2-1.9.3s-1.2.2-1.8.3c-.4.1-.9 0-1.4.2-1.2.4-2.4.5-3.6.6-.9.1-1.9.2-2.8.3-.8.1-1.5.2-2.3.3-1 .1-1.9.2-2.9.3-.8.1-1.6 0-2.4.1s-1.7 0-2.5.1-1.6.1-2.4.1c-1.6.2-2.9.3-4.2.4-1.1.1-2.3.2-3.4.3-1.3.1-2.6.1-3.9.1-.5 0-1.1-.1-1.6 0-.7.1-1.4.3-2 .3-.2 0-.3 0-.5 0-.8.2-1.5.3-2.3.3-.1 0-.2 0-.3 0-.5.1-.9.2-1.4.3-.9.1-1.7.1-2.6.3-.7.1-1.5.2-2.2.3-.4.1-.9 0-1.3.1-1.1.3-2.2.4-3.3.4-.7 0-1.5.1-2.2.1 0 0 0 0-.1 0-.8.2-1.6.3-2.4.3-.1 0-.2 0-.3 0-.9.2-1.9.2-2.9.4-.9.2-1.8.2-2.7.3-.4 0-.7.2-1 .2-.7.1-1.4.2-2.1.4s-1.4.4-2.1.3c-.1 0-.1.1-.2.1-.4.1-.7.1-1.1.2-.1 0-.3 0-.4 0-.7.3-1.5.4-2.3.5-.4.1-.7.3-1.1.3-.9 0-1.8.2-2.7.3-.4 0-.7.2-1 .2-.6.1-1.3.2-1.9.3-.7.1-1.5.2-2.2.3s-1.4.3-2.1.4c-.4.1-.8.2-1.2.3-.6.1-1.2.2-1.7.4-.6.2-1.2.2-1.8.3-1 .2-2 .4-2.9.6-1 .1-2 .1-3 .2-.6.1-1.3-.1-1.9 0-.7.2-1.5 0-2.2.2-.6.2-1.2.1-1.8.1-1.2.1-2.4.2-3.7.3-.9.1-1.9.1-2.8.1-.1 0-.1 0-.2 0-.5.2-1.1.2-1.6 0-.2-.1-.4 0-.6.2-.1.2-.3.4-.4.6-.5 1.2-1.1 2.4-1.6 3.7-.1.2-.2.5-.3.7-.2.6-.4 1.1-.6 1.7-.3.8-.7 1.5-1 2.3s-.5 1.7-.8 2.6c-.4 1.4-.9 2.8-1.4 4.1-.5.2-.6.5-.6.7.3.1.5.2.8.3.2.1.5.1.7 0 .5-.1 1-.3 1.6-.5m103.8 9.5s.1-.1.1-.1c.7-.1 1.4-.2 2-.3.8 0 1.6-.2 2.4-.3.9-.1 1.9-.2 2.9-.3.4 0 .9-.1 1.3-.1.9-.1 1.8-.3 2.7-.4.7-.1 1.5-.1 2.2-.3 1-.3 2-.3 3-.5.6-.2 1.3-.2 1.9-.3.7-.1 1.4-.3 2.1-.4.8-.1 1.6-.1 2.4-.1.5 0 1.1-.1 1.6-.1.9-.1 1.7-.3 2.6-.4.5-.1 1.1 0 1.6-.2 1-.3 2.1-.2 3.1-.4.8-.1 1.7-.1 2.6-.2h.1c1-.2 2-.2 3-.3.9 0 1.8 0 2.6-.2.9-.1 1.8-.1 2.7-.3.4 0 .8 0 1.2-.1.7-.2 1.3-.2 2-.3.9-.1 1.7.1 2.6-.1.2 0 .3 0 .3-.3 0-.6.1-.5.6-.6.7 0 1.3-.1 2-.1.1 0 .4-.1.4-.2 0-.4.3-.6.4-.8.6-1.1 1-2.3 1.4-3.6.3-.9.3-1.8.2-2.7 0-.6-.3-1.3-.5-1.9-.1-.2 0-.3.1-.4.1 0 .2 0 .3.1s.1.3.2.4c.1.3.2.6.4.8.4.4.6.9.8 1.4.2.4.4.8.5 1.3.1 1-.2 2-.3 3.1-.1.6-.4 1.2-.6 1.8-.1.4-.2.4.2.4.6 0 1.3-.1 1.9-.1.1 0 .1-.1.2-.2.2-.3 0-.5 0-.8 0-.4.2-.8.2-1.2 0-.8.2-1.6.3-2.4.1-.7.1-1.5.1-2.2 0-.9 0-1.8 0-2.6 0-1-.1-2-.1-3 0-.1 0-.1-.1-.2 0 0-.1.1-.1.1-.3.3-.7.5-1 .7-.1.1-.4-.1-.6-.1 0-.2-.3-.3-.1-.6s.3-.6.4-.9c.2-.5.2-.5-.4-.5-.3 0-.7.1-1-.1-.1-.1-.2 0-.3 0-.3 0-.5.1-.8.1-1.3 0-2.5 0-3.8-.1s-2.6 0-3.9 0c-.1 0-.1 0-.2 0-.8.2-1.7.3-2.5.3-.6 0-1.1 0-1.7 0-.2 0-.3 0-.5 0-.5.1-1 .2-1.4.2-1 0-2.1.1-3.1.3-.9.1-1.8.2-2.6.3s-1.8.2-2.7.3c-.7.1-1.5.2-2.2.3-.9.1-1.8.2-2.7.3-.8.1-1.6.1-2.4.1-1.7 0-3.3.1-5 .4-.9.2-1.8.2-2.6.3-1.2.1-2.3 0-3.5.1-1.3.1-2.6.1-3.9.2h-.1c-.7.1-1.5.2-2.2.3-.9.1-1.8.1-2.6.1-.4 0-.8.1-1.2.1-1.1.2-2.3.3-3.5.3-.3 0-.6-.1-.9 0-1 .2-2.1.2-3.1.4-.9.2-1.9.1-2.8.2-.1 0-.1 0-.2 0-.7.2-1.4.3-2.1.3-.2 0-.4 0-.6 0-.6.2-1.2.2-1.8.3-.5 0-.9.1-1.4.1-1 .1-2 .4-3 .6-1.1.3-2.3.5-3.4.8-.7.2-1.5.3-2.2.4-.8.2-1.6.4-2.4.4s-1.6-.1-2.4-.3c-.8-.3-1.5.1-2.3.1-.5 0-1.1.2-1.6.2-.1 0-.2 0-.3 0-.9.6-2 .5-3 .7-.6.1-1.3.1-1.9.2-.1 0-.1 0-.2 0-.9.2-1.8.4-2.7.4-.8 0-1.6-.1-2.4 0-.9-.1-1.6 0-2.3 0-1.4 0-2.7.1-4.1.1-.1 0-.2 0-.2.1-.4.1-.8.2-1.2.2-1.5-.1-3 .1-4.5.3-.4 0-.9 0-1.3.1-1.3.4-2.7.4-4.1.7-.5.1-1 0-1.4.2-1 .3-2 .3-3 .4-1.1.1-2.2-.1-3.3.1-.9.2-1.8.2-2.6.3-.7 0-1.4 0-2 .1-.4.1-.9 0-1.4.2-1.3.4-2.6.4-3.9.4-.2 0-.4.1-.6.1-1 .3-2 .4-3.1.4-.9 0-1.8.1-2.7.1h-.1c-.8.1-1.4.2-2 .2-.1 0-.2 0-.3 0-.5.2-.9.2-1.5.2-1.5 0-3.1-.1-4.6.3-.7.2-1.3.1-2 .1-.9 0-1.8-.1-2.8-.1-.5 0-.9.1-1.4 0-.1 0-.2 0-.3 0-.6.4-1.3-.1-1.9 0-.7.1-1.5 0-2.2.1-1 .2-1.9.4-2.8.7-.7.2-1.5.3-2.3.4-.3 0-.4.1-.4.4 0 .4 0 .8-.1 1.2-.1.8-.2 1.5-.1 2.3 0 1.1-.1 2.3.1 3.5.1.5-.1 1.1-.1 1.6v4.2c0 .3.1.7-.1 1v.2c.1-.1.2-.1.2-.2.2-.4.5-.5.9-.6.7-.1 1.4-.2 2-.3 1.1-.1 2.3 0 3.5-.1 1.3-.2 2.7 0 4-.1.4-.1.8.1 1.2.1h1.1c2.2 0 4.3.1 6.5-.2 1-.2 2-.1 3.1-.3.6-.1 1.3-.1 1.9-.1 1.2-.1 2.3-.2 3.5-.3.7-.1 1.5 0 2.2-.1 1.1-.1 2.3-.2 3.4-.3 1-.1 2-.2 3.1-.4s2.1-.3 3.2-.4c.4 0 .7-.1 1.1-.1.8-.1 1.5-.3 2.3-.4 1.3-.1 2.6.1 3.9-.1.6-.1 1.2-.1 1.8-.1 1-.1 2-.2 3.1-.3.9-.1 1.8-.2 2.7-.3s1.8-.1 2.8-.1c1.3-.1 2.6.1 3.9-.1.6-.1 1.3-.1 1.9-.1 1.1-.1 2.2-.1 3.3-.2h.3c.9-.2 1.7-.3 2.6-.3.2 0 .4.1.5 0 .4-.2.8-.1 1.2-.1s.9-.1 1.3-.1c.9-.1 1.8-.1 2.6-.1h.1c.7-.1 1.4-.2 2-.3.8-.1 1.6-.1 2.4-.1h.1c1-.3 2-.3 3-.4 1.1-.1 2.3-.2 3.5-.3 1.3-.1 2.6 0 3.9-.1 1.5-.1 3.1 0 4.6 0 1.1 0 2.3.1 3.5-.1.9-.1 1.8-.1 2.8-.2 1.3-.1 2.6-.1 3.9-.1h.1c.9-.4 1.9-.2 2.9-.4m-74.1 13.6c-.2 0-.4.1-.6.1-1.5 0-2.9-.1-4.3.3-.7.2-1.4.4-2.2.5-1 .2-1.9.5-2.9.5s-1.9-.1-2.9-.1c-1.6-.1-3.2 0-4.8.2-.9.1-1.9.1-2.8.1-.2 0-.4.2-.7.1-.5-.2-1.2-.2-1.7 0-.6.1-1.2.2-1.8.2-.5 0-1 0-1.5.1-.7.2-1.5.3-2.2.3-.3 0-.6 0-.9 0-.4 0-.5.1-.6.6 0 .3.1.6 0 .9-.2.6-.2 1.3-.2 1.9 0 1.2-.2 2.4-.2 3.7 0 1.2-.3 2.4-.1 3.7.2 1 .1 2 .2 3 0 .2.1.5-.3.5 0 0-.1.2-.2.3.1 0 .2.1.3.1.5 0 1-.1 1.4 0 1 .2 2 .2 3 .2 1.2 0 2.4 0 3.6.3.7.1 1.5.1 2.3.2h1.3 1.4 1.3s.9.1 1.3 0c.5-.1.9.1 1.3 0h1.3c.6 0 1.2.1 1.8.1.4.1.9.3 1.3.2.5-.1.9.1 1.4 0 .9-.1 1.8-.1 2.8-.1 1.7-.1 3.4.1 5.1-.1 1.1-.1 2.2-.3 3.3-.4.4 0 .5-.2.6-.6.2-.5.3-1 .3-1.6s.2-1.2.1-1.8-.1-1.1-.1-1.7c0-.2.1-.5 0-.7-.2-.6-.2-1.1 0-1.6.1-.2.1-.5 0-.6-.3-.3 0-.7-.1-1-.1-.4-.1-.8 0-1.1s-.1-.5 0-.8c0-.3.1-.6 0-.9-.2-.4-.1-.8-.1-1.2s-.1-.8-.1-1.2c0-.8-.2-1.5-.4-2.3-.1-.3-.2-.4-.5-.4-.4 0-.7.1-1.1.1-.9 0-1.4 0-2.1 0m104.9-7.1c0 .3-.1.5-.1.8 0 .6.1 1.2.1 1.8.1 1.3.1 2.5.7 3.7.1.1.1.3.1.4.3.7.3 1.4.5 2.1.2.5.4 1.1.4 1.6.1.7.2 1.3.3 2 .1.6.2 1.2.3 1.8.1.5.4.6.8.5.2 0 .3-.1.5-.1l2.1-.3c.6-.1 1.2-.2 1.7-.3.4-.1.8-.1 1.2-.2 1.1-.2 2.3-.4 3.4-.7.6-.1 1.2-.2 1.7-.3.7-.2 1.5-.3 2.2-.5.7-.1 1.3-.1 2-.3 1.2-.3 2.4-.2 3.5-.4.3 0 .6 0 .9-.1.6-.1 1.1-.2 1.6-.7.2-.2.3-.3.3-.5 0-.3-.1-.5-.1-.8 0-.9.1-1.9-.1-2.8-.1-.5 0-1-.2-1.5-.3-1.2-.3-2.5-.5-3.7-.1-.8 0-1.7 0-2.5 0-.2.2-.4.1-.6-.2-.7-.1-1.4-.2-2.1-.1-.5-.1-1.1-.2-1.6 0-.3-.2-.3-.4-.2-.7.3-1.4.5-2.1.5-.3 0-.6 0-.9.1-1 .3-2 .6-3.1.4-1.1-.1-2.1.2-3.1.5s-1.9.5-2.9.5c-.7 0-1.3-.2-1.9-.3-1-.2-2 0-3 .2-.3 0-.6 0-.9.1-.9.2-1.8.4-2.7.4-.4 0-.9-.1-1.3-.1-.7 0-.8.2-.8.8 0 .7.1 1.5-.1 2.2.1-.1.2 0 .2.2m16.4-9.6c-.2 0-.4 0-.6 0-.9.2-1.8.2-2.7.4-.7.1-1.4 0-2.2.1-.5.1-1.1 0-1.7.1-.8.1-1.7.1-2.6.2-.6 0-1.1.1-1.7.1-1.1.1-2.1.2-3.2.3-.3 0-.8 0-1 .2-.3.3.1.7.2 1 .1.4.3.4.6.4.7 0 1.5 0 2.2-.2.4-.1.9 0 1.3-.1.7-.1 1.4-.3 2.1-.4.6-.1 1.2-.2 1.8-.3s1.2-.2 1.7 0c1 .2 2 .2 2.9.1 1-.2 2-.5 3-.7.6-.2 1.3-.2 1.9-.2.3 0 .6-.1.7-.4.1-.1.1-.3.2-.3.2-.2.1-.2-.1-.2-.9-.1-1.8-.1-2.8-.1m-18.1 1.8c.3 0 .7.1 1-.2.1 0 .1-.1.1-.1-.1 0-.1-.1-.2-.1-.3 0-.6 0-.9 0-.9.1-1.7.3-2.6.4-.7.1-1.4.1-2.2.1-.1 0-.1 0-.2 0 0 .1.1.1.1.2.5.4 1 .9 1.5 1.2.9.6 1.8 1.2 2.8 1.5.1 0 .2.2.3.3 0 0 .1.1.1.1v-.1c0-.6.1-1.2-.5-1.5-.2-.1-.3-.4-.4-.6s.1-.5.3-.5c.1 0 .6-.4.6-.4.1-.1.1-.1.2-.3m13.1 1.7h.7s.1-.1.1-.1c0-.1-.1-.2-.1-.2-.4-.1-.8-.1-1.2-.1-1.1-.2-2.1-.2-3.1.1-.3.1-.7.1-1.1.2-.1 0-.2 0-.3 0s-.1.1-.2.2c.1 0 .1.1.2.1h2.1.5c.8.3 1.5-.1 2.3-.1-.1-.1-.1-.1.1-.1m5.4-1c.4 0 .8-.1 1.2-.1.1 0 .1-.1.2-.2-.1 0-.1-.1-.2-.1-.5-.1-1 .2-1.6.3-.1 0-.2.1-.2.1.1 0 .2.1.2.1.1.1.2 0 .4-.1m-117.1 13.8c0 .1-.1.3-.1.4v.2c.1-.1.2-.1.2-.2.1-.3.2-.7.3-1 0-.2.1-.3.1-.5 0-.1 0-.1-.1-.2-.1.1-.2.1-.2.2 0 .4-.1.7-.2 1.1m101.9-12h.1c.2-.1.3-.1.5-.2-.2 0-.3-.1-.5-.1-.1 0-.2 0-.3 0-.2 0-.3.1-.5.2.2 0 .4 0 .7.1m-78.1 3.5c.1 0 .1 0 .2-.1.1 0 .1-.1.1-.2-.1 0-.2 0-.2 0-.1.1-.1.2-.1.3m77.2 16.8c-.1 0-.1 0-.2 0v.1c.2 0 .2 0 .2-.1m-3.8-63.5c-.1 0-.1 0 0 0m-43.3 25.8c0-.1-.1-.1 0 0z"/><path d="m41.9 54.3c-.1 0-.1 0 0 0-.1-.2-.1-.4 0-.6z"/><path d="m36.5 52.9c-.1 0-.1 0-.2 0 .1-.1.1-.1.2-.2z"/><path d="m29.5 53.5c-.1 0-.1-.1-.1-.2h.1z"/><path d="m39 55.2c.1 0 .1.1.1.2h-.1c0-.1 0-.1 0-.2z"/><path d="m35.1 55.4v.2h-.1c.1 0 .1-.1.1-.2z"/><path d="m41.8 52.7c0 .1.1.1 0 0 0 .1 0 .1 0 0z"/><path d="m37.4 55.4s0 .1 0 0c0 .1 0 .1 0 0z"/><path d="m42.3 70.5c-.1 0-.1-.1 0 0 0-.1 0-.1 0 0z"/><path d="m77.2 45.7c-.1 0-.1 0-.2 0 .1-.1.1-.1.2-.2z"/><path d="m38.9 74.9c0-.1 0 0 0 0z"/></svg>